G04 EAGLE Gerber RS-274X export*
G75*
%MOMM*%
%FSLAX34Y34*%
%LPD*%
%INBottom Copper*%
%IPPOS*%
%AMOC8*
5,1,8,0,0,1.08239X$1,22.5*%
G01*
%ADD10C,1.320800*%
%ADD11C,2.540000*%
%ADD12C,1.117600*%
%ADD13C,2.400300*%
%ADD14C,2.540000*%
%ADD15C,1.524000*%
%ADD16P,4.123906X8X22.500000*%
%ADD17C,1.408000*%
%ADD18C,0.152400*%

G36*
X664677Y11950D02*
X664677Y11950D01*
X664749Y11952D01*
X664798Y11970D01*
X664849Y11979D01*
X664913Y12012D01*
X664980Y12037D01*
X665021Y12069D01*
X665067Y12094D01*
X665116Y12146D01*
X665172Y12190D01*
X665200Y12234D01*
X665236Y12272D01*
X665266Y12337D01*
X665305Y12397D01*
X665318Y12448D01*
X665340Y12495D01*
X665348Y12566D01*
X665365Y12636D01*
X665361Y12688D01*
X665367Y12739D01*
X665352Y12810D01*
X665346Y12881D01*
X665326Y12929D01*
X665315Y12980D01*
X665278Y13041D01*
X665250Y13107D01*
X665205Y13163D01*
X665188Y13191D01*
X665171Y13206D01*
X665145Y13238D01*
X661041Y17342D01*
X658875Y22571D01*
X658875Y28229D01*
X661041Y33458D01*
X665042Y37459D01*
X670271Y39625D01*
X675929Y39625D01*
X681231Y37429D01*
X681344Y37402D01*
X681458Y37374D01*
X681464Y37374D01*
X681470Y37373D01*
X681587Y37384D01*
X681703Y37393D01*
X681709Y37395D01*
X681715Y37396D01*
X681822Y37444D01*
X681929Y37489D01*
X681935Y37494D01*
X681940Y37496D01*
X681953Y37509D01*
X682060Y37594D01*
X722914Y78448D01*
X722967Y78522D01*
X723027Y78592D01*
X723039Y78622D01*
X723058Y78648D01*
X723085Y78735D01*
X723119Y78820D01*
X723123Y78861D01*
X723130Y78883D01*
X723129Y78915D01*
X723137Y78987D01*
X723137Y169469D01*
X723126Y169540D01*
X723124Y169611D01*
X723106Y169660D01*
X723098Y169712D01*
X723064Y169775D01*
X723039Y169842D01*
X723007Y169883D01*
X722982Y169929D01*
X722930Y169978D01*
X722886Y170034D01*
X722842Y170063D01*
X722804Y170098D01*
X722739Y170129D01*
X722679Y170167D01*
X722628Y170180D01*
X722581Y170202D01*
X722510Y170210D01*
X722440Y170228D01*
X722388Y170223D01*
X722337Y170229D01*
X722266Y170214D01*
X722195Y170208D01*
X722147Y170188D01*
X722096Y170177D01*
X722035Y170140D01*
X721969Y170112D01*
X721913Y170067D01*
X721885Y170051D01*
X721870Y170033D01*
X721838Y170007D01*
X718164Y166333D01*
X713192Y164274D01*
X683808Y164274D01*
X678836Y166333D01*
X675032Y170138D01*
X672972Y175109D01*
X672972Y175260D01*
X672969Y175280D01*
X672971Y175299D01*
X672949Y175401D01*
X672933Y175503D01*
X672923Y175520D01*
X672919Y175540D01*
X672866Y175629D01*
X672817Y175720D01*
X672803Y175734D01*
X672793Y175751D01*
X672714Y175818D01*
X672639Y175890D01*
X672621Y175898D01*
X672606Y175911D01*
X672510Y175950D01*
X672416Y175993D01*
X672396Y175995D01*
X672378Y176003D01*
X672211Y176021D01*
X354145Y176021D01*
X193048Y337118D01*
X193032Y337130D01*
X193019Y337145D01*
X192932Y337202D01*
X192848Y337262D01*
X192829Y337268D01*
X192812Y337278D01*
X192712Y337304D01*
X192613Y337334D01*
X192593Y337334D01*
X192574Y337338D01*
X192471Y337330D01*
X192367Y337328D01*
X192348Y337321D01*
X192329Y337319D01*
X192234Y337279D01*
X192136Y337243D01*
X192120Y337231D01*
X192102Y337223D01*
X191971Y337118D01*
X188354Y333501D01*
X171310Y333501D01*
X159257Y345554D01*
X159257Y362598D01*
X171310Y374651D01*
X188354Y374651D01*
X200407Y362598D01*
X200407Y345554D01*
X196282Y341429D01*
X196270Y341413D01*
X196255Y341400D01*
X196198Y341313D01*
X196138Y341229D01*
X196132Y341210D01*
X196122Y341193D01*
X196096Y341093D01*
X196066Y340994D01*
X196066Y340974D01*
X196062Y340955D01*
X196070Y340852D01*
X196072Y340748D01*
X196079Y340729D01*
X196081Y340709D01*
X196121Y340615D01*
X196157Y340517D01*
X196169Y340501D01*
X196177Y340483D01*
X196282Y340352D01*
X355816Y180818D01*
X355890Y180765D01*
X355960Y180705D01*
X355990Y180693D01*
X356016Y180674D01*
X356103Y180647D01*
X356188Y180613D01*
X356229Y180609D01*
X356251Y180602D01*
X356283Y180603D01*
X356355Y180595D01*
X672507Y180595D01*
X672622Y180614D01*
X672738Y180631D01*
X672743Y180633D01*
X672750Y180634D01*
X672852Y180689D01*
X672957Y180742D01*
X672961Y180747D01*
X672967Y180750D01*
X673047Y180834D01*
X673129Y180918D01*
X673133Y180924D01*
X673136Y180928D01*
X673144Y180945D01*
X673210Y181065D01*
X675032Y185462D01*
X678836Y189267D01*
X683808Y191326D01*
X713192Y191326D01*
X718164Y189267D01*
X721838Y185593D01*
X721896Y185551D01*
X721948Y185502D01*
X721995Y185480D01*
X722037Y185449D01*
X722106Y185428D01*
X722171Y185398D01*
X722223Y185392D01*
X722273Y185377D01*
X722344Y185379D01*
X722415Y185371D01*
X722466Y185382D01*
X722518Y185383D01*
X722586Y185408D01*
X722656Y185423D01*
X722701Y185450D01*
X722749Y185468D01*
X722805Y185513D01*
X722867Y185549D01*
X722901Y185589D01*
X722941Y185621D01*
X722980Y185682D01*
X723027Y185736D01*
X723046Y185784D01*
X723074Y185828D01*
X723092Y185898D01*
X723119Y185964D01*
X723127Y186036D01*
X723135Y186067D01*
X723133Y186090D01*
X723137Y186131D01*
X723137Y220269D01*
X723126Y220340D01*
X723124Y220411D01*
X723106Y220460D01*
X723098Y220512D01*
X723064Y220575D01*
X723039Y220642D01*
X723007Y220683D01*
X722982Y220729D01*
X722930Y220778D01*
X722886Y220834D01*
X722842Y220863D01*
X722804Y220898D01*
X722739Y220929D01*
X722679Y220967D01*
X722628Y220980D01*
X722581Y221002D01*
X722510Y221010D01*
X722440Y221028D01*
X722388Y221023D01*
X722337Y221029D01*
X722266Y221014D01*
X722195Y221008D01*
X722147Y220988D01*
X722096Y220977D01*
X722035Y220940D01*
X721969Y220912D01*
X721913Y220867D01*
X721885Y220851D01*
X721870Y220833D01*
X721838Y220807D01*
X718164Y217133D01*
X713192Y215074D01*
X683808Y215074D01*
X678836Y217133D01*
X675032Y220938D01*
X672972Y225909D01*
X672972Y231291D01*
X675032Y236262D01*
X678836Y240067D01*
X683808Y242126D01*
X713192Y242126D01*
X718164Y240067D01*
X721838Y236393D01*
X721896Y236351D01*
X721948Y236302D01*
X721995Y236280D01*
X722037Y236249D01*
X722106Y236228D01*
X722171Y236198D01*
X722223Y236192D01*
X722273Y236177D01*
X722344Y236179D01*
X722415Y236171D01*
X722466Y236182D01*
X722518Y236183D01*
X722586Y236208D01*
X722656Y236223D01*
X722701Y236250D01*
X722749Y236268D01*
X722805Y236313D01*
X722867Y236349D01*
X722901Y236389D01*
X722941Y236421D01*
X722980Y236482D01*
X723027Y236536D01*
X723046Y236584D01*
X723074Y236628D01*
X723092Y236698D01*
X723119Y236764D01*
X723127Y236836D01*
X723135Y236867D01*
X723133Y236890D01*
X723137Y236931D01*
X723137Y271069D01*
X723126Y271140D01*
X723124Y271211D01*
X723106Y271260D01*
X723098Y271312D01*
X723064Y271375D01*
X723039Y271442D01*
X723007Y271483D01*
X722982Y271529D01*
X722930Y271578D01*
X722886Y271634D01*
X722842Y271663D01*
X722804Y271698D01*
X722739Y271729D01*
X722679Y271767D01*
X722628Y271780D01*
X722581Y271802D01*
X722510Y271810D01*
X722440Y271828D01*
X722388Y271823D01*
X722337Y271829D01*
X722266Y271814D01*
X722195Y271808D01*
X722147Y271788D01*
X722096Y271777D01*
X722035Y271740D01*
X721969Y271712D01*
X721913Y271667D01*
X721885Y271651D01*
X721870Y271633D01*
X721838Y271607D01*
X718164Y267933D01*
X713192Y265874D01*
X683808Y265874D01*
X678836Y267933D01*
X675032Y271738D01*
X672972Y276709D01*
X672972Y282091D01*
X675032Y287062D01*
X678836Y290867D01*
X683808Y292926D01*
X712414Y292926D01*
X712485Y292938D01*
X712556Y292940D01*
X712605Y292958D01*
X712657Y292966D01*
X712720Y293000D01*
X712787Y293024D01*
X712828Y293057D01*
X712874Y293081D01*
X712924Y293133D01*
X712980Y293178D01*
X713008Y293222D01*
X713044Y293259D01*
X713074Y293324D01*
X713113Y293385D01*
X713125Y293435D01*
X713147Y293482D01*
X713155Y293554D01*
X713173Y293623D01*
X713169Y293675D01*
X713174Y293727D01*
X713159Y293797D01*
X713153Y293868D01*
X713133Y293916D01*
X713122Y293967D01*
X713085Y294029D01*
X713057Y294095D01*
X713012Y294151D01*
X712996Y294178D01*
X712978Y294194D01*
X712952Y294226D01*
X285788Y721390D01*
X285714Y721443D01*
X285644Y721503D01*
X285614Y721515D01*
X285588Y721534D01*
X285501Y721561D01*
X285416Y721595D01*
X285375Y721599D01*
X285353Y721606D01*
X285321Y721605D01*
X285249Y721613D01*
X282780Y721613D01*
X282665Y721594D01*
X282549Y721577D01*
X282543Y721575D01*
X282537Y721574D01*
X282434Y721519D01*
X282329Y721466D01*
X282325Y721461D01*
X282320Y721458D01*
X282240Y721374D01*
X282157Y721290D01*
X282154Y721284D01*
X282150Y721280D01*
X282142Y721263D01*
X282076Y721143D01*
X281073Y718720D01*
X278500Y716147D01*
X275139Y714755D01*
X256261Y714755D01*
X252900Y716147D01*
X250327Y718720D01*
X248935Y722081D01*
X248935Y725719D01*
X250327Y729080D01*
X252900Y731653D01*
X256261Y733045D01*
X275139Y733045D01*
X278500Y731653D01*
X281073Y729080D01*
X282076Y726657D01*
X282138Y726557D01*
X282198Y726457D01*
X282203Y726453D01*
X282206Y726448D01*
X282296Y726373D01*
X282385Y726297D01*
X282391Y726295D01*
X282395Y726291D01*
X282504Y726249D01*
X282613Y726205D01*
X282620Y726204D01*
X282625Y726203D01*
X282643Y726202D01*
X282780Y726187D01*
X287459Y726187D01*
X727711Y285935D01*
X727711Y76777D01*
X685294Y34360D01*
X685226Y34266D01*
X685156Y34171D01*
X685154Y34165D01*
X685150Y34160D01*
X685116Y34050D01*
X685080Y33938D01*
X685080Y33931D01*
X685078Y33925D01*
X685081Y33809D01*
X685082Y33692D01*
X685084Y33684D01*
X685084Y33679D01*
X685091Y33662D01*
X685129Y33531D01*
X687325Y28229D01*
X687325Y22571D01*
X685159Y17342D01*
X681055Y13238D01*
X681013Y13180D01*
X680964Y13128D01*
X680942Y13081D01*
X680912Y13039D01*
X680890Y12970D01*
X680860Y12905D01*
X680855Y12853D01*
X680839Y12803D01*
X680841Y12732D01*
X680833Y12661D01*
X680844Y12610D01*
X680846Y12558D01*
X680870Y12490D01*
X680885Y12420D01*
X680912Y12376D01*
X680930Y12327D01*
X680975Y12271D01*
X681012Y12209D01*
X681051Y12175D01*
X681084Y12135D01*
X681144Y12096D01*
X681199Y12049D01*
X681247Y12030D01*
X681291Y12002D01*
X681360Y11984D01*
X681427Y11957D01*
X681498Y11949D01*
X681529Y11941D01*
X681552Y11943D01*
X681593Y11939D01*
X715407Y11939D01*
X715477Y11950D01*
X715549Y11952D01*
X715598Y11970D01*
X715649Y11979D01*
X715713Y12012D01*
X715780Y12037D01*
X715821Y12069D01*
X715867Y12094D01*
X715916Y12146D01*
X715972Y12190D01*
X716000Y12234D01*
X716036Y12272D01*
X716066Y12337D01*
X716105Y12397D01*
X716118Y12448D01*
X716140Y12495D01*
X716148Y12566D01*
X716165Y12636D01*
X716161Y12688D01*
X716167Y12739D01*
X716152Y12810D01*
X716146Y12881D01*
X716126Y12929D01*
X716115Y12980D01*
X716078Y13041D01*
X716050Y13107D01*
X716005Y13163D01*
X715988Y13191D01*
X715971Y13206D01*
X715945Y13238D01*
X711841Y17342D01*
X709675Y22571D01*
X709675Y28229D01*
X711841Y33458D01*
X715842Y37459D01*
X721071Y39625D01*
X726729Y39625D01*
X731958Y37459D01*
X735959Y33458D01*
X738125Y28229D01*
X738125Y22571D01*
X735959Y17342D01*
X731855Y13238D01*
X731813Y13180D01*
X731764Y13128D01*
X731742Y13081D01*
X731712Y13039D01*
X731690Y12970D01*
X731660Y12905D01*
X731655Y12853D01*
X731639Y12803D01*
X731641Y12732D01*
X731633Y12661D01*
X731644Y12610D01*
X731646Y12558D01*
X731670Y12490D01*
X731685Y12420D01*
X731712Y12376D01*
X731730Y12327D01*
X731775Y12271D01*
X731812Y12209D01*
X731851Y12175D01*
X731884Y12135D01*
X731944Y12096D01*
X731999Y12049D01*
X732047Y12030D01*
X732091Y12002D01*
X732160Y11984D01*
X732227Y11957D01*
X732298Y11949D01*
X732329Y11941D01*
X732352Y11943D01*
X732393Y11939D01*
X1587500Y11939D01*
X1587520Y11942D01*
X1587539Y11940D01*
X1587641Y11962D01*
X1587743Y11979D01*
X1587760Y11988D01*
X1587780Y11992D01*
X1587869Y12045D01*
X1587960Y12094D01*
X1587974Y12108D01*
X1587991Y12118D01*
X1588058Y12197D01*
X1588130Y12272D01*
X1588138Y12290D01*
X1588151Y12305D01*
X1588190Y12401D01*
X1588233Y12495D01*
X1588235Y12515D01*
X1588243Y12533D01*
X1588261Y12700D01*
X1588261Y987808D01*
X1588258Y987828D01*
X1588260Y987847D01*
X1588238Y987949D01*
X1588221Y988051D01*
X1588212Y988068D01*
X1588208Y988088D01*
X1588155Y988177D01*
X1588106Y988268D01*
X1588092Y988282D01*
X1588082Y988299D01*
X1588003Y988366D01*
X1587928Y988438D01*
X1587910Y988446D01*
X1587895Y988459D01*
X1587799Y988498D01*
X1587705Y988541D01*
X1587685Y988543D01*
X1587667Y988551D01*
X1587500Y988569D01*
X12700Y988569D01*
X12680Y988566D01*
X12661Y988568D01*
X12559Y988546D01*
X12457Y988530D01*
X12440Y988520D01*
X12420Y988516D01*
X12331Y988463D01*
X12240Y988414D01*
X12226Y988400D01*
X12209Y988390D01*
X12142Y988311D01*
X12070Y988236D01*
X12062Y988218D01*
X12049Y988203D01*
X12010Y988107D01*
X11967Y988013D01*
X11965Y987993D01*
X11957Y987975D01*
X11939Y987808D01*
X11939Y12700D01*
X11942Y12680D01*
X11940Y12661D01*
X11962Y12559D01*
X11979Y12457D01*
X11988Y12440D01*
X11992Y12420D01*
X12045Y12331D01*
X12094Y12240D01*
X12108Y12226D01*
X12118Y12209D01*
X12197Y12142D01*
X12272Y12071D01*
X12290Y12062D01*
X12305Y12049D01*
X12401Y12010D01*
X12495Y11967D01*
X12515Y11965D01*
X12533Y11957D01*
X12700Y11939D01*
X664607Y11939D01*
X664677Y11950D01*
G37*
%LPC*%
G36*
X532349Y557275D02*
X532349Y557275D01*
X527120Y559441D01*
X523119Y563442D01*
X520953Y568671D01*
X520953Y595637D01*
X520939Y595728D01*
X520931Y595818D01*
X520919Y595848D01*
X520914Y595880D01*
X520871Y595961D01*
X520835Y596045D01*
X520809Y596077D01*
X520798Y596098D01*
X520775Y596120D01*
X520730Y596176D01*
X371132Y745774D01*
X371058Y745827D01*
X370988Y745887D01*
X370958Y745899D01*
X370932Y745918D01*
X370845Y745945D01*
X370760Y745979D01*
X370719Y745983D01*
X370697Y745990D01*
X370665Y745989D01*
X370593Y745997D01*
X282524Y745997D01*
X282410Y745978D01*
X282294Y745961D01*
X282288Y745959D01*
X282282Y745958D01*
X282179Y745903D01*
X282074Y745850D01*
X282070Y745845D01*
X282064Y745842D01*
X281985Y745758D01*
X281902Y745674D01*
X281898Y745668D01*
X281895Y745664D01*
X281887Y745647D01*
X281821Y745527D01*
X281073Y743720D01*
X278500Y741147D01*
X275139Y739755D01*
X256261Y739755D01*
X252900Y741147D01*
X250327Y743720D01*
X248935Y747081D01*
X248935Y750719D01*
X250327Y754080D01*
X252900Y756653D01*
X256261Y758045D01*
X275139Y758045D01*
X278500Y756653D01*
X281073Y754080D01*
X282331Y751041D01*
X282393Y750941D01*
X282453Y750841D01*
X282458Y750837D01*
X282461Y750832D01*
X282551Y750757D01*
X282640Y750681D01*
X282646Y750679D01*
X282651Y750675D01*
X282759Y750633D01*
X282868Y750589D01*
X282876Y750588D01*
X282880Y750587D01*
X282898Y750586D01*
X283035Y750571D01*
X372803Y750571D01*
X520936Y602438D01*
X520973Y602411D01*
X521004Y602377D01*
X521073Y602340D01*
X521136Y602294D01*
X521179Y602281D01*
X521220Y602259D01*
X521296Y602245D01*
X521371Y602222D01*
X521417Y602223D01*
X521462Y602215D01*
X521539Y602226D01*
X521617Y602228D01*
X521660Y602244D01*
X521705Y602251D01*
X521774Y602286D01*
X521848Y602313D01*
X521883Y602342D01*
X521924Y602362D01*
X521979Y602418D01*
X522040Y602467D01*
X522064Y602505D01*
X522097Y602538D01*
X522163Y602658D01*
X522173Y602674D01*
X522174Y602678D01*
X522177Y602685D01*
X523119Y604958D01*
X527120Y608959D01*
X532349Y611125D01*
X538007Y611125D01*
X543236Y608959D01*
X547237Y604958D01*
X549403Y599729D01*
X549403Y568671D01*
X547237Y563442D01*
X543236Y559441D01*
X538007Y557275D01*
X532349Y557275D01*
G37*
%LPD*%
%LPC*%
G36*
X421246Y333501D02*
X421246Y333501D01*
X409193Y345554D01*
X409193Y362598D01*
X421246Y374651D01*
X438290Y374651D01*
X450343Y362598D01*
X450343Y345554D01*
X438290Y333501D01*
X421246Y333501D01*
G37*
%LPD*%
%LPC*%
G36*
X421246Y283463D02*
X421246Y283463D01*
X409193Y295516D01*
X409193Y312560D01*
X421246Y324613D01*
X438290Y324613D01*
X450343Y312560D01*
X450343Y295516D01*
X438290Y283463D01*
X421246Y283463D01*
G37*
%LPD*%
%LPC*%
G36*
X421246Y183387D02*
X421246Y183387D01*
X409193Y195440D01*
X409193Y212484D01*
X421246Y224537D01*
X438290Y224537D01*
X450343Y212484D01*
X450343Y195440D01*
X438290Y183387D01*
X421246Y183387D01*
G37*
%LPD*%
%LPC*%
G36*
X421246Y133349D02*
X421246Y133349D01*
X409193Y145402D01*
X409193Y162446D01*
X421246Y174499D01*
X438290Y174499D01*
X450343Y162446D01*
X450343Y145402D01*
X438290Y133349D01*
X421246Y133349D01*
G37*
%LPD*%
%LPC*%
G36*
X171310Y133349D02*
X171310Y133349D01*
X159257Y145402D01*
X159257Y162446D01*
X171310Y174499D01*
X188354Y174499D01*
X200407Y162446D01*
X200407Y145402D01*
X188354Y133349D01*
X171310Y133349D01*
G37*
%LPD*%
%LPC*%
G36*
X113249Y544575D02*
X113249Y544575D01*
X108020Y546741D01*
X104019Y550742D01*
X101853Y555971D01*
X101853Y587029D01*
X104019Y592258D01*
X108020Y596259D01*
X113249Y598425D01*
X118907Y598425D01*
X124136Y596259D01*
X128137Y592258D01*
X130303Y587029D01*
X130303Y555971D01*
X128137Y550742D01*
X124136Y546741D01*
X118907Y544575D01*
X113249Y544575D01*
G37*
%LPD*%
%LPC*%
G36*
X338293Y544575D02*
X338293Y544575D01*
X333064Y546741D01*
X329063Y550742D01*
X326897Y555971D01*
X326897Y587029D01*
X329063Y592258D01*
X333064Y596259D01*
X338293Y598425D01*
X343951Y598425D01*
X349180Y596259D01*
X353181Y592258D01*
X355347Y587029D01*
X355347Y555971D01*
X353181Y550742D01*
X349180Y546741D01*
X343951Y544575D01*
X338293Y544575D01*
G37*
%LPD*%
%LPC*%
G36*
X757393Y557275D02*
X757393Y557275D01*
X752164Y559441D01*
X748163Y563442D01*
X745997Y568671D01*
X745997Y599729D01*
X748163Y604958D01*
X752164Y608959D01*
X757393Y611125D01*
X763051Y611125D01*
X768280Y608959D01*
X772281Y604958D01*
X774447Y599729D01*
X774447Y568671D01*
X772281Y563442D01*
X768280Y559441D01*
X763051Y557275D01*
X757393Y557275D01*
G37*
%LPD*%
%LPC*%
G36*
X275390Y906939D02*
X275390Y906939D01*
X267980Y910009D01*
X262309Y915680D01*
X259239Y923090D01*
X259239Y931110D01*
X262309Y938520D01*
X267980Y944191D01*
X275390Y947261D01*
X283410Y947261D01*
X290820Y944191D01*
X296491Y938520D01*
X299561Y931110D01*
X299561Y923090D01*
X296491Y915680D01*
X290820Y910009D01*
X283410Y906939D01*
X275390Y906939D01*
G37*
%LPD*%
%LPC*%
G36*
X478590Y906939D02*
X478590Y906939D01*
X471180Y910009D01*
X465509Y915680D01*
X462439Y923090D01*
X462439Y931110D01*
X465509Y938520D01*
X471180Y944191D01*
X478590Y947261D01*
X486610Y947261D01*
X494020Y944191D01*
X499691Y938520D01*
X502761Y931110D01*
X502761Y923090D01*
X499691Y915680D01*
X494020Y910009D01*
X486610Y906939D01*
X478590Y906939D01*
G37*
%LPD*%
%LPC*%
G36*
X580190Y906939D02*
X580190Y906939D01*
X572780Y910009D01*
X567109Y915680D01*
X564039Y923090D01*
X564039Y931110D01*
X567109Y938520D01*
X572780Y944191D01*
X580190Y947261D01*
X588210Y947261D01*
X595620Y944191D01*
X601291Y938520D01*
X604361Y931110D01*
X604361Y923090D01*
X601291Y915680D01*
X595620Y910009D01*
X588210Y906939D01*
X580190Y906939D01*
G37*
%LPD*%
%LPC*%
G36*
X821490Y906939D02*
X821490Y906939D01*
X814080Y910009D01*
X808409Y915680D01*
X805339Y923090D01*
X805339Y931110D01*
X808409Y938520D01*
X814080Y944191D01*
X821490Y947261D01*
X829510Y947261D01*
X836920Y944191D01*
X842591Y938520D01*
X845661Y931110D01*
X845661Y923090D01*
X842591Y915680D01*
X836920Y910009D01*
X829510Y906939D01*
X821490Y906939D01*
G37*
%LPD*%
%LPC*%
G36*
X923090Y906939D02*
X923090Y906939D01*
X915680Y910009D01*
X910009Y915680D01*
X906939Y923090D01*
X906939Y931110D01*
X910009Y938520D01*
X915680Y944191D01*
X923090Y947261D01*
X931110Y947261D01*
X938520Y944191D01*
X944191Y938520D01*
X947261Y931110D01*
X947261Y923090D01*
X944191Y915680D01*
X938520Y910009D01*
X931110Y906939D01*
X923090Y906939D01*
G37*
%LPD*%
%LPC*%
G36*
X1024690Y906939D02*
X1024690Y906939D01*
X1017280Y910009D01*
X1011609Y915680D01*
X1008539Y923090D01*
X1008539Y931110D01*
X1011609Y938520D01*
X1017280Y944191D01*
X1024690Y947261D01*
X1032710Y947261D01*
X1040120Y944191D01*
X1045791Y938520D01*
X1048861Y931110D01*
X1048861Y923090D01*
X1045791Y915680D01*
X1040120Y910009D01*
X1032710Y906939D01*
X1024690Y906939D01*
G37*
%LPD*%
%LPC*%
G36*
X1126290Y906939D02*
X1126290Y906939D01*
X1118880Y910009D01*
X1113209Y915680D01*
X1110139Y923090D01*
X1110139Y931110D01*
X1113209Y938520D01*
X1118880Y944191D01*
X1126290Y947261D01*
X1134310Y947261D01*
X1141720Y944191D01*
X1147391Y938520D01*
X1150461Y931110D01*
X1150461Y923090D01*
X1147391Y915680D01*
X1141720Y910009D01*
X1134310Y906939D01*
X1126290Y906939D01*
G37*
%LPD*%
%LPC*%
G36*
X1342190Y906939D02*
X1342190Y906939D01*
X1334780Y910009D01*
X1329109Y915680D01*
X1326039Y923090D01*
X1326039Y931110D01*
X1329109Y938520D01*
X1334780Y944191D01*
X1342190Y947261D01*
X1350210Y947261D01*
X1357620Y944191D01*
X1363291Y938520D01*
X1366361Y931110D01*
X1366361Y923090D01*
X1363291Y915680D01*
X1357620Y910009D01*
X1350210Y906939D01*
X1342190Y906939D01*
G37*
%LPD*%
%LPC*%
G36*
X1443790Y906939D02*
X1443790Y906939D01*
X1436380Y910009D01*
X1430709Y915680D01*
X1427639Y923090D01*
X1427639Y931110D01*
X1430709Y938520D01*
X1436380Y944191D01*
X1443790Y947261D01*
X1451810Y947261D01*
X1459220Y944191D01*
X1464891Y938520D01*
X1467961Y931110D01*
X1467961Y923090D01*
X1464891Y915680D01*
X1459220Y910009D01*
X1451810Y906939D01*
X1443790Y906939D01*
G37*
%LPD*%
%LPC*%
G36*
X376990Y906939D02*
X376990Y906939D01*
X369580Y910009D01*
X363909Y915680D01*
X360839Y923090D01*
X360839Y931110D01*
X363909Y938520D01*
X369580Y944191D01*
X376990Y947261D01*
X385010Y947261D01*
X392420Y944191D01*
X398091Y938520D01*
X401161Y931110D01*
X401161Y923090D01*
X398091Y915680D01*
X392420Y910009D01*
X385010Y906939D01*
X376990Y906939D01*
G37*
%LPD*%
%LPC*%
G36*
X722485Y742187D02*
X722485Y742187D01*
X719871Y743270D01*
X717870Y745271D01*
X716787Y747885D01*
X716787Y750715D01*
X717870Y753329D01*
X719871Y755330D01*
X722485Y756413D01*
X725315Y756413D01*
X727929Y755330D01*
X729930Y753329D01*
X730246Y752565D01*
X730308Y752465D01*
X730368Y752365D01*
X730373Y752361D01*
X730376Y752356D01*
X730466Y752281D01*
X730555Y752205D01*
X730561Y752203D01*
X730566Y752199D01*
X730674Y752157D01*
X730783Y752113D01*
X730791Y752112D01*
X730795Y752111D01*
X730813Y752110D01*
X730950Y752095D01*
X748545Y752095D01*
X748636Y752109D01*
X748726Y752117D01*
X748756Y752129D01*
X748788Y752134D01*
X748869Y752177D01*
X748953Y752213D01*
X748985Y752239D01*
X749006Y752250D01*
X749028Y752273D01*
X749084Y752318D01*
X868438Y871672D01*
X868506Y871767D01*
X868576Y871861D01*
X868578Y871867D01*
X868582Y871872D01*
X868616Y871983D01*
X868652Y872094D01*
X868652Y872101D01*
X868654Y872107D01*
X868651Y872223D01*
X868650Y872340D01*
X868648Y872348D01*
X868648Y872353D01*
X868641Y872370D01*
X868603Y872501D01*
X867735Y874596D01*
X867735Y878004D01*
X869039Y881152D01*
X871448Y883561D01*
X874596Y884865D01*
X878004Y884865D01*
X881152Y883561D01*
X883561Y881152D01*
X884865Y878004D01*
X884865Y874596D01*
X883561Y871448D01*
X881152Y869039D01*
X878004Y867735D01*
X874596Y867735D01*
X872501Y868603D01*
X872388Y868630D01*
X872274Y868658D01*
X872268Y868658D01*
X872262Y868659D01*
X872145Y868648D01*
X872029Y868639D01*
X872023Y868637D01*
X872017Y868636D01*
X871910Y868588D01*
X871803Y868543D01*
X871797Y868538D01*
X871792Y868536D01*
X871779Y868523D01*
X871672Y868438D01*
X750755Y747521D01*
X731371Y747521D01*
X731256Y747502D01*
X731140Y747485D01*
X731134Y747483D01*
X731128Y747482D01*
X731025Y747427D01*
X730920Y747374D01*
X730916Y747369D01*
X730911Y747366D01*
X730831Y747282D01*
X730748Y747198D01*
X730745Y747192D01*
X730741Y747188D01*
X730733Y747171D01*
X730667Y747051D01*
X729930Y745271D01*
X727929Y743270D01*
X725315Y742187D01*
X722485Y742187D01*
G37*
%LPD*%
%LPC*%
G36*
X35184Y950539D02*
X35184Y950539D01*
X29795Y952771D01*
X25671Y956895D01*
X23439Y962284D01*
X23439Y968116D01*
X25671Y973505D01*
X29795Y977629D01*
X35184Y979861D01*
X41016Y979861D01*
X46405Y977629D01*
X50529Y973505D01*
X52761Y968116D01*
X52761Y962284D01*
X50529Y956895D01*
X46405Y952771D01*
X41016Y950539D01*
X35184Y950539D01*
G37*
%LPD*%
%LPC*%
G36*
X47884Y36139D02*
X47884Y36139D01*
X42495Y38371D01*
X38371Y42495D01*
X36139Y47884D01*
X36139Y53716D01*
X38371Y59105D01*
X42495Y63229D01*
X47884Y65461D01*
X53716Y65461D01*
X59105Y63229D01*
X63229Y59105D01*
X65461Y53716D01*
X65461Y47884D01*
X63229Y42495D01*
X59105Y38371D01*
X53716Y36139D01*
X47884Y36139D01*
G37*
%LPD*%
%LPC*%
G36*
X555884Y379039D02*
X555884Y379039D01*
X550495Y381271D01*
X546371Y385395D01*
X544139Y390784D01*
X544139Y396616D01*
X546371Y402005D01*
X550495Y406129D01*
X555884Y408361D01*
X561716Y408361D01*
X567105Y406129D01*
X571229Y402005D01*
X573461Y396616D01*
X573461Y390784D01*
X571229Y385395D01*
X567105Y381271D01*
X561716Y379039D01*
X555884Y379039D01*
G37*
%LPD*%
%LPC*%
G36*
X60584Y366339D02*
X60584Y366339D01*
X55195Y368571D01*
X51071Y372695D01*
X48839Y378084D01*
X48839Y383916D01*
X51071Y389305D01*
X55195Y393429D01*
X60584Y395661D01*
X66416Y395661D01*
X71805Y393429D01*
X75929Y389305D01*
X78161Y383916D01*
X78161Y378084D01*
X75929Y372695D01*
X71805Y368571D01*
X66416Y366339D01*
X60584Y366339D01*
G37*
%LPD*%
%LPC*%
G36*
X568584Y86939D02*
X568584Y86939D01*
X563195Y89171D01*
X559071Y93295D01*
X556839Y98684D01*
X556839Y104516D01*
X559071Y109905D01*
X563195Y114029D01*
X568584Y116261D01*
X574416Y116261D01*
X579805Y114029D01*
X583929Y109905D01*
X586161Y104516D01*
X586161Y98684D01*
X583929Y93295D01*
X579805Y89171D01*
X574416Y86939D01*
X568584Y86939D01*
G37*
%LPD*%
%LPC*%
G36*
X1546484Y36139D02*
X1546484Y36139D01*
X1541095Y38371D01*
X1536971Y42495D01*
X1534739Y47884D01*
X1534739Y53716D01*
X1536971Y59105D01*
X1541095Y63229D01*
X1546484Y65461D01*
X1552316Y65461D01*
X1557705Y63229D01*
X1561829Y59105D01*
X1564061Y53716D01*
X1564061Y47884D01*
X1561829Y42495D01*
X1557705Y38371D01*
X1552316Y36139D01*
X1546484Y36139D01*
G37*
%LPD*%
%LPC*%
G36*
X1546484Y925139D02*
X1546484Y925139D01*
X1541095Y927371D01*
X1536971Y931495D01*
X1534739Y936884D01*
X1534739Y942716D01*
X1536971Y948105D01*
X1541095Y952229D01*
X1546484Y954461D01*
X1552316Y954461D01*
X1557705Y952229D01*
X1561829Y948105D01*
X1564061Y942716D01*
X1564061Y936884D01*
X1561829Y931495D01*
X1557705Y927371D01*
X1552316Y925139D01*
X1546484Y925139D01*
G37*
%LPD*%
%LPC*%
G36*
X1198279Y614171D02*
X1198279Y614171D01*
X1195291Y615409D01*
X1193005Y617695D01*
X1191767Y620683D01*
X1191767Y623917D01*
X1193005Y626905D01*
X1195291Y629191D01*
X1198279Y630429D01*
X1214721Y630429D01*
X1217709Y629191D01*
X1219995Y626905D01*
X1221233Y623917D01*
X1221233Y620683D01*
X1219995Y617695D01*
X1217709Y615409D01*
X1214721Y614171D01*
X1198279Y614171D01*
G37*
%LPD*%
%LPC*%
G36*
X1299879Y614171D02*
X1299879Y614171D01*
X1296891Y615409D01*
X1294605Y617695D01*
X1293367Y620683D01*
X1293367Y623917D01*
X1294605Y626905D01*
X1296891Y629191D01*
X1299879Y630429D01*
X1316321Y630429D01*
X1319309Y629191D01*
X1321595Y626905D01*
X1322833Y623917D01*
X1322833Y620683D01*
X1321595Y617695D01*
X1319309Y615409D01*
X1316321Y614171D01*
X1299879Y614171D01*
G37*
%LPD*%
%LPC*%
G36*
X1395296Y867735D02*
X1395296Y867735D01*
X1392148Y869039D01*
X1389739Y871448D01*
X1388435Y874596D01*
X1388435Y878004D01*
X1389739Y881152D01*
X1392148Y883561D01*
X1395296Y884865D01*
X1398704Y884865D01*
X1401852Y883561D01*
X1404261Y881152D01*
X1405565Y878004D01*
X1405565Y874596D01*
X1404261Y871448D01*
X1401852Y869039D01*
X1398704Y867735D01*
X1395296Y867735D01*
G37*
%LPD*%
%LPC*%
G36*
X1077796Y867735D02*
X1077796Y867735D01*
X1074648Y869039D01*
X1072239Y871448D01*
X1070935Y874596D01*
X1070935Y878004D01*
X1072239Y881152D01*
X1074648Y883561D01*
X1077796Y884865D01*
X1081204Y884865D01*
X1084352Y883561D01*
X1086761Y881152D01*
X1088065Y878004D01*
X1088065Y874596D01*
X1086761Y871448D01*
X1084352Y869039D01*
X1081204Y867735D01*
X1077796Y867735D01*
G37*
%LPD*%
%LPC*%
G36*
X328496Y867735D02*
X328496Y867735D01*
X325348Y869039D01*
X322939Y871448D01*
X321635Y874596D01*
X321635Y878004D01*
X322939Y881152D01*
X325348Y883561D01*
X328496Y884865D01*
X331904Y884865D01*
X335052Y883561D01*
X337461Y881152D01*
X338765Y878004D01*
X338765Y874596D01*
X337461Y871448D01*
X335052Y869039D01*
X331904Y867735D01*
X328496Y867735D01*
G37*
%LPD*%
%LPC*%
G36*
X531696Y867735D02*
X531696Y867735D01*
X528548Y869039D01*
X526139Y871448D01*
X524835Y874596D01*
X524835Y878004D01*
X526139Y881152D01*
X528548Y883561D01*
X531696Y884865D01*
X535104Y884865D01*
X538252Y883561D01*
X540661Y881152D01*
X541965Y878004D01*
X541965Y874596D01*
X540661Y871448D01*
X538252Y869039D01*
X535104Y867735D01*
X531696Y867735D01*
G37*
%LPD*%
%LPC*%
G36*
X1332085Y704087D02*
X1332085Y704087D01*
X1329471Y705170D01*
X1327470Y707171D01*
X1326387Y709785D01*
X1326387Y712615D01*
X1327470Y715229D01*
X1329471Y717230D01*
X1332085Y718313D01*
X1334915Y718313D01*
X1337529Y717230D01*
X1339530Y715229D01*
X1340613Y712615D01*
X1340613Y709785D01*
X1339530Y707171D01*
X1337529Y705170D01*
X1334915Y704087D01*
X1332085Y704087D01*
G37*
%LPD*%
%LPC*%
G36*
X747885Y716787D02*
X747885Y716787D01*
X745271Y717870D01*
X743270Y719871D01*
X742187Y722485D01*
X742187Y725315D01*
X743270Y727929D01*
X745271Y729930D01*
X747885Y731013D01*
X750715Y731013D01*
X753329Y729930D01*
X755330Y727929D01*
X756413Y725315D01*
X756413Y722485D01*
X755330Y719871D01*
X753329Y717870D01*
X750715Y716787D01*
X747885Y716787D01*
G37*
%LPD*%
%LPC*%
G36*
X1306685Y729487D02*
X1306685Y729487D01*
X1304071Y730570D01*
X1302070Y732571D01*
X1300987Y735185D01*
X1300987Y738015D01*
X1302070Y740629D01*
X1304071Y742630D01*
X1306685Y743713D01*
X1309515Y743713D01*
X1312129Y742630D01*
X1314130Y740629D01*
X1315213Y738015D01*
X1315213Y735185D01*
X1314130Y732571D01*
X1312129Y730570D01*
X1309515Y729487D01*
X1306685Y729487D01*
G37*
%LPD*%
%LPC*%
G36*
X773285Y742187D02*
X773285Y742187D01*
X770671Y743270D01*
X768670Y745271D01*
X767587Y747885D01*
X767587Y750715D01*
X768670Y753329D01*
X770671Y755330D01*
X773285Y756413D01*
X776115Y756413D01*
X778729Y755330D01*
X780730Y753329D01*
X781813Y750715D01*
X781813Y747885D01*
X780730Y745271D01*
X778729Y743270D01*
X776115Y742187D01*
X773285Y742187D01*
G37*
%LPD*%
%LPC*%
G36*
X1332085Y754887D02*
X1332085Y754887D01*
X1329471Y755970D01*
X1327470Y757971D01*
X1326387Y760585D01*
X1326387Y763415D01*
X1327470Y766029D01*
X1329471Y768030D01*
X1332085Y769113D01*
X1334915Y769113D01*
X1337529Y768030D01*
X1339530Y766029D01*
X1340613Y763415D01*
X1340613Y760585D01*
X1339530Y757971D01*
X1337529Y755970D01*
X1334915Y754887D01*
X1332085Y754887D01*
G37*
%LPD*%
%LPC*%
G36*
X267223Y700423D02*
X267223Y700423D01*
X267223Y709061D01*
X274120Y709061D01*
X275699Y708811D01*
X277220Y708316D01*
X278645Y707590D01*
X279939Y706650D01*
X281070Y705519D01*
X282010Y704225D01*
X282736Y702800D01*
X283231Y701279D01*
X283366Y700423D01*
X267223Y700423D01*
G37*
%LPD*%
%LPC*%
G36*
X248034Y700423D02*
X248034Y700423D01*
X248169Y701279D01*
X248664Y702800D01*
X249390Y704225D01*
X250330Y705519D01*
X251461Y706650D01*
X252755Y707590D01*
X254180Y708316D01*
X255701Y708811D01*
X257280Y709061D01*
X264177Y709061D01*
X264177Y700423D01*
X248034Y700423D01*
G37*
%LPD*%
%LPC*%
G36*
X267223Y688739D02*
X267223Y688739D01*
X267223Y697377D01*
X283366Y697377D01*
X283231Y696521D01*
X282736Y695000D01*
X282010Y693575D01*
X281070Y692281D01*
X279939Y691150D01*
X278645Y690210D01*
X277220Y689484D01*
X275699Y688989D01*
X274120Y688739D01*
X267223Y688739D01*
G37*
%LPD*%
%LPC*%
G36*
X257280Y688739D02*
X257280Y688739D01*
X255701Y688989D01*
X254180Y689484D01*
X252755Y690210D01*
X251461Y691150D01*
X250330Y692281D01*
X249390Y693575D01*
X248664Y695000D01*
X248169Y696521D01*
X248034Y697377D01*
X264177Y697377D01*
X264177Y688739D01*
X257280Y688739D01*
G37*
%LPD*%
%LPC*%
G36*
X306323Y877823D02*
X306323Y877823D01*
X306323Y885759D01*
X307043Y885645D01*
X308478Y885179D01*
X309821Y884494D01*
X311042Y883608D01*
X312108Y882542D01*
X312994Y881321D01*
X313679Y879978D01*
X314145Y878543D01*
X314259Y877823D01*
X306323Y877823D01*
G37*
%LPD*%
%LPC*%
G36*
X1373123Y877823D02*
X1373123Y877823D01*
X1373123Y885759D01*
X1373843Y885645D01*
X1375278Y885179D01*
X1376621Y884494D01*
X1377842Y883608D01*
X1378908Y882542D01*
X1379794Y881321D01*
X1380479Y879978D01*
X1380945Y878543D01*
X1381059Y877823D01*
X1373123Y877823D01*
G37*
%LPD*%
%LPC*%
G36*
X1055623Y877823D02*
X1055623Y877823D01*
X1055623Y885759D01*
X1056343Y885645D01*
X1057778Y885179D01*
X1059121Y884494D01*
X1060342Y883608D01*
X1061408Y882542D01*
X1062294Y881321D01*
X1062979Y879978D01*
X1063445Y878543D01*
X1063559Y877823D01*
X1055623Y877823D01*
G37*
%LPD*%
%LPC*%
G36*
X509523Y877823D02*
X509523Y877823D01*
X509523Y885759D01*
X510243Y885645D01*
X511678Y885179D01*
X513021Y884494D01*
X514242Y883608D01*
X515308Y882542D01*
X516194Y881321D01*
X516879Y879978D01*
X517345Y878543D01*
X517459Y877823D01*
X509523Y877823D01*
G37*
%LPD*%
%LPC*%
G36*
X852423Y877823D02*
X852423Y877823D01*
X852423Y885759D01*
X853143Y885645D01*
X854578Y885179D01*
X855921Y884494D01*
X857142Y883608D01*
X858208Y882542D01*
X859094Y881321D01*
X859779Y879978D01*
X860245Y878543D01*
X860359Y877823D01*
X852423Y877823D01*
G37*
%LPD*%
%LPC*%
G36*
X852423Y874777D02*
X852423Y874777D01*
X860359Y874777D01*
X860245Y874057D01*
X859779Y872622D01*
X859094Y871279D01*
X858208Y870058D01*
X857142Y868992D01*
X855921Y868106D01*
X854578Y867421D01*
X853143Y866955D01*
X852423Y866841D01*
X852423Y874777D01*
G37*
%LPD*%
%LPC*%
G36*
X1362141Y877823D02*
X1362141Y877823D01*
X1362255Y878543D01*
X1362721Y879978D01*
X1363406Y881321D01*
X1364292Y882542D01*
X1365358Y883608D01*
X1366579Y884494D01*
X1367922Y885179D01*
X1369357Y885645D01*
X1370077Y885759D01*
X1370077Y877823D01*
X1362141Y877823D01*
G37*
%LPD*%
%LPC*%
G36*
X1044641Y877823D02*
X1044641Y877823D01*
X1044755Y878543D01*
X1045221Y879978D01*
X1045906Y881321D01*
X1046792Y882542D01*
X1047858Y883608D01*
X1049079Y884494D01*
X1050422Y885179D01*
X1051857Y885645D01*
X1052577Y885759D01*
X1052577Y877823D01*
X1044641Y877823D01*
G37*
%LPD*%
%LPC*%
G36*
X841441Y877823D02*
X841441Y877823D01*
X841555Y878543D01*
X842021Y879978D01*
X842706Y881321D01*
X843592Y882542D01*
X844658Y883608D01*
X845879Y884494D01*
X847222Y885179D01*
X848657Y885645D01*
X849377Y885759D01*
X849377Y877823D01*
X841441Y877823D01*
G37*
%LPD*%
%LPC*%
G36*
X498541Y877823D02*
X498541Y877823D01*
X498655Y878543D01*
X499121Y879978D01*
X499806Y881321D01*
X500692Y882542D01*
X501758Y883608D01*
X502979Y884494D01*
X504322Y885179D01*
X505757Y885645D01*
X506477Y885759D01*
X506477Y877823D01*
X498541Y877823D01*
G37*
%LPD*%
%LPC*%
G36*
X295341Y877823D02*
X295341Y877823D01*
X295455Y878543D01*
X295921Y879978D01*
X296606Y881321D01*
X297492Y882542D01*
X298558Y883608D01*
X299779Y884494D01*
X301122Y885179D01*
X302557Y885645D01*
X303277Y885759D01*
X303277Y877823D01*
X295341Y877823D01*
G37*
%LPD*%
%LPC*%
G36*
X509523Y874777D02*
X509523Y874777D01*
X517459Y874777D01*
X517345Y874057D01*
X516879Y872622D01*
X516194Y871279D01*
X515308Y870058D01*
X514242Y868992D01*
X513021Y868106D01*
X511678Y867421D01*
X510243Y866955D01*
X509523Y866841D01*
X509523Y874777D01*
G37*
%LPD*%
%LPC*%
G36*
X1373123Y874777D02*
X1373123Y874777D01*
X1381059Y874777D01*
X1380945Y874057D01*
X1380479Y872622D01*
X1379794Y871279D01*
X1378908Y870058D01*
X1377842Y868992D01*
X1376621Y868106D01*
X1375278Y867421D01*
X1373843Y866955D01*
X1373123Y866841D01*
X1373123Y874777D01*
G37*
%LPD*%
%LPC*%
G36*
X1055623Y874777D02*
X1055623Y874777D01*
X1063559Y874777D01*
X1063445Y874057D01*
X1062979Y872622D01*
X1062294Y871279D01*
X1061408Y870058D01*
X1060342Y868992D01*
X1059121Y868106D01*
X1057778Y867421D01*
X1056343Y866955D01*
X1055623Y866841D01*
X1055623Y874777D01*
G37*
%LPD*%
%LPC*%
G36*
X306323Y874777D02*
X306323Y874777D01*
X314259Y874777D01*
X314145Y874057D01*
X313679Y872622D01*
X312994Y871279D01*
X312108Y870058D01*
X311042Y868992D01*
X309821Y868106D01*
X308478Y867421D01*
X307043Y866955D01*
X306323Y866841D01*
X306323Y874777D01*
G37*
%LPD*%
%LPC*%
G36*
X302557Y866955D02*
X302557Y866955D01*
X301122Y867421D01*
X299779Y868106D01*
X298558Y868992D01*
X297492Y870058D01*
X296606Y871279D01*
X295921Y872622D01*
X295455Y874057D01*
X295341Y874777D01*
X303277Y874777D01*
X303277Y866841D01*
X302557Y866955D01*
G37*
%LPD*%
%LPC*%
G36*
X1369357Y866955D02*
X1369357Y866955D01*
X1367922Y867421D01*
X1366579Y868106D01*
X1365358Y868992D01*
X1364292Y870058D01*
X1363406Y871279D01*
X1362721Y872622D01*
X1362255Y874057D01*
X1362141Y874777D01*
X1370077Y874777D01*
X1370077Y866841D01*
X1369357Y866955D01*
G37*
%LPD*%
%LPC*%
G36*
X1051857Y866955D02*
X1051857Y866955D01*
X1050422Y867421D01*
X1049079Y868106D01*
X1047858Y868992D01*
X1046792Y870058D01*
X1045906Y871279D01*
X1045221Y872622D01*
X1044755Y874057D01*
X1044641Y874777D01*
X1052577Y874777D01*
X1052577Y866841D01*
X1051857Y866955D01*
G37*
%LPD*%
%LPC*%
G36*
X505757Y866955D02*
X505757Y866955D01*
X504322Y867421D01*
X502979Y868106D01*
X501758Y868992D01*
X500692Y870058D01*
X499806Y871279D01*
X499121Y872622D01*
X498655Y874057D01*
X498541Y874777D01*
X506477Y874777D01*
X506477Y866841D01*
X505757Y866955D01*
G37*
%LPD*%
%LPC*%
G36*
X848657Y866955D02*
X848657Y866955D01*
X847222Y867421D01*
X845879Y868106D01*
X844658Y868992D01*
X843592Y870058D01*
X842706Y871279D01*
X842021Y872622D01*
X841555Y874057D01*
X841441Y874777D01*
X849377Y874777D01*
X849377Y866841D01*
X848657Y866955D01*
G37*
%LPD*%
%LPC*%
G36*
X1371599Y876299D02*
X1371599Y876299D01*
X1371599Y876301D01*
X1371601Y876301D01*
X1371601Y876299D01*
X1371599Y876299D01*
G37*
%LPD*%
%LPC*%
G36*
X1054099Y876299D02*
X1054099Y876299D01*
X1054099Y876301D01*
X1054101Y876301D01*
X1054101Y876299D01*
X1054099Y876299D01*
G37*
%LPD*%
%LPC*%
G36*
X850899Y876299D02*
X850899Y876299D01*
X850899Y876301D01*
X850901Y876301D01*
X850901Y876299D01*
X850899Y876299D01*
G37*
%LPD*%
%LPC*%
G36*
X507999Y876299D02*
X507999Y876299D01*
X507999Y876301D01*
X508001Y876301D01*
X508001Y876299D01*
X507999Y876299D01*
G37*
%LPD*%
%LPC*%
G36*
X304799Y876299D02*
X304799Y876299D01*
X304799Y876301D01*
X304801Y876301D01*
X304801Y876299D01*
X304799Y876299D01*
G37*
%LPD*%
%LPC*%
G36*
X265699Y698899D02*
X265699Y698899D01*
X265699Y698901D01*
X265701Y698901D01*
X265701Y698899D01*
X265699Y698899D01*
G37*
%LPD*%
D10*
X1314704Y622300D02*
X1301496Y622300D01*
X1213104Y622300D02*
X1199896Y622300D01*
D11*
X535178Y596900D02*
X535178Y571500D01*
X760222Y571500D02*
X760222Y596900D01*
X116078Y584200D02*
X116078Y558800D01*
X341122Y558800D02*
X341122Y584200D01*
D12*
X723900Y749300D03*
X749300Y723900D03*
X774700Y749300D03*
X1333500Y762000D03*
X1308100Y736600D03*
X1333500Y711200D03*
D13*
X710502Y177800D02*
X686499Y177800D01*
X686499Y228600D02*
X710502Y228600D01*
X710502Y279400D02*
X686499Y279400D01*
D14*
X723900Y25400D03*
X673100Y25400D03*
D15*
X273320Y698900D02*
X258080Y698900D01*
X258080Y723900D02*
X273320Y723900D01*
X273320Y748900D02*
X258080Y748900D01*
D16*
X179832Y354076D03*
X179832Y153924D03*
X429768Y153924D03*
X429768Y203962D03*
X429768Y304038D03*
X429768Y354076D03*
D17*
X876300Y876300D03*
X850900Y876300D03*
X533400Y876300D03*
X508000Y876300D03*
X330200Y876300D03*
X304800Y876300D03*
X1397000Y876300D03*
X1371600Y876300D03*
X1079500Y876300D03*
X1054100Y876300D03*
D18*
X508000Y876300D02*
X344424Y876300D01*
X333756Y886968D01*
X315468Y886968D01*
X304800Y876300D01*
X508000Y876300D02*
X519684Y876300D01*
X530352Y886968D01*
X839724Y886968D01*
X850392Y876300D01*
X850900Y876300D01*
X286512Y723900D02*
X265700Y723900D01*
X286512Y723900D02*
X725424Y284988D01*
X725424Y77724D01*
X673100Y25400D01*
X371856Y748284D02*
X266700Y748284D01*
X371856Y748284D02*
X534924Y585216D01*
X266700Y748284D02*
X265700Y748900D01*
X534924Y585216D02*
X535178Y584200D01*
X697992Y178308D02*
X355092Y178308D01*
X179832Y353568D01*
X697992Y178308D02*
X698500Y177800D01*
X179832Y353568D02*
X179832Y354076D01*
X723900Y749808D02*
X749808Y749808D01*
X876300Y876300D01*
X723900Y749808D02*
X723900Y749300D01*
M02*
