G04 EAGLE Gerber RS-274X export*
G75*
%MOMM*%
%FSLAX34Y34*%
%LPD*%
%INTop Copper*%
%IPPOS*%
%AMOC8*
5,1,8,0,0,1.08239X$1,22.5*%
G01*
%ADD10R,1.200000X1.200000*%
%ADD11R,1.300000X1.500000*%
%ADD12R,1.500000X1.300000*%
%ADD13R,4.300000X2.500000*%
%ADD14C,1.320800*%
%ADD15C,2.540000*%
%ADD16R,2.000000X2.100000*%
%ADD17R,1.300000X1.600000*%
%ADD18C,1.117600*%
%ADD19C,2.400300*%
%ADD20C,2.540000*%
%ADD21C,1.524000*%
%ADD22P,4.123906X8X22.500000*%
%ADD23C,1.408000*%
%ADD24C,0.152400*%
%ADD25C,0.304800*%

G36*
X629381Y379217D02*
X629381Y379217D01*
X629398Y379226D01*
X629418Y379230D01*
X629507Y379283D01*
X629598Y379332D01*
X629612Y379346D01*
X629629Y379356D01*
X629696Y379435D01*
X629767Y379510D01*
X629776Y379528D01*
X629789Y379543D01*
X629828Y379639D01*
X629871Y379733D01*
X629873Y379753D01*
X629881Y379771D01*
X629899Y379938D01*
X629899Y380701D01*
X629901Y380701D01*
X629901Y379938D01*
X629904Y379918D01*
X629902Y379899D01*
X629924Y379797D01*
X629941Y379695D01*
X629950Y379678D01*
X629954Y379658D01*
X630007Y379569D01*
X630056Y379478D01*
X630070Y379464D01*
X630080Y379447D01*
X630159Y379380D01*
X630234Y379309D01*
X630252Y379300D01*
X630267Y379287D01*
X630363Y379248D01*
X630457Y379205D01*
X630477Y379203D01*
X630495Y379195D01*
X630662Y379177D01*
X638441Y379177D01*
X638441Y378336D01*
X638452Y378266D01*
X638454Y378194D01*
X638472Y378145D01*
X638480Y378094D01*
X638514Y378030D01*
X638539Y377963D01*
X638571Y377922D01*
X638596Y377876D01*
X638648Y377827D01*
X638692Y377771D01*
X638736Y377743D01*
X638774Y377707D01*
X638839Y377677D01*
X638899Y377638D01*
X638950Y377625D01*
X638997Y377603D01*
X639068Y377595D01*
X639138Y377578D01*
X639190Y377582D01*
X639241Y377576D01*
X639312Y377591D01*
X639383Y377597D01*
X639431Y377617D01*
X639482Y377628D01*
X639543Y377665D01*
X639609Y377693D01*
X639665Y377738D01*
X639693Y377755D01*
X639708Y377772D01*
X639740Y377798D01*
X680281Y418339D01*
X698939Y418339D01*
X701803Y415475D01*
X701803Y398341D01*
X694406Y390944D01*
X694353Y390870D01*
X694293Y390800D01*
X694281Y390770D01*
X694262Y390744D01*
X694235Y390657D01*
X694201Y390572D01*
X694197Y390531D01*
X694190Y390509D01*
X694191Y390477D01*
X694183Y390405D01*
X694183Y388986D01*
X694186Y388966D01*
X694184Y388947D01*
X694206Y388845D01*
X694222Y388743D01*
X694232Y388726D01*
X694236Y388706D01*
X694289Y388617D01*
X694338Y388526D01*
X694352Y388512D01*
X694362Y388495D01*
X694441Y388428D01*
X694516Y388356D01*
X694534Y388348D01*
X694549Y388335D01*
X694645Y388296D01*
X694739Y388253D01*
X694759Y388251D01*
X694777Y388243D01*
X694944Y388225D01*
X697532Y388225D01*
X698425Y387332D01*
X698425Y374068D01*
X697532Y373175D01*
X684268Y373175D01*
X683375Y374068D01*
X683375Y387332D01*
X684268Y388225D01*
X688848Y388225D01*
X688868Y388228D01*
X688887Y388226D01*
X688989Y388248D01*
X689091Y388264D01*
X689108Y388274D01*
X689128Y388278D01*
X689217Y388331D01*
X689308Y388380D01*
X689322Y388394D01*
X689339Y388404D01*
X689406Y388483D01*
X689478Y388558D01*
X689486Y388576D01*
X689499Y388591D01*
X689538Y388687D01*
X689581Y388781D01*
X689583Y388801D01*
X689591Y388819D01*
X689609Y388986D01*
X689609Y392615D01*
X694870Y397876D01*
X694912Y397934D01*
X694961Y397986D01*
X694983Y398033D01*
X695013Y398075D01*
X695034Y398144D01*
X695065Y398209D01*
X695070Y398261D01*
X695086Y398311D01*
X695084Y398382D01*
X695092Y398453D01*
X695081Y398504D01*
X695079Y398556D01*
X695055Y398624D01*
X695040Y398694D01*
X695013Y398739D01*
X694995Y398787D01*
X694950Y398843D01*
X694913Y398905D01*
X694874Y398939D01*
X694841Y398979D01*
X694781Y399018D01*
X694726Y399065D01*
X694678Y399084D01*
X694634Y399112D01*
X694565Y399130D01*
X694498Y399157D01*
X694427Y399165D01*
X694396Y399173D01*
X694372Y399171D01*
X694332Y399175D01*
X684268Y399175D01*
X683375Y400068D01*
X683375Y401382D01*
X683364Y401453D01*
X683362Y401524D01*
X683344Y401573D01*
X683336Y401625D01*
X683302Y401688D01*
X683277Y401755D01*
X683245Y401796D01*
X683220Y401842D01*
X683169Y401891D01*
X683124Y401947D01*
X683080Y401976D01*
X683042Y402011D01*
X682977Y402042D01*
X682917Y402080D01*
X682866Y402093D01*
X682819Y402115D01*
X682748Y402123D01*
X682678Y402140D01*
X682626Y402136D01*
X682575Y402142D01*
X682504Y402127D01*
X682433Y402121D01*
X682385Y402101D01*
X682334Y402090D01*
X682273Y402053D01*
X682207Y402025D01*
X682151Y401980D01*
X682123Y401964D01*
X682108Y401946D01*
X682076Y401920D01*
X447011Y166855D01*
X446999Y166839D01*
X446983Y166826D01*
X446927Y166739D01*
X446867Y166655D01*
X446861Y166636D01*
X446850Y166619D01*
X446825Y166519D01*
X446795Y166420D01*
X446795Y166400D01*
X446790Y166381D01*
X446798Y166278D01*
X446801Y166174D01*
X446808Y166156D01*
X446809Y166136D01*
X446850Y166041D01*
X446885Y165943D01*
X446898Y165928D01*
X446906Y165909D01*
X447011Y165778D01*
X450343Y162446D01*
X450343Y145402D01*
X441115Y136174D01*
X441073Y136116D01*
X441024Y136064D01*
X441002Y136017D01*
X440972Y135975D01*
X440951Y135906D01*
X440920Y135841D01*
X440915Y135789D01*
X440899Y135739D01*
X440901Y135668D01*
X440893Y135597D01*
X440904Y135546D01*
X440906Y135494D01*
X440930Y135426D01*
X440946Y135356D01*
X440972Y135311D01*
X440990Y135263D01*
X441035Y135207D01*
X441072Y135145D01*
X441111Y135111D01*
X441144Y135071D01*
X441204Y135032D01*
X441259Y134985D01*
X441307Y134966D01*
X441351Y134938D01*
X441420Y134920D01*
X441487Y134893D01*
X441558Y134885D01*
X441589Y134877D01*
X441613Y134879D01*
X441654Y134875D01*
X589211Y134875D01*
X695668Y28418D01*
X695742Y28365D01*
X695812Y28305D01*
X695842Y28293D01*
X695868Y28274D01*
X695955Y28247D01*
X696040Y28213D01*
X696081Y28209D01*
X696103Y28202D01*
X696135Y28203D01*
X696207Y28195D01*
X709152Y28195D01*
X709267Y28214D01*
X709383Y28231D01*
X709389Y28233D01*
X709395Y28234D01*
X709498Y28289D01*
X709602Y28342D01*
X709607Y28347D01*
X709612Y28350D01*
X709692Y28434D01*
X709775Y28518D01*
X709778Y28524D01*
X709782Y28528D01*
X709790Y28545D01*
X709856Y28665D01*
X711841Y33458D01*
X715842Y37459D01*
X721071Y39625D01*
X726729Y39625D01*
X731958Y37459D01*
X735959Y33458D01*
X738125Y28229D01*
X738125Y22571D01*
X735959Y17342D01*
X731855Y13238D01*
X731813Y13180D01*
X731764Y13128D01*
X731742Y13081D01*
X731712Y13039D01*
X731690Y12970D01*
X731660Y12905D01*
X731655Y12853D01*
X731639Y12803D01*
X731641Y12732D01*
X731633Y12661D01*
X731644Y12610D01*
X731646Y12558D01*
X731670Y12490D01*
X731685Y12420D01*
X731712Y12376D01*
X731730Y12327D01*
X731775Y12271D01*
X731812Y12209D01*
X731851Y12175D01*
X731884Y12135D01*
X731944Y12096D01*
X731999Y12049D01*
X732047Y12030D01*
X732091Y12002D01*
X732160Y11984D01*
X732227Y11957D01*
X732298Y11949D01*
X732329Y11941D01*
X732352Y11943D01*
X732393Y11939D01*
X1587500Y11939D01*
X1587520Y11942D01*
X1587539Y11940D01*
X1587641Y11962D01*
X1587743Y11979D01*
X1587760Y11988D01*
X1587780Y11992D01*
X1587869Y12045D01*
X1587960Y12094D01*
X1587974Y12108D01*
X1587991Y12118D01*
X1588058Y12197D01*
X1588130Y12272D01*
X1588138Y12290D01*
X1588151Y12305D01*
X1588190Y12401D01*
X1588233Y12495D01*
X1588235Y12515D01*
X1588243Y12533D01*
X1588261Y12700D01*
X1588261Y987808D01*
X1588258Y987828D01*
X1588260Y987847D01*
X1588238Y987949D01*
X1588221Y988051D01*
X1588212Y988068D01*
X1588208Y988088D01*
X1588155Y988177D01*
X1588106Y988268D01*
X1588092Y988282D01*
X1588082Y988299D01*
X1588003Y988366D01*
X1587928Y988438D01*
X1587910Y988446D01*
X1587895Y988459D01*
X1587799Y988498D01*
X1587705Y988541D01*
X1587685Y988543D01*
X1587667Y988551D01*
X1587500Y988569D01*
X12700Y988569D01*
X12680Y988566D01*
X12661Y988568D01*
X12559Y988546D01*
X12457Y988530D01*
X12440Y988520D01*
X12420Y988516D01*
X12331Y988463D01*
X12240Y988414D01*
X12226Y988400D01*
X12209Y988390D01*
X12142Y988311D01*
X12070Y988236D01*
X12062Y988218D01*
X12049Y988203D01*
X12010Y988107D01*
X11967Y988013D01*
X11965Y987993D01*
X11957Y987975D01*
X11939Y987808D01*
X11939Y12700D01*
X11942Y12680D01*
X11940Y12661D01*
X11962Y12559D01*
X11979Y12457D01*
X11988Y12440D01*
X11992Y12420D01*
X12045Y12331D01*
X12094Y12240D01*
X12108Y12226D01*
X12118Y12209D01*
X12197Y12142D01*
X12272Y12071D01*
X12290Y12062D01*
X12305Y12049D01*
X12401Y12010D01*
X12495Y11967D01*
X12515Y11965D01*
X12533Y11957D01*
X12700Y11939D01*
X664607Y11939D01*
X664677Y11950D01*
X664749Y11952D01*
X664798Y11970D01*
X664849Y11979D01*
X664913Y12012D01*
X664980Y12037D01*
X665021Y12069D01*
X665067Y12094D01*
X665116Y12146D01*
X665172Y12190D01*
X665200Y12234D01*
X665236Y12272D01*
X665266Y12337D01*
X665305Y12397D01*
X665318Y12448D01*
X665340Y12495D01*
X665348Y12566D01*
X665365Y12636D01*
X665361Y12688D01*
X665367Y12739D01*
X665352Y12810D01*
X665346Y12881D01*
X665326Y12929D01*
X665315Y12980D01*
X665278Y13041D01*
X665250Y13107D01*
X665205Y13163D01*
X665188Y13191D01*
X665171Y13206D01*
X665145Y13238D01*
X661041Y17342D01*
X658875Y22571D01*
X658875Y28229D01*
X661041Y33458D01*
X665042Y37459D01*
X670271Y39625D01*
X675939Y39625D01*
X676012Y39608D01*
X676105Y39579D01*
X676131Y39580D01*
X676156Y39574D01*
X676253Y39583D01*
X676351Y39585D01*
X676375Y39594D01*
X676401Y39597D01*
X676490Y39636D01*
X676582Y39670D01*
X676602Y39686D01*
X676626Y39697D01*
X676698Y39763D01*
X676774Y39824D01*
X676788Y39846D01*
X676807Y39863D01*
X676854Y39948D01*
X676907Y40030D01*
X676913Y40056D01*
X676926Y40079D01*
X676943Y40174D01*
X676967Y40269D01*
X676965Y40295D01*
X676969Y40321D01*
X676955Y40417D01*
X676948Y40514D01*
X676938Y40538D01*
X676934Y40564D01*
X676889Y40651D01*
X676851Y40741D01*
X676831Y40766D01*
X676822Y40783D01*
X676799Y40807D01*
X676747Y40871D01*
X587540Y130078D01*
X587466Y130131D01*
X587396Y130191D01*
X587366Y130203D01*
X587340Y130222D01*
X587253Y130249D01*
X587168Y130283D01*
X587127Y130287D01*
X587105Y130294D01*
X587073Y130293D01*
X587001Y130301D01*
X200221Y130301D01*
X193302Y137220D01*
X193286Y137232D01*
X193273Y137247D01*
X193186Y137303D01*
X193102Y137364D01*
X193083Y137370D01*
X193066Y137380D01*
X192966Y137406D01*
X192867Y137436D01*
X192847Y137436D01*
X192828Y137440D01*
X192725Y137432D01*
X192621Y137430D01*
X192602Y137423D01*
X192583Y137421D01*
X192488Y137381D01*
X192390Y137345D01*
X192374Y137333D01*
X192356Y137325D01*
X192225Y137220D01*
X188354Y133349D01*
X171310Y133349D01*
X159257Y145402D01*
X159257Y162446D01*
X171310Y174499D01*
X188354Y174499D01*
X200407Y162446D01*
X200407Y145402D01*
X196536Y141531D01*
X196524Y141515D01*
X196509Y141502D01*
X196452Y141415D01*
X196392Y141331D01*
X196386Y141312D01*
X196376Y141295D01*
X196350Y141195D01*
X196320Y141096D01*
X196320Y141076D01*
X196316Y141057D01*
X196324Y140954D01*
X196326Y140850D01*
X196333Y140831D01*
X196335Y140811D01*
X196375Y140717D01*
X196411Y140619D01*
X196423Y140603D01*
X196431Y140585D01*
X196536Y140454D01*
X201892Y135098D01*
X201966Y135045D01*
X202036Y134985D01*
X202066Y134973D01*
X202092Y134954D01*
X202179Y134927D01*
X202264Y134893D01*
X202305Y134889D01*
X202327Y134882D01*
X202359Y134883D01*
X202431Y134875D01*
X417882Y134875D01*
X417953Y134886D01*
X418025Y134888D01*
X418074Y134906D01*
X418125Y134914D01*
X418189Y134948D01*
X418256Y134973D01*
X418297Y135005D01*
X418343Y135030D01*
X418392Y135082D01*
X418448Y135126D01*
X418476Y135170D01*
X418512Y135208D01*
X418542Y135273D01*
X418581Y135333D01*
X418594Y135384D01*
X418616Y135431D01*
X418623Y135502D01*
X418641Y135572D01*
X418637Y135624D01*
X418643Y135675D01*
X418627Y135746D01*
X418622Y135817D01*
X418601Y135865D01*
X418590Y135916D01*
X418554Y135977D01*
X418526Y136043D01*
X418481Y136099D01*
X418464Y136127D01*
X418446Y136142D01*
X418421Y136174D01*
X409193Y145402D01*
X409193Y162446D01*
X421246Y174499D01*
X438290Y174499D01*
X441622Y171167D01*
X441639Y171155D01*
X441651Y171139D01*
X441738Y171083D01*
X441822Y171023D01*
X441841Y171017D01*
X441858Y171006D01*
X441958Y170981D01*
X442057Y170951D01*
X442077Y170951D01*
X442097Y170946D01*
X442199Y170954D01*
X442303Y170957D01*
X442322Y170964D01*
X442342Y170965D01*
X442437Y171006D01*
X442534Y171041D01*
X442550Y171054D01*
X442568Y171062D01*
X442699Y171167D01*
X679965Y408433D01*
X682614Y408433D01*
X682634Y408436D01*
X682653Y408434D01*
X682755Y408456D01*
X682857Y408472D01*
X682874Y408482D01*
X682894Y408486D01*
X682983Y408539D01*
X683074Y408588D01*
X683088Y408602D01*
X683105Y408612D01*
X683172Y408691D01*
X683244Y408766D01*
X683252Y408784D01*
X683265Y408799D01*
X683304Y408895D01*
X683347Y408989D01*
X683349Y409009D01*
X683357Y409027D01*
X683375Y409194D01*
X683375Y413004D01*
X683372Y413024D01*
X683374Y413043D01*
X683352Y413145D01*
X683336Y413247D01*
X683326Y413264D01*
X683322Y413284D01*
X683269Y413373D01*
X683220Y413464D01*
X683206Y413478D01*
X683196Y413495D01*
X683117Y413562D01*
X683042Y413634D01*
X683024Y413642D01*
X683009Y413655D01*
X682913Y413694D01*
X682819Y413737D01*
X682799Y413739D01*
X682781Y413747D01*
X682614Y413765D01*
X682491Y413765D01*
X682400Y413751D01*
X682310Y413743D01*
X682280Y413731D01*
X682248Y413726D01*
X682167Y413683D01*
X682083Y413647D01*
X682051Y413621D01*
X682030Y413610D01*
X682008Y413587D01*
X681952Y413542D01*
X637979Y369569D01*
X602557Y369569D01*
X574718Y397408D01*
X574639Y397465D01*
X574564Y397527D01*
X574539Y397537D01*
X574518Y397552D01*
X574425Y397580D01*
X574334Y397615D01*
X574308Y397616D01*
X574283Y397624D01*
X574186Y397622D01*
X574088Y397626D01*
X574063Y397618D01*
X574037Y397618D01*
X573946Y397584D01*
X573852Y397557D01*
X573831Y397542D01*
X573806Y397533D01*
X573730Y397472D01*
X573650Y397417D01*
X573635Y397396D01*
X573614Y397380D01*
X573561Y397298D01*
X573503Y397219D01*
X573495Y397195D01*
X573481Y397173D01*
X573457Y397078D01*
X573427Y396986D01*
X573427Y396959D01*
X573421Y396934D01*
X573429Y396837D01*
X573430Y396740D01*
X573439Y396708D01*
X573440Y396689D01*
X573453Y396659D01*
X573461Y396632D01*
X573461Y390784D01*
X571229Y385395D01*
X567105Y381271D01*
X561716Y379039D01*
X555884Y379039D01*
X550495Y381271D01*
X546371Y385395D01*
X544139Y390784D01*
X544139Y396616D01*
X546371Y402005D01*
X550495Y406129D01*
X555884Y408361D01*
X561745Y408361D01*
X561773Y408354D01*
X561866Y408325D01*
X561893Y408326D01*
X561918Y408320D01*
X562015Y408329D01*
X562112Y408332D01*
X562137Y408341D01*
X562163Y408343D01*
X562252Y408383D01*
X562343Y408416D01*
X562364Y408433D01*
X562388Y408443D01*
X562459Y408509D01*
X562535Y408570D01*
X562550Y408592D01*
X562569Y408610D01*
X562616Y408695D01*
X562668Y408777D01*
X562675Y408802D01*
X562687Y408825D01*
X562705Y408921D01*
X562728Y409015D01*
X562726Y409041D01*
X562731Y409067D01*
X562717Y409164D01*
X562709Y409261D01*
X562699Y409285D01*
X562695Y409310D01*
X562651Y409397D01*
X562613Y409487D01*
X562593Y409512D01*
X562584Y409530D01*
X562560Y409553D01*
X562508Y409618D01*
X374180Y597946D01*
X374106Y597999D01*
X374036Y598059D01*
X374006Y598071D01*
X373980Y598090D01*
X373893Y598117D01*
X373808Y598151D01*
X373767Y598155D01*
X373745Y598162D01*
X373713Y598161D01*
X373641Y598169D01*
X348395Y598169D01*
X348299Y598154D01*
X348202Y598144D01*
X348178Y598134D01*
X348153Y598130D01*
X348067Y598084D01*
X347977Y598044D01*
X347958Y598027D01*
X347935Y598014D01*
X347868Y597944D01*
X347796Y597878D01*
X347784Y597855D01*
X347766Y597836D01*
X347725Y597748D01*
X347678Y597662D01*
X347673Y597637D01*
X347662Y597613D01*
X347651Y597516D01*
X347634Y597420D01*
X347638Y597394D01*
X347635Y597369D01*
X347656Y597273D01*
X347670Y597177D01*
X347682Y597154D01*
X347687Y597128D01*
X347737Y597045D01*
X347781Y596958D01*
X347800Y596939D01*
X347813Y596917D01*
X347888Y596854D01*
X347957Y596786D01*
X347986Y596770D01*
X348000Y596757D01*
X348031Y596745D01*
X348104Y596705D01*
X349180Y596259D01*
X353181Y592258D01*
X355347Y587029D01*
X355347Y555971D01*
X353181Y550742D01*
X349180Y546741D01*
X344133Y544650D01*
X344033Y544589D01*
X343933Y544529D01*
X343929Y544524D01*
X343924Y544521D01*
X343849Y544431D01*
X343773Y544342D01*
X343771Y544336D01*
X343767Y544331D01*
X343725Y544223D01*
X343681Y544114D01*
X343680Y544106D01*
X343679Y544102D01*
X343678Y544083D01*
X343663Y543947D01*
X343663Y444747D01*
X343677Y444656D01*
X343685Y444566D01*
X343697Y444536D01*
X343702Y444504D01*
X343745Y444423D01*
X343781Y444339D01*
X343807Y444307D01*
X343818Y444286D01*
X343841Y444264D01*
X343886Y444208D01*
X416806Y371288D01*
X416822Y371276D01*
X416835Y371261D01*
X416922Y371204D01*
X417006Y371144D01*
X417025Y371138D01*
X417042Y371128D01*
X417142Y371102D01*
X417241Y371072D01*
X417261Y371072D01*
X417280Y371068D01*
X417383Y371076D01*
X417487Y371078D01*
X417506Y371085D01*
X417525Y371087D01*
X417620Y371127D01*
X417718Y371163D01*
X417734Y371175D01*
X417752Y371183D01*
X417883Y371288D01*
X421246Y374651D01*
X438290Y374651D01*
X450343Y362598D01*
X450343Y345554D01*
X438290Y333501D01*
X421246Y333501D01*
X409193Y345554D01*
X409193Y362598D01*
X413572Y366977D01*
X413584Y366993D01*
X413599Y367006D01*
X413656Y367093D01*
X413716Y367177D01*
X413722Y367196D01*
X413732Y367213D01*
X413758Y367313D01*
X413788Y367412D01*
X413788Y367432D01*
X413792Y367451D01*
X413784Y367554D01*
X413782Y367658D01*
X413775Y367677D01*
X413773Y367697D01*
X413733Y367791D01*
X413697Y367889D01*
X413685Y367905D01*
X413677Y367923D01*
X413572Y368054D01*
X339089Y442537D01*
X339089Y543814D01*
X339086Y543834D01*
X339088Y543853D01*
X339066Y543955D01*
X339050Y544057D01*
X339040Y544074D01*
X339036Y544094D01*
X338983Y544183D01*
X338934Y544274D01*
X338920Y544288D01*
X338910Y544305D01*
X338831Y544372D01*
X338756Y544444D01*
X338738Y544452D01*
X338723Y544465D01*
X338627Y544504D01*
X338533Y544547D01*
X338513Y544549D01*
X338495Y544557D01*
X338328Y544575D01*
X338293Y544575D01*
X333064Y546741D01*
X329063Y550742D01*
X326897Y555971D01*
X326897Y587029D01*
X329063Y592258D01*
X333064Y596259D01*
X334140Y596705D01*
X334223Y596756D01*
X334309Y596802D01*
X334327Y596821D01*
X334349Y596834D01*
X334411Y596909D01*
X334478Y596980D01*
X334489Y597004D01*
X334506Y597024D01*
X334541Y597115D01*
X334582Y597203D01*
X334585Y597229D01*
X334594Y597253D01*
X334598Y597351D01*
X334609Y597447D01*
X334603Y597473D01*
X334605Y597499D01*
X334577Y597593D01*
X334557Y597688D01*
X334543Y597710D01*
X334536Y597735D01*
X334480Y597815D01*
X334431Y597899D01*
X334411Y597916D01*
X334396Y597937D01*
X334318Y597996D01*
X334244Y598059D01*
X334219Y598069D01*
X334198Y598084D01*
X334106Y598114D01*
X334015Y598151D01*
X333983Y598154D01*
X333964Y598160D01*
X333931Y598160D01*
X333849Y598169D01*
X147567Y598169D01*
X147476Y598155D01*
X147386Y598147D01*
X147356Y598135D01*
X147324Y598130D01*
X147243Y598087D01*
X147159Y598051D01*
X147127Y598025D01*
X147106Y598014D01*
X147084Y597991D01*
X147028Y597946D01*
X130526Y581444D01*
X130473Y581370D01*
X130413Y581300D01*
X130401Y581270D01*
X130382Y581244D01*
X130355Y581157D01*
X130321Y581072D01*
X130317Y581031D01*
X130310Y581009D01*
X130311Y580977D01*
X130303Y580906D01*
X130303Y555971D01*
X128137Y550742D01*
X124136Y546741D01*
X118907Y544575D01*
X113249Y544575D01*
X108020Y546741D01*
X104019Y550742D01*
X101853Y555971D01*
X101853Y587029D01*
X104019Y592258D01*
X108020Y596259D01*
X113249Y598425D01*
X118907Y598425D01*
X124136Y596259D01*
X128137Y592258D01*
X129674Y588548D01*
X129698Y588509D01*
X129714Y588466D01*
X129762Y588405D01*
X129803Y588339D01*
X129839Y588310D01*
X129867Y588274D01*
X129933Y588232D01*
X129993Y588182D01*
X130036Y588166D01*
X130074Y588141D01*
X130150Y588122D01*
X130222Y588094D01*
X130268Y588092D01*
X130313Y588081D01*
X130390Y588087D01*
X130468Y588084D01*
X130512Y588096D01*
X130558Y588100D01*
X130630Y588130D01*
X130704Y588152D01*
X130742Y588178D01*
X130784Y588196D01*
X130891Y588282D01*
X130906Y588292D01*
X130909Y588297D01*
X130915Y588301D01*
X145357Y602743D01*
X375851Y602743D01*
X604228Y374366D01*
X604302Y374313D01*
X604372Y374253D01*
X604402Y374241D01*
X604428Y374222D01*
X604515Y374195D01*
X604600Y374161D01*
X604641Y374157D01*
X604663Y374150D01*
X604695Y374151D01*
X604767Y374143D01*
X620598Y374143D01*
X620618Y374146D01*
X620637Y374144D01*
X620739Y374166D01*
X620841Y374182D01*
X620858Y374192D01*
X620878Y374196D01*
X620967Y374249D01*
X621058Y374298D01*
X621072Y374312D01*
X621089Y374322D01*
X621156Y374401D01*
X621228Y374476D01*
X621236Y374494D01*
X621249Y374509D01*
X621288Y374605D01*
X621331Y374699D01*
X621333Y374719D01*
X621341Y374737D01*
X621359Y374904D01*
X621359Y379177D01*
X629138Y379177D01*
X629158Y379180D01*
X629177Y379178D01*
X629279Y379200D01*
X629381Y379217D01*
G37*
%LPC*%
G36*
X882968Y176475D02*
X882968Y176475D01*
X882075Y177368D01*
X882075Y203632D01*
X882968Y204525D01*
X900684Y204525D01*
X900704Y204528D01*
X900723Y204526D01*
X900825Y204548D01*
X900927Y204564D01*
X900944Y204574D01*
X900964Y204578D01*
X901053Y204631D01*
X901144Y204680D01*
X901158Y204694D01*
X901175Y204704D01*
X901242Y204783D01*
X901314Y204858D01*
X901322Y204876D01*
X901335Y204891D01*
X901374Y204987D01*
X901417Y205081D01*
X901419Y205101D01*
X901427Y205119D01*
X901445Y205286D01*
X901445Y564141D01*
X901431Y564232D01*
X901423Y564322D01*
X901411Y564352D01*
X901406Y564384D01*
X901363Y564465D01*
X901327Y564549D01*
X901301Y564581D01*
X901290Y564602D01*
X901267Y564624D01*
X901222Y564680D01*
X881250Y584652D01*
X881176Y584705D01*
X881106Y584765D01*
X881076Y584777D01*
X881050Y584796D01*
X880963Y584823D01*
X880878Y584857D01*
X880837Y584861D01*
X880815Y584868D01*
X880783Y584867D01*
X880711Y584875D01*
X862108Y584875D01*
X861215Y585768D01*
X861215Y604371D01*
X861201Y604462D01*
X861193Y604552D01*
X861181Y604582D01*
X861176Y604614D01*
X861133Y604695D01*
X861097Y604779D01*
X861071Y604811D01*
X861060Y604832D01*
X861037Y604854D01*
X860992Y604910D01*
X855764Y610138D01*
X855690Y610191D01*
X855620Y610251D01*
X855590Y610263D01*
X855564Y610282D01*
X855477Y610309D01*
X855392Y610343D01*
X855351Y610347D01*
X855329Y610354D01*
X855297Y610353D01*
X855225Y610361D01*
X768715Y610361D01*
X768645Y610350D01*
X768573Y610348D01*
X768524Y610330D01*
X768473Y610322D01*
X768409Y610288D01*
X768342Y610263D01*
X768301Y610231D01*
X768255Y610206D01*
X768206Y610154D01*
X768150Y610110D01*
X768122Y610066D01*
X768086Y610028D01*
X768056Y609963D01*
X768017Y609903D01*
X768004Y609852D01*
X767982Y609805D01*
X767974Y609734D01*
X767957Y609664D01*
X767961Y609612D01*
X767955Y609561D01*
X767970Y609490D01*
X767976Y609419D01*
X767996Y609371D01*
X768007Y609320D01*
X768044Y609259D01*
X768072Y609193D01*
X768117Y609137D01*
X768134Y609109D01*
X768151Y609094D01*
X768177Y609062D01*
X772281Y604958D01*
X774447Y599729D01*
X774447Y568671D01*
X772281Y563442D01*
X768280Y559441D01*
X763051Y557275D01*
X762000Y557275D01*
X761980Y557272D01*
X761961Y557274D01*
X761859Y557252D01*
X761757Y557236D01*
X761740Y557226D01*
X761720Y557222D01*
X761631Y557169D01*
X761540Y557120D01*
X761526Y557106D01*
X761509Y557096D01*
X761442Y557017D01*
X761370Y556942D01*
X761362Y556924D01*
X761349Y556909D01*
X761310Y556813D01*
X761267Y556719D01*
X761265Y556699D01*
X761257Y556681D01*
X761239Y556514D01*
X761239Y305377D01*
X702026Y246164D01*
X701981Y246102D01*
X701952Y246071D01*
X701946Y246059D01*
X701913Y246020D01*
X701901Y245990D01*
X701882Y245964D01*
X701855Y245877D01*
X701821Y245792D01*
X701817Y245751D01*
X701810Y245729D01*
X701811Y245697D01*
X701803Y245625D01*
X701803Y242887D01*
X701806Y242868D01*
X701804Y242848D01*
X701826Y242747D01*
X701842Y242645D01*
X701852Y242627D01*
X701856Y242608D01*
X701909Y242519D01*
X701958Y242427D01*
X701972Y242414D01*
X701982Y242397D01*
X702061Y242329D01*
X702136Y242258D01*
X702154Y242250D01*
X702169Y242237D01*
X702265Y242198D01*
X702359Y242154D01*
X702379Y242152D01*
X702397Y242145D01*
X702564Y242126D01*
X713192Y242126D01*
X718164Y240067D01*
X721968Y236262D01*
X724028Y231291D01*
X724028Y225909D01*
X721968Y220938D01*
X718164Y217133D01*
X713192Y215074D01*
X683808Y215074D01*
X678836Y217133D01*
X675032Y220938D01*
X672972Y225909D01*
X672972Y231291D01*
X675032Y236262D01*
X678836Y240067D01*
X683808Y242126D01*
X696468Y242126D01*
X696488Y242129D01*
X696507Y242127D01*
X696609Y242149D01*
X696711Y242166D01*
X696728Y242175D01*
X696748Y242180D01*
X696837Y242233D01*
X696928Y242281D01*
X696942Y242295D01*
X696959Y242306D01*
X697026Y242384D01*
X697098Y242459D01*
X697106Y242477D01*
X697119Y242493D01*
X697158Y242589D01*
X697201Y242682D01*
X697203Y242702D01*
X697211Y242721D01*
X697229Y242887D01*
X697229Y247835D01*
X714030Y264635D01*
X714086Y264714D01*
X714149Y264790D01*
X714158Y264814D01*
X714173Y264835D01*
X714202Y264928D01*
X714237Y265019D01*
X714238Y265045D01*
X714245Y265070D01*
X714243Y265168D01*
X714247Y265265D01*
X714240Y265290D01*
X714239Y265316D01*
X714206Y265408D01*
X714179Y265501D01*
X714164Y265523D01*
X714155Y265547D01*
X714094Y265623D01*
X714038Y265703D01*
X714017Y265719D01*
X714001Y265739D01*
X713919Y265792D01*
X713841Y265850D01*
X713816Y265858D01*
X713794Y265872D01*
X713700Y265896D01*
X713607Y265926D01*
X713581Y265926D01*
X713556Y265932D01*
X713458Y265925D01*
X713361Y265924D01*
X713330Y265915D01*
X713310Y265913D01*
X713280Y265900D01*
X713200Y265877D01*
X713192Y265874D01*
X683808Y265874D01*
X678836Y267933D01*
X675032Y271738D01*
X672972Y276709D01*
X672972Y282091D01*
X675032Y287062D01*
X678836Y290867D01*
X683808Y292926D01*
X713192Y292926D01*
X718164Y290867D01*
X721968Y287062D01*
X724028Y282091D01*
X724028Y276709D01*
X724024Y276702D01*
X724002Y276607D01*
X723974Y276514D01*
X723974Y276488D01*
X723968Y276462D01*
X723977Y276365D01*
X723980Y276268D01*
X723989Y276243D01*
X723991Y276217D01*
X724031Y276128D01*
X724064Y276037D01*
X724081Y276016D01*
X724091Y275993D01*
X724157Y275921D01*
X724218Y275845D01*
X724240Y275831D01*
X724258Y275811D01*
X724343Y275764D01*
X724425Y275712D01*
X724450Y275705D01*
X724473Y275693D01*
X724569Y275675D01*
X724664Y275652D01*
X724689Y275654D01*
X724715Y275649D01*
X724812Y275663D01*
X724909Y275671D01*
X724933Y275681D01*
X724959Y275685D01*
X725046Y275729D01*
X725135Y275767D01*
X725160Y275787D01*
X725178Y275796D01*
X725201Y275820D01*
X725266Y275872D01*
X756442Y307048D01*
X756495Y307122D01*
X756555Y307192D01*
X756567Y307222D01*
X756586Y307248D01*
X756613Y307335D01*
X756647Y307420D01*
X756651Y307461D01*
X756658Y307483D01*
X756657Y307515D01*
X756665Y307587D01*
X756665Y557068D01*
X756646Y557183D01*
X756629Y557299D01*
X756627Y557304D01*
X756626Y557311D01*
X756571Y557413D01*
X756518Y557518D01*
X756513Y557522D01*
X756510Y557528D01*
X756426Y557608D01*
X756342Y557690D01*
X756336Y557694D01*
X756332Y557697D01*
X756315Y557705D01*
X756195Y557771D01*
X752164Y559441D01*
X748163Y563442D01*
X745997Y568671D01*
X745997Y599194D01*
X745986Y599264D01*
X745984Y599336D01*
X745966Y599385D01*
X745958Y599436D01*
X745924Y599500D01*
X745899Y599567D01*
X745867Y599608D01*
X745842Y599654D01*
X745790Y599703D01*
X745746Y599759D01*
X745702Y599787D01*
X745664Y599823D01*
X745599Y599853D01*
X745539Y599892D01*
X745488Y599905D01*
X745441Y599927D01*
X745370Y599935D01*
X745300Y599952D01*
X745248Y599948D01*
X745197Y599954D01*
X745126Y599939D01*
X745055Y599933D01*
X745007Y599913D01*
X744956Y599902D01*
X744895Y599865D01*
X744829Y599837D01*
X744773Y599792D01*
X744745Y599775D01*
X744730Y599758D01*
X744698Y599732D01*
X633446Y488480D01*
X633393Y488406D01*
X633333Y488336D01*
X633321Y488306D01*
X633302Y488280D01*
X633275Y488193D01*
X633241Y488108D01*
X633237Y488067D01*
X633230Y488045D01*
X633231Y488013D01*
X633223Y487941D01*
X633223Y414986D01*
X633226Y414966D01*
X633224Y414947D01*
X633246Y414845D01*
X633262Y414743D01*
X633272Y414726D01*
X633276Y414706D01*
X633329Y414617D01*
X633378Y414526D01*
X633392Y414512D01*
X633402Y414495D01*
X633481Y414428D01*
X633556Y414356D01*
X633574Y414348D01*
X633589Y414335D01*
X633685Y414296D01*
X633779Y414253D01*
X633799Y414251D01*
X633817Y414243D01*
X633984Y414225D01*
X636532Y414225D01*
X637425Y413332D01*
X637425Y400068D01*
X636532Y399175D01*
X623268Y399175D01*
X622375Y400068D01*
X622375Y413332D01*
X623268Y414225D01*
X627888Y414225D01*
X627908Y414228D01*
X627927Y414226D01*
X628029Y414248D01*
X628131Y414264D01*
X628148Y414274D01*
X628168Y414278D01*
X628257Y414331D01*
X628348Y414380D01*
X628362Y414394D01*
X628379Y414404D01*
X628446Y414483D01*
X628518Y414558D01*
X628526Y414576D01*
X628539Y414591D01*
X628578Y414687D01*
X628621Y414781D01*
X628623Y414801D01*
X628631Y414819D01*
X628649Y414986D01*
X628649Y490151D01*
X753433Y614935D01*
X857435Y614935D01*
X863222Y609148D01*
X863296Y609095D01*
X863366Y609035D01*
X863396Y609023D01*
X863422Y609004D01*
X863509Y608977D01*
X863594Y608943D01*
X863635Y608939D01*
X863657Y608932D01*
X863689Y608933D01*
X863761Y608925D01*
X883372Y608925D01*
X884265Y608032D01*
X884265Y588421D01*
X884279Y588330D01*
X884287Y588240D01*
X884299Y588210D01*
X884304Y588178D01*
X884347Y588097D01*
X884383Y588013D01*
X884409Y587981D01*
X884420Y587960D01*
X884443Y587938D01*
X884488Y587882D01*
X906019Y566351D01*
X906019Y205286D01*
X906021Y205270D01*
X906020Y205257D01*
X906021Y205253D01*
X906020Y205247D01*
X906042Y205145D01*
X906058Y205043D01*
X906068Y205026D01*
X906072Y205006D01*
X906125Y204917D01*
X906174Y204826D01*
X906188Y204812D01*
X906198Y204795D01*
X906277Y204728D01*
X906352Y204656D01*
X906370Y204648D01*
X906385Y204635D01*
X906481Y204596D01*
X906575Y204553D01*
X906595Y204551D01*
X906613Y204543D01*
X906780Y204525D01*
X927232Y204525D01*
X928125Y203632D01*
X928125Y177368D01*
X927232Y176475D01*
X882968Y176475D01*
G37*
%LPD*%
%LPC*%
G36*
X747885Y716787D02*
X747885Y716787D01*
X745271Y717870D01*
X743270Y719871D01*
X742743Y721143D01*
X742681Y721243D01*
X742622Y721343D01*
X742617Y721347D01*
X742614Y721352D01*
X742523Y721427D01*
X742435Y721503D01*
X742429Y721505D01*
X742424Y721509D01*
X742316Y721551D01*
X742207Y721595D01*
X742199Y721596D01*
X742194Y721597D01*
X742176Y721598D01*
X742040Y721613D01*
X611701Y721613D01*
X610138Y723176D01*
X567862Y765452D01*
X567788Y765505D01*
X567718Y765565D01*
X567688Y765577D01*
X567662Y765596D01*
X567575Y765623D01*
X567490Y765657D01*
X567449Y765661D01*
X567427Y765668D01*
X567395Y765667D01*
X567324Y765675D01*
X554868Y765675D01*
X553975Y766568D01*
X553975Y782832D01*
X554868Y783725D01*
X557784Y783725D01*
X557804Y783728D01*
X557823Y783726D01*
X557925Y783748D01*
X558027Y783764D01*
X558044Y783774D01*
X558064Y783778D01*
X558153Y783831D01*
X558244Y783880D01*
X558258Y783894D01*
X558275Y783904D01*
X558342Y783983D01*
X558414Y784058D01*
X558422Y784076D01*
X558435Y784091D01*
X558474Y784187D01*
X558517Y784281D01*
X558519Y784301D01*
X558527Y784319D01*
X558545Y784486D01*
X558545Y847605D01*
X558531Y847696D01*
X558523Y847786D01*
X558511Y847816D01*
X558506Y847848D01*
X558463Y847929D01*
X558427Y848013D01*
X558401Y848045D01*
X558390Y848066D01*
X558367Y848088D01*
X558322Y848144D01*
X538028Y868438D01*
X537934Y868505D01*
X537839Y868576D01*
X537833Y868578D01*
X537828Y868581D01*
X537718Y868616D01*
X537606Y868652D01*
X537599Y868652D01*
X537593Y868654D01*
X537477Y868651D01*
X537360Y868650D01*
X537352Y868648D01*
X537347Y868647D01*
X537330Y868641D01*
X537199Y868603D01*
X535104Y867735D01*
X531696Y867735D01*
X528548Y869039D01*
X526139Y871448D01*
X524835Y874596D01*
X524835Y878004D01*
X526139Y881152D01*
X528548Y883561D01*
X531696Y884865D01*
X533480Y884865D01*
X533550Y884876D01*
X533622Y884878D01*
X533671Y884896D01*
X533722Y884904D01*
X533786Y884938D01*
X533853Y884963D01*
X533894Y884995D01*
X533940Y885020D01*
X533989Y885072D01*
X534045Y885116D01*
X534073Y885160D01*
X534109Y885198D01*
X534139Y885263D01*
X534178Y885323D01*
X534191Y885374D01*
X534213Y885421D01*
X534221Y885492D01*
X534238Y885562D01*
X534234Y885614D01*
X534240Y885665D01*
X534225Y885736D01*
X534219Y885807D01*
X534199Y885855D01*
X534188Y885906D01*
X534151Y885967D01*
X534123Y886033D01*
X534078Y886089D01*
X534061Y886117D01*
X534044Y886132D01*
X534018Y886164D01*
X517436Y902746D01*
X517362Y902799D01*
X517292Y902859D01*
X517262Y902871D01*
X517236Y902890D01*
X517149Y902917D01*
X517064Y902951D01*
X517023Y902955D01*
X517001Y902962D01*
X516969Y902961D01*
X516897Y902969D01*
X473017Y902969D01*
X457961Y918025D01*
X457961Y928116D01*
X457958Y928136D01*
X457960Y928155D01*
X457938Y928257D01*
X457922Y928359D01*
X457912Y928376D01*
X457908Y928396D01*
X457855Y928485D01*
X457806Y928576D01*
X457792Y928590D01*
X457782Y928607D01*
X457703Y928674D01*
X457628Y928746D01*
X457610Y928754D01*
X457595Y928767D01*
X457499Y928806D01*
X457405Y928849D01*
X457385Y928851D01*
X457367Y928859D01*
X457200Y928877D01*
X406647Y928877D01*
X406556Y928863D01*
X406466Y928855D01*
X406436Y928843D01*
X406404Y928838D01*
X406323Y928795D01*
X406239Y928759D01*
X406207Y928733D01*
X406186Y928722D01*
X406164Y928699D01*
X406108Y928654D01*
X404846Y927392D01*
X404793Y927318D01*
X404733Y927248D01*
X404721Y927218D01*
X404702Y927192D01*
X404675Y927105D01*
X404641Y927020D01*
X404637Y926979D01*
X404630Y926957D01*
X404631Y926925D01*
X404623Y926853D01*
X404623Y916501D01*
X362135Y874013D01*
X339032Y874013D01*
X338917Y873994D01*
X338801Y873977D01*
X338795Y873975D01*
X338789Y873974D01*
X338686Y873919D01*
X338582Y873866D01*
X338577Y873861D01*
X338572Y873858D01*
X338492Y873774D01*
X338409Y873690D01*
X338406Y873684D01*
X338402Y873680D01*
X338395Y873663D01*
X338329Y873543D01*
X337461Y871448D01*
X335052Y869039D01*
X331904Y867735D01*
X328496Y867735D01*
X325348Y869039D01*
X322939Y871448D01*
X321635Y874596D01*
X321635Y878004D01*
X322939Y881152D01*
X325348Y883561D01*
X328496Y884865D01*
X331904Y884865D01*
X335052Y883561D01*
X337461Y881152D01*
X338329Y879057D01*
X338390Y878957D01*
X338450Y878857D01*
X338455Y878853D01*
X338458Y878848D01*
X338549Y878773D01*
X338637Y878697D01*
X338643Y878695D01*
X338648Y878691D01*
X338756Y878649D01*
X338865Y878605D01*
X338873Y878604D01*
X338877Y878603D01*
X338896Y878602D01*
X339032Y878587D01*
X359925Y878587D01*
X360016Y878601D01*
X360106Y878609D01*
X360136Y878621D01*
X360168Y878626D01*
X360249Y878669D01*
X360333Y878705D01*
X360365Y878731D01*
X360386Y878742D01*
X360408Y878765D01*
X360464Y878810D01*
X388421Y906767D01*
X388478Y906846D01*
X388540Y906921D01*
X388549Y906945D01*
X388564Y906967D01*
X388593Y907060D01*
X388628Y907151D01*
X388629Y907177D01*
X388637Y907202D01*
X388634Y907299D01*
X388638Y907396D01*
X388631Y907421D01*
X388630Y907448D01*
X388597Y907539D01*
X388570Y907632D01*
X388555Y907654D01*
X388546Y907679D01*
X388485Y907755D01*
X388430Y907835D01*
X388409Y907850D01*
X388392Y907871D01*
X388310Y907923D01*
X388232Y907981D01*
X388207Y907989D01*
X388185Y908004D01*
X388091Y908027D01*
X387998Y908058D01*
X387972Y908057D01*
X387947Y908064D01*
X387850Y908056D01*
X387752Y908055D01*
X387721Y908046D01*
X387702Y908045D01*
X387671Y908032D01*
X387591Y908008D01*
X385139Y906992D01*
X385138Y906992D01*
X385010Y906939D01*
X376990Y906939D01*
X369580Y910009D01*
X363909Y915680D01*
X360839Y923090D01*
X360839Y931110D01*
X363909Y938520D01*
X369580Y944191D01*
X376990Y947261D01*
X385010Y947261D01*
X392420Y944191D01*
X398091Y938520D01*
X400999Y931501D01*
X401023Y931462D01*
X401039Y931419D01*
X401087Y931358D01*
X401128Y931292D01*
X401164Y931263D01*
X401192Y931227D01*
X401258Y931185D01*
X401318Y931135D01*
X401361Y931119D01*
X401399Y931094D01*
X401475Y931075D01*
X401547Y931047D01*
X401593Y931045D01*
X401638Y931034D01*
X401715Y931040D01*
X401793Y931037D01*
X401837Y931050D01*
X401883Y931053D01*
X401955Y931084D01*
X402029Y931105D01*
X402067Y931131D01*
X402109Y931149D01*
X402216Y931235D01*
X402231Y931246D01*
X402234Y931250D01*
X402240Y931254D01*
X404437Y933451D01*
X459671Y933451D01*
X461234Y931888D01*
X461508Y931613D01*
X461546Y931587D01*
X461577Y931553D01*
X461645Y931515D01*
X461708Y931470D01*
X461752Y931456D01*
X461792Y931434D01*
X461869Y931420D01*
X461943Y931398D01*
X461989Y931399D01*
X462034Y931391D01*
X462111Y931402D01*
X462189Y931404D01*
X462232Y931420D01*
X462278Y931426D01*
X462347Y931462D01*
X462420Y931488D01*
X462456Y931517D01*
X462497Y931538D01*
X462551Y931593D01*
X462612Y931642D01*
X462637Y931681D01*
X462669Y931713D01*
X462735Y931833D01*
X462745Y931849D01*
X462746Y931854D01*
X462750Y931860D01*
X465509Y938520D01*
X471180Y944191D01*
X478590Y947261D01*
X486610Y947261D01*
X494020Y944191D01*
X499691Y938520D01*
X502761Y931110D01*
X502761Y923090D01*
X499691Y915680D01*
X494020Y910009D01*
X491603Y909007D01*
X491520Y908956D01*
X491434Y908910D01*
X491416Y908892D01*
X491394Y908878D01*
X491331Y908802D01*
X491265Y908732D01*
X491254Y908708D01*
X491237Y908688D01*
X491202Y908597D01*
X491161Y908509D01*
X491158Y908483D01*
X491149Y908459D01*
X491145Y908361D01*
X491134Y908265D01*
X491139Y908239D01*
X491138Y908213D01*
X491165Y908119D01*
X491186Y908024D01*
X491200Y908002D01*
X491207Y907977D01*
X491262Y907897D01*
X491312Y907813D01*
X491332Y907796D01*
X491347Y907775D01*
X491425Y907716D01*
X491499Y907653D01*
X491524Y907643D01*
X491544Y907628D01*
X491637Y907598D01*
X491727Y907561D01*
X491760Y907558D01*
X491778Y907552D01*
X491811Y907552D01*
X491894Y907543D01*
X519107Y907543D01*
X582931Y843719D01*
X582931Y784486D01*
X582934Y784466D01*
X582932Y784447D01*
X582954Y784345D01*
X582970Y784243D01*
X582980Y784226D01*
X582984Y784206D01*
X583037Y784117D01*
X583086Y784026D01*
X583100Y784012D01*
X583110Y783995D01*
X583189Y783928D01*
X583264Y783856D01*
X583282Y783848D01*
X583297Y783835D01*
X583393Y783796D01*
X583487Y783753D01*
X583507Y783751D01*
X583525Y783743D01*
X583692Y783725D01*
X588132Y783725D01*
X589025Y782832D01*
X589025Y766568D01*
X588132Y765675D01*
X575944Y765675D01*
X575874Y765664D01*
X575802Y765662D01*
X575753Y765644D01*
X575702Y765636D01*
X575638Y765602D01*
X575571Y765577D01*
X575530Y765545D01*
X575484Y765520D01*
X575435Y765469D01*
X575379Y765424D01*
X575351Y765380D01*
X575315Y765342D01*
X575285Y765277D01*
X575246Y765217D01*
X575233Y765166D01*
X575211Y765119D01*
X575203Y765048D01*
X575186Y764978D01*
X575190Y764926D01*
X575184Y764875D01*
X575199Y764804D01*
X575205Y764733D01*
X575225Y764685D01*
X575236Y764634D01*
X575273Y764573D01*
X575301Y764507D01*
X575346Y764451D01*
X575363Y764423D01*
X575380Y764408D01*
X575406Y764376D01*
X613372Y726410D01*
X613446Y726357D01*
X613516Y726297D01*
X613546Y726285D01*
X613572Y726266D01*
X613659Y726239D01*
X613744Y726205D01*
X613785Y726201D01*
X613807Y726194D01*
X613839Y726195D01*
X613910Y726187D01*
X742040Y726187D01*
X742155Y726206D01*
X742271Y726223D01*
X742276Y726225D01*
X742283Y726226D01*
X742385Y726281D01*
X742490Y726334D01*
X742494Y726339D01*
X742500Y726342D01*
X742580Y726426D01*
X742662Y726510D01*
X742666Y726516D01*
X742669Y726520D01*
X742677Y726537D01*
X742743Y726657D01*
X743270Y727929D01*
X745271Y729930D01*
X747885Y731013D01*
X750715Y731013D01*
X753329Y729930D01*
X755330Y727929D01*
X755857Y726657D01*
X755919Y726557D01*
X755978Y726457D01*
X755983Y726453D01*
X755986Y726448D01*
X756077Y726373D01*
X756165Y726297D01*
X756171Y726295D01*
X756176Y726291D01*
X756284Y726249D01*
X756393Y726205D01*
X756401Y726204D01*
X756406Y726203D01*
X756424Y726202D01*
X756560Y726187D01*
X846081Y726187D01*
X846172Y726201D01*
X846262Y726209D01*
X846292Y726221D01*
X846324Y726226D01*
X846405Y726269D01*
X846489Y726305D01*
X846521Y726331D01*
X846542Y726342D01*
X846564Y726365D01*
X846620Y726410D01*
X883070Y762860D01*
X883112Y762918D01*
X883161Y762970D01*
X883183Y763017D01*
X883213Y763059D01*
X883234Y763128D01*
X883265Y763193D01*
X883270Y763245D01*
X883286Y763295D01*
X883284Y763366D01*
X883292Y763437D01*
X883281Y763488D01*
X883279Y763540D01*
X883255Y763608D01*
X883240Y763678D01*
X883213Y763723D01*
X883195Y763771D01*
X883150Y763827D01*
X883113Y763889D01*
X883074Y763923D01*
X883041Y763963D01*
X882981Y764002D01*
X882926Y764049D01*
X882878Y764068D01*
X882834Y764096D01*
X882765Y764114D01*
X882698Y764141D01*
X882627Y764149D01*
X882596Y764157D01*
X882572Y764155D01*
X882532Y764159D01*
X881023Y764159D01*
X881023Y773177D01*
X888541Y773177D01*
X888541Y770168D01*
X888552Y770098D01*
X888554Y770026D01*
X888572Y769977D01*
X888580Y769926D01*
X888614Y769862D01*
X888639Y769795D01*
X888671Y769754D01*
X888696Y769708D01*
X888747Y769659D01*
X888792Y769603D01*
X888836Y769575D01*
X888874Y769539D01*
X888939Y769509D01*
X888999Y769470D01*
X889050Y769457D01*
X889097Y769435D01*
X889168Y769427D01*
X889238Y769410D01*
X889290Y769414D01*
X889341Y769408D01*
X889412Y769423D01*
X889483Y769429D01*
X889531Y769449D01*
X889582Y769460D01*
X889643Y769497D01*
X889709Y769525D01*
X889765Y769570D01*
X889793Y769587D01*
X889808Y769604D01*
X889840Y769630D01*
X890252Y770042D01*
X890306Y770116D01*
X890365Y770186D01*
X890377Y770216D01*
X890396Y770242D01*
X890423Y770329D01*
X890457Y770414D01*
X890461Y770455D01*
X890468Y770477D01*
X890467Y770509D01*
X890475Y770581D01*
X890475Y783332D01*
X891368Y784225D01*
X905632Y784225D01*
X906525Y783332D01*
X906525Y766068D01*
X905632Y765175D01*
X892169Y765175D01*
X892078Y765161D01*
X891988Y765153D01*
X891958Y765141D01*
X891926Y765136D01*
X891845Y765093D01*
X891761Y765057D01*
X891729Y765031D01*
X891708Y765020D01*
X891686Y764997D01*
X891630Y764952D01*
X848291Y721613D01*
X756560Y721613D01*
X756445Y721594D01*
X756329Y721577D01*
X756324Y721575D01*
X756317Y721574D01*
X756215Y721519D01*
X756110Y721466D01*
X756106Y721461D01*
X756100Y721458D01*
X756020Y721374D01*
X755938Y721290D01*
X755934Y721284D01*
X755931Y721280D01*
X755923Y721263D01*
X755857Y721143D01*
X755330Y719871D01*
X753329Y717870D01*
X750715Y716787D01*
X747885Y716787D01*
G37*
%LPD*%
%LPC*%
G36*
X1054298Y708552D02*
X1054298Y708552D01*
X1054370Y708554D01*
X1054419Y708572D01*
X1054470Y708580D01*
X1054534Y708614D01*
X1054601Y708639D01*
X1054642Y708671D01*
X1054688Y708696D01*
X1054737Y708748D01*
X1054793Y708792D01*
X1054821Y708836D01*
X1054857Y708874D01*
X1054887Y708939D01*
X1054926Y708999D01*
X1054939Y709050D01*
X1054961Y709097D01*
X1054969Y709168D01*
X1054986Y709238D01*
X1054982Y709290D01*
X1054988Y709341D01*
X1054973Y709412D01*
X1054967Y709483D01*
X1054947Y709531D01*
X1054936Y709582D01*
X1054899Y709643D01*
X1054871Y709709D01*
X1054826Y709765D01*
X1054809Y709793D01*
X1054792Y709808D01*
X1054766Y709840D01*
X890816Y873790D01*
X890742Y873843D01*
X890672Y873903D01*
X890642Y873915D01*
X890616Y873934D01*
X890529Y873961D01*
X890444Y873995D01*
X890403Y873999D01*
X890381Y874006D01*
X890349Y874005D01*
X890277Y874013D01*
X885132Y874013D01*
X885017Y873994D01*
X884901Y873977D01*
X884895Y873975D01*
X884889Y873974D01*
X884786Y873919D01*
X884682Y873866D01*
X884677Y873861D01*
X884672Y873858D01*
X884592Y873774D01*
X884509Y873690D01*
X884506Y873684D01*
X884502Y873680D01*
X884495Y873663D01*
X884429Y873543D01*
X883561Y871448D01*
X881152Y869039D01*
X878004Y867735D01*
X874596Y867735D01*
X871448Y869039D01*
X869039Y871448D01*
X867735Y874596D01*
X867735Y878004D01*
X869039Y881152D01*
X871448Y883561D01*
X874596Y884865D01*
X878004Y884865D01*
X881152Y883561D01*
X883561Y881152D01*
X884429Y879057D01*
X884490Y878957D01*
X884550Y878857D01*
X884555Y878853D01*
X884558Y878848D01*
X884649Y878773D01*
X884737Y878697D01*
X884743Y878695D01*
X884748Y878691D01*
X884856Y878649D01*
X884965Y878605D01*
X884973Y878604D01*
X884977Y878603D01*
X884996Y878602D01*
X885132Y878587D01*
X892487Y878587D01*
X1069048Y702026D01*
X1069122Y701973D01*
X1069192Y701913D01*
X1069222Y701901D01*
X1069248Y701882D01*
X1069335Y701855D01*
X1069420Y701821D01*
X1069461Y701817D01*
X1069483Y701810D01*
X1069515Y701811D01*
X1069587Y701803D01*
X1137414Y701803D01*
X1137434Y701806D01*
X1137453Y701804D01*
X1137555Y701826D01*
X1137657Y701842D01*
X1137674Y701852D01*
X1137694Y701856D01*
X1137783Y701909D01*
X1137874Y701958D01*
X1137888Y701972D01*
X1137905Y701982D01*
X1137972Y702061D01*
X1138044Y702136D01*
X1138052Y702154D01*
X1138065Y702169D01*
X1138104Y702265D01*
X1138147Y702359D01*
X1138149Y702379D01*
X1138157Y702397D01*
X1138175Y702564D01*
X1138175Y707132D01*
X1139068Y708025D01*
X1153332Y708025D01*
X1154225Y707132D01*
X1154225Y694888D01*
X1154239Y694798D01*
X1154247Y694707D01*
X1154259Y694678D01*
X1154264Y694646D01*
X1154307Y694565D01*
X1154343Y694481D01*
X1154369Y694449D01*
X1154380Y694428D01*
X1154403Y694406D01*
X1154448Y694350D01*
X1154860Y693938D01*
X1154918Y693896D01*
X1154970Y693847D01*
X1155017Y693825D01*
X1155059Y693795D01*
X1155128Y693774D01*
X1155193Y693743D01*
X1155245Y693738D01*
X1155295Y693722D01*
X1155366Y693724D01*
X1155437Y693716D01*
X1155488Y693727D01*
X1155540Y693729D01*
X1155608Y693753D01*
X1155678Y693768D01*
X1155722Y693795D01*
X1155771Y693813D01*
X1155827Y693858D01*
X1155889Y693895D01*
X1155923Y693934D01*
X1155963Y693967D01*
X1156002Y694027D01*
X1156049Y694082D01*
X1156068Y694130D01*
X1156096Y694174D01*
X1156114Y694243D01*
X1156141Y694310D01*
X1156149Y694381D01*
X1156157Y694412D01*
X1156155Y694436D01*
X1156159Y694476D01*
X1156159Y696977D01*
X1164438Y696977D01*
X1164458Y696980D01*
X1164477Y696978D01*
X1164579Y697000D01*
X1164681Y697017D01*
X1164698Y697026D01*
X1164718Y697030D01*
X1164807Y697083D01*
X1164898Y697132D01*
X1164912Y697146D01*
X1164929Y697156D01*
X1164996Y697235D01*
X1165067Y697310D01*
X1165076Y697328D01*
X1165089Y697343D01*
X1165128Y697439D01*
X1165171Y697533D01*
X1165173Y697553D01*
X1165181Y697571D01*
X1165199Y697738D01*
X1165199Y698501D01*
X1165201Y698501D01*
X1165201Y697738D01*
X1165204Y697718D01*
X1165202Y697699D01*
X1165224Y697597D01*
X1165241Y697495D01*
X1165250Y697478D01*
X1165254Y697458D01*
X1165307Y697369D01*
X1165356Y697278D01*
X1165370Y697264D01*
X1165380Y697247D01*
X1165459Y697180D01*
X1165534Y697109D01*
X1165552Y697100D01*
X1165567Y697087D01*
X1165663Y697048D01*
X1165757Y697005D01*
X1165777Y697003D01*
X1165795Y696995D01*
X1165962Y696977D01*
X1174241Y696977D01*
X1174241Y690372D01*
X1174244Y690352D01*
X1174242Y690333D01*
X1174264Y690231D01*
X1174280Y690129D01*
X1174290Y690112D01*
X1174294Y690092D01*
X1174347Y690003D01*
X1174396Y689912D01*
X1174410Y689898D01*
X1174420Y689881D01*
X1174499Y689814D01*
X1174574Y689742D01*
X1174592Y689734D01*
X1174607Y689721D01*
X1174703Y689682D01*
X1174797Y689639D01*
X1174817Y689637D01*
X1174835Y689629D01*
X1175002Y689611D01*
X1257561Y689611D01*
X1257652Y689625D01*
X1257742Y689633D01*
X1257772Y689645D01*
X1257804Y689650D01*
X1257885Y689693D01*
X1257969Y689729D01*
X1258001Y689755D01*
X1258022Y689766D01*
X1258044Y689789D01*
X1258100Y689834D01*
X1301349Y733083D01*
X1301394Y733145D01*
X1301423Y733176D01*
X1301435Y733201D01*
X1301487Y733272D01*
X1301489Y733278D01*
X1301493Y733283D01*
X1301527Y733394D01*
X1301563Y733506D01*
X1301563Y733512D01*
X1301565Y733518D01*
X1301562Y733635D01*
X1301561Y733752D01*
X1301559Y733759D01*
X1301559Y733764D01*
X1301552Y733781D01*
X1301514Y733913D01*
X1300987Y735185D01*
X1300987Y738015D01*
X1302070Y740629D01*
X1304071Y742630D01*
X1306685Y743713D01*
X1309515Y743713D01*
X1312129Y742630D01*
X1314130Y740629D01*
X1315213Y738015D01*
X1315213Y735185D01*
X1314130Y732571D01*
X1312129Y730570D01*
X1309515Y729487D01*
X1306685Y729487D01*
X1305413Y730014D01*
X1305299Y730041D01*
X1305186Y730070D01*
X1305179Y730069D01*
X1305173Y730070D01*
X1305057Y730059D01*
X1304940Y730050D01*
X1304935Y730048D01*
X1304928Y730047D01*
X1304821Y730000D01*
X1304714Y729954D01*
X1304708Y729949D01*
X1304704Y729947D01*
X1304690Y729935D01*
X1304583Y729849D01*
X1262596Y687862D01*
X1262585Y687846D01*
X1262569Y687834D01*
X1262513Y687746D01*
X1262453Y687663D01*
X1262447Y687644D01*
X1262436Y687627D01*
X1262411Y687526D01*
X1262380Y687427D01*
X1262381Y687408D01*
X1262376Y687388D01*
X1262384Y687285D01*
X1262387Y687182D01*
X1262394Y687163D01*
X1262395Y687143D01*
X1262435Y687048D01*
X1262471Y686951D01*
X1262484Y686935D01*
X1262491Y686917D01*
X1262596Y686786D01*
X1309879Y639503D01*
X1309879Y631190D01*
X1309882Y631170D01*
X1309880Y631151D01*
X1309902Y631049D01*
X1309918Y630947D01*
X1309928Y630930D01*
X1309932Y630910D01*
X1309985Y630821D01*
X1310034Y630730D01*
X1310048Y630716D01*
X1310058Y630699D01*
X1310137Y630632D01*
X1310212Y630560D01*
X1310230Y630552D01*
X1310245Y630539D01*
X1310341Y630500D01*
X1310435Y630457D01*
X1310455Y630455D01*
X1310473Y630447D01*
X1310640Y630429D01*
X1316321Y630429D01*
X1319309Y629191D01*
X1321595Y626905D01*
X1322833Y623917D01*
X1322833Y620683D01*
X1321595Y617695D01*
X1319309Y615409D01*
X1316321Y614171D01*
X1299879Y614171D01*
X1296891Y615409D01*
X1294605Y617695D01*
X1293367Y620683D01*
X1293367Y623917D01*
X1294605Y626905D01*
X1296891Y629191D01*
X1299879Y630429D01*
X1304544Y630429D01*
X1304564Y630432D01*
X1304583Y630430D01*
X1304685Y630452D01*
X1304787Y630468D01*
X1304804Y630478D01*
X1304824Y630482D01*
X1304913Y630535D01*
X1305004Y630584D01*
X1305018Y630598D01*
X1305035Y630608D01*
X1305102Y630687D01*
X1305174Y630762D01*
X1305182Y630780D01*
X1305195Y630795D01*
X1305234Y630891D01*
X1305277Y630985D01*
X1305279Y631005D01*
X1305287Y631023D01*
X1305305Y631190D01*
X1305305Y637293D01*
X1305291Y637384D01*
X1305283Y637474D01*
X1305271Y637504D01*
X1305266Y637536D01*
X1305223Y637617D01*
X1305187Y637701D01*
X1305161Y637733D01*
X1305150Y637754D01*
X1305127Y637776D01*
X1305082Y637832D01*
X1258100Y684814D01*
X1258026Y684867D01*
X1257956Y684927D01*
X1257926Y684939D01*
X1257900Y684958D01*
X1257813Y684985D01*
X1257728Y685019D01*
X1257687Y685023D01*
X1257665Y685030D01*
X1257633Y685029D01*
X1257561Y685037D01*
X1157293Y685037D01*
X1155730Y686600D01*
X1153578Y688752D01*
X1153504Y688805D01*
X1153434Y688865D01*
X1153404Y688877D01*
X1153378Y688896D01*
X1153291Y688923D01*
X1153206Y688957D01*
X1153165Y688961D01*
X1153143Y688968D01*
X1153111Y688967D01*
X1153040Y688975D01*
X1139068Y688975D01*
X1138175Y689868D01*
X1138175Y696468D01*
X1138172Y696488D01*
X1138174Y696507D01*
X1138152Y696609D01*
X1138136Y696711D01*
X1138126Y696728D01*
X1138122Y696748D01*
X1138069Y696837D01*
X1138020Y696928D01*
X1138006Y696942D01*
X1137996Y696959D01*
X1137917Y697026D01*
X1137842Y697098D01*
X1137824Y697106D01*
X1137809Y697119D01*
X1137713Y697158D01*
X1137619Y697201D01*
X1137599Y697203D01*
X1137581Y697211D01*
X1137414Y697229D01*
X1067377Y697229D01*
X1061240Y703366D01*
X1061182Y703408D01*
X1061130Y703457D01*
X1061083Y703479D01*
X1061041Y703509D01*
X1060972Y703530D01*
X1060907Y703561D01*
X1060855Y703566D01*
X1060805Y703582D01*
X1060734Y703580D01*
X1060663Y703588D01*
X1060612Y703577D01*
X1060560Y703575D01*
X1060492Y703551D01*
X1060422Y703536D01*
X1060377Y703509D01*
X1060329Y703491D01*
X1060273Y703446D01*
X1060211Y703409D01*
X1060177Y703370D01*
X1060137Y703337D01*
X1060098Y703277D01*
X1060051Y703222D01*
X1060032Y703174D01*
X1060004Y703130D01*
X1059986Y703061D01*
X1059959Y702994D01*
X1059951Y702923D01*
X1059943Y702892D01*
X1059945Y702868D01*
X1059941Y702828D01*
X1059941Y700023D01*
X1052423Y700023D01*
X1052423Y708541D01*
X1054228Y708541D01*
X1054298Y708552D01*
G37*
%LPD*%
%LPC*%
G36*
X920028Y584875D02*
X920028Y584875D01*
X919135Y585768D01*
X919135Y604363D01*
X919121Y604454D01*
X919113Y604544D01*
X919101Y604574D01*
X919096Y604606D01*
X919053Y604687D01*
X919017Y604771D01*
X918991Y604803D01*
X918980Y604824D01*
X918957Y604846D01*
X918912Y604902D01*
X878585Y645229D01*
X878585Y688714D01*
X878584Y688724D01*
X878584Y688729D01*
X878582Y688738D01*
X878584Y688753D01*
X878562Y688855D01*
X878546Y688957D01*
X878536Y688974D01*
X878532Y688994D01*
X878479Y689083D01*
X878430Y689174D01*
X878416Y689188D01*
X878406Y689205D01*
X878327Y689272D01*
X878252Y689344D01*
X878234Y689352D01*
X878219Y689365D01*
X878123Y689404D01*
X878029Y689447D01*
X878009Y689449D01*
X877991Y689457D01*
X877824Y689475D01*
X872368Y689475D01*
X871475Y690368D01*
X871475Y706632D01*
X872368Y707525D01*
X886632Y707525D01*
X887525Y706632D01*
X887525Y690368D01*
X886632Y689475D01*
X883920Y689475D01*
X883900Y689472D01*
X883881Y689474D01*
X883779Y689452D01*
X883677Y689436D01*
X883660Y689426D01*
X883640Y689422D01*
X883551Y689369D01*
X883460Y689320D01*
X883446Y689306D01*
X883429Y689296D01*
X883362Y689217D01*
X883290Y689142D01*
X883282Y689124D01*
X883269Y689109D01*
X883230Y689013D01*
X883187Y688919D01*
X883185Y688899D01*
X883177Y688881D01*
X883159Y688714D01*
X883159Y647439D01*
X883173Y647348D01*
X883181Y647258D01*
X883193Y647228D01*
X883198Y647196D01*
X883241Y647115D01*
X883277Y647031D01*
X883303Y646999D01*
X883314Y646978D01*
X883337Y646956D01*
X883382Y646900D01*
X921134Y609148D01*
X921208Y609095D01*
X921278Y609035D01*
X921308Y609023D01*
X921334Y609004D01*
X921421Y608977D01*
X921506Y608943D01*
X921547Y608939D01*
X921569Y608932D01*
X921601Y608933D01*
X921673Y608925D01*
X939132Y608925D01*
X939222Y608939D01*
X939313Y608947D01*
X939342Y608959D01*
X939374Y608964D01*
X939455Y609007D01*
X939539Y609043D01*
X939571Y609069D01*
X939592Y609080D01*
X939614Y609103D01*
X939670Y609148D01*
X1023652Y693130D01*
X1023705Y693204D01*
X1023765Y693274D01*
X1023777Y693304D01*
X1023796Y693330D01*
X1023823Y693417D01*
X1023857Y693502D01*
X1023861Y693543D01*
X1023868Y693565D01*
X1023867Y693597D01*
X1023875Y693668D01*
X1023875Y706632D01*
X1024768Y707525D01*
X1039032Y707525D01*
X1039925Y706632D01*
X1039925Y694889D01*
X1039939Y694799D01*
X1039947Y694708D01*
X1039959Y694678D01*
X1039964Y694646D01*
X1040007Y694565D01*
X1040043Y694481D01*
X1040069Y694449D01*
X1040080Y694428D01*
X1040103Y694406D01*
X1040148Y694350D01*
X1040560Y693938D01*
X1040618Y693896D01*
X1040670Y693847D01*
X1040717Y693825D01*
X1040759Y693795D01*
X1040828Y693774D01*
X1040893Y693743D01*
X1040945Y693738D01*
X1040995Y693722D01*
X1041066Y693724D01*
X1041137Y693716D01*
X1041188Y693727D01*
X1041240Y693729D01*
X1041308Y693753D01*
X1041378Y693768D01*
X1041423Y693795D01*
X1041471Y693813D01*
X1041527Y693858D01*
X1041589Y693895D01*
X1041623Y693934D01*
X1041663Y693967D01*
X1041702Y694027D01*
X1041749Y694082D01*
X1041768Y694130D01*
X1041796Y694174D01*
X1041814Y694243D01*
X1041841Y694310D01*
X1041849Y694381D01*
X1041857Y694412D01*
X1041855Y694436D01*
X1041859Y694476D01*
X1041859Y696977D01*
X1049377Y696977D01*
X1049377Y688459D01*
X1047876Y688459D01*
X1047806Y688448D01*
X1047734Y688446D01*
X1047685Y688428D01*
X1047634Y688420D01*
X1047570Y688386D01*
X1047503Y688361D01*
X1047462Y688329D01*
X1047416Y688304D01*
X1047367Y688252D01*
X1047311Y688208D01*
X1047283Y688164D01*
X1047247Y688126D01*
X1047217Y688061D01*
X1047178Y688001D01*
X1047165Y687950D01*
X1047143Y687903D01*
X1047135Y687832D01*
X1047118Y687762D01*
X1047122Y687710D01*
X1047116Y687659D01*
X1047131Y687588D01*
X1047137Y687517D01*
X1047157Y687469D01*
X1047168Y687418D01*
X1047205Y687357D01*
X1047233Y687291D01*
X1047278Y687235D01*
X1047295Y687207D01*
X1047312Y687192D01*
X1047338Y687160D01*
X1134580Y599918D01*
X1134654Y599865D01*
X1134724Y599805D01*
X1134754Y599793D01*
X1134780Y599774D01*
X1134867Y599747D01*
X1134952Y599713D01*
X1134993Y599709D01*
X1135015Y599702D01*
X1135047Y599703D01*
X1135119Y599695D01*
X1137414Y599695D01*
X1137434Y599698D01*
X1137453Y599696D01*
X1137555Y599718D01*
X1137657Y599734D01*
X1137674Y599744D01*
X1137694Y599748D01*
X1137783Y599801D01*
X1137874Y599850D01*
X1137888Y599864D01*
X1137905Y599874D01*
X1137972Y599953D01*
X1138044Y600028D01*
X1138052Y600046D01*
X1138065Y600061D01*
X1138104Y600157D01*
X1138147Y600251D01*
X1138149Y600271D01*
X1138157Y600289D01*
X1138175Y600456D01*
X1138175Y605032D01*
X1139068Y605925D01*
X1152539Y605925D01*
X1152630Y605939D01*
X1152720Y605947D01*
X1152750Y605959D01*
X1152782Y605964D01*
X1152863Y606007D01*
X1152947Y606043D01*
X1152979Y606069D01*
X1153000Y606080D01*
X1153022Y606103D01*
X1153078Y606148D01*
X1171009Y624079D01*
X1191326Y624079D01*
X1191440Y624098D01*
X1191557Y624115D01*
X1191562Y624117D01*
X1191568Y624118D01*
X1191671Y624173D01*
X1191776Y624226D01*
X1191780Y624231D01*
X1191786Y624234D01*
X1191865Y624317D01*
X1191948Y624402D01*
X1191952Y624408D01*
X1191955Y624412D01*
X1191963Y624429D01*
X1192029Y624549D01*
X1193005Y626905D01*
X1195291Y629191D01*
X1198279Y630429D01*
X1214721Y630429D01*
X1217709Y629191D01*
X1219995Y626905D01*
X1221233Y623917D01*
X1221233Y620683D01*
X1219995Y617695D01*
X1217709Y615409D01*
X1214721Y614171D01*
X1198279Y614171D01*
X1195291Y615409D01*
X1193005Y617695D01*
X1192450Y619035D01*
X1192388Y619135D01*
X1192328Y619235D01*
X1192323Y619239D01*
X1192320Y619244D01*
X1192230Y619319D01*
X1192141Y619395D01*
X1192136Y619397D01*
X1192131Y619401D01*
X1192022Y619443D01*
X1191913Y619487D01*
X1191906Y619488D01*
X1191901Y619489D01*
X1191883Y619490D01*
X1191746Y619505D01*
X1173219Y619505D01*
X1173128Y619491D01*
X1173038Y619483D01*
X1173008Y619471D01*
X1172976Y619466D01*
X1172895Y619423D01*
X1172811Y619387D01*
X1172779Y619361D01*
X1172758Y619350D01*
X1172736Y619327D01*
X1172680Y619282D01*
X1161638Y608240D01*
X1161596Y608182D01*
X1161547Y608130D01*
X1161525Y608083D01*
X1161495Y608041D01*
X1161474Y607972D01*
X1161443Y607907D01*
X1161438Y607855D01*
X1161422Y607805D01*
X1161424Y607734D01*
X1161416Y607663D01*
X1161427Y607612D01*
X1161429Y607560D01*
X1161453Y607492D01*
X1161468Y607422D01*
X1161495Y607377D01*
X1161513Y607329D01*
X1161558Y607273D01*
X1161595Y607211D01*
X1161634Y607177D01*
X1161667Y607137D01*
X1161727Y607098D01*
X1161782Y607051D01*
X1161830Y607032D01*
X1161874Y607004D01*
X1161943Y606986D01*
X1162010Y606959D01*
X1162081Y606951D01*
X1162112Y606943D01*
X1162136Y606945D01*
X1162176Y606941D01*
X1163677Y606941D01*
X1163677Y598423D01*
X1156159Y598423D01*
X1156159Y600924D01*
X1156148Y600994D01*
X1156146Y601066D01*
X1156128Y601115D01*
X1156120Y601166D01*
X1156086Y601230D01*
X1156061Y601297D01*
X1156029Y601338D01*
X1156004Y601384D01*
X1155953Y601433D01*
X1155908Y601489D01*
X1155864Y601517D01*
X1155826Y601553D01*
X1155761Y601583D01*
X1155701Y601622D01*
X1155650Y601635D01*
X1155603Y601657D01*
X1155532Y601665D01*
X1155462Y601682D01*
X1155410Y601678D01*
X1155359Y601684D01*
X1155288Y601669D01*
X1155217Y601663D01*
X1155169Y601643D01*
X1155118Y601632D01*
X1155057Y601595D01*
X1154991Y601567D01*
X1154935Y601522D01*
X1154907Y601505D01*
X1154892Y601488D01*
X1154860Y601462D01*
X1154448Y601050D01*
X1154394Y600976D01*
X1154335Y600906D01*
X1154323Y600876D01*
X1154304Y600850D01*
X1154277Y600763D01*
X1154243Y600678D01*
X1154239Y600637D01*
X1154232Y600615D01*
X1154233Y600583D01*
X1154225Y600511D01*
X1154225Y588768D01*
X1153332Y587875D01*
X1139068Y587875D01*
X1138175Y588768D01*
X1138175Y594360D01*
X1138172Y594380D01*
X1138174Y594399D01*
X1138152Y594501D01*
X1138136Y594603D01*
X1138126Y594620D01*
X1138122Y594640D01*
X1138069Y594729D01*
X1138020Y594820D01*
X1138006Y594834D01*
X1137996Y594851D01*
X1137917Y594918D01*
X1137842Y594990D01*
X1137824Y594998D01*
X1137809Y595011D01*
X1137713Y595050D01*
X1137619Y595093D01*
X1137599Y595095D01*
X1137581Y595103D01*
X1137414Y595121D01*
X1132909Y595121D01*
X1038778Y689252D01*
X1038704Y689305D01*
X1038634Y689365D01*
X1038604Y689377D01*
X1038578Y689396D01*
X1038491Y689423D01*
X1038406Y689457D01*
X1038365Y689461D01*
X1038343Y689468D01*
X1038311Y689467D01*
X1038239Y689475D01*
X1026780Y689475D01*
X1026690Y689461D01*
X1026599Y689453D01*
X1026570Y689441D01*
X1026538Y689436D01*
X1026457Y689393D01*
X1026373Y689357D01*
X1026341Y689331D01*
X1026320Y689320D01*
X1026299Y689298D01*
X1026296Y689296D01*
X1026293Y689293D01*
X1026242Y689252D01*
X942408Y605418D01*
X942355Y605344D01*
X942295Y605274D01*
X942283Y605244D01*
X942264Y605218D01*
X942237Y605131D01*
X942203Y605046D01*
X942199Y605005D01*
X942192Y604983D01*
X942193Y604951D01*
X942185Y604880D01*
X942185Y585768D01*
X941292Y584875D01*
X920028Y584875D01*
G37*
%LPD*%
%LPC*%
G36*
X421246Y183387D02*
X421246Y183387D01*
X409193Y195440D01*
X409193Y212484D01*
X421246Y224537D01*
X426720Y224537D01*
X426740Y224540D01*
X426759Y224538D01*
X426861Y224560D01*
X426963Y224576D01*
X426980Y224586D01*
X427000Y224590D01*
X427089Y224643D01*
X427180Y224692D01*
X427194Y224706D01*
X427211Y224716D01*
X427278Y224795D01*
X427350Y224870D01*
X427358Y224888D01*
X427371Y224903D01*
X427410Y224999D01*
X427453Y225093D01*
X427455Y225113D01*
X427463Y225131D01*
X427481Y225298D01*
X427481Y282702D01*
X427478Y282722D01*
X427480Y282741D01*
X427458Y282843D01*
X427442Y282945D01*
X427432Y282962D01*
X427428Y282982D01*
X427375Y283071D01*
X427326Y283162D01*
X427312Y283176D01*
X427302Y283193D01*
X427223Y283260D01*
X427148Y283332D01*
X427130Y283340D01*
X427115Y283353D01*
X427019Y283392D01*
X426925Y283435D01*
X426905Y283437D01*
X426887Y283445D01*
X426720Y283463D01*
X421246Y283463D01*
X409193Y295516D01*
X409193Y312560D01*
X421246Y324613D01*
X438290Y324613D01*
X450343Y312560D01*
X450343Y295516D01*
X438290Y283463D01*
X432816Y283463D01*
X432796Y283460D01*
X432777Y283462D01*
X432675Y283440D01*
X432573Y283424D01*
X432556Y283414D01*
X432536Y283410D01*
X432447Y283357D01*
X432356Y283308D01*
X432342Y283294D01*
X432325Y283284D01*
X432258Y283205D01*
X432186Y283130D01*
X432178Y283112D01*
X432165Y283097D01*
X432126Y283001D01*
X432083Y282907D01*
X432081Y282887D01*
X432073Y282869D01*
X432055Y282702D01*
X432055Y225298D01*
X432058Y225278D01*
X432056Y225259D01*
X432078Y225157D01*
X432094Y225055D01*
X432104Y225038D01*
X432108Y225018D01*
X432161Y224929D01*
X432210Y224838D01*
X432224Y224824D01*
X432234Y224807D01*
X432313Y224740D01*
X432388Y224668D01*
X432406Y224660D01*
X432421Y224647D01*
X432517Y224608D01*
X432611Y224565D01*
X432631Y224563D01*
X432649Y224555D01*
X432816Y224537D01*
X438290Y224537D01*
X450343Y212484D01*
X450343Y195440D01*
X438290Y183387D01*
X421246Y183387D01*
G37*
%LPD*%
%LPC*%
G36*
X1147568Y744475D02*
X1147568Y744475D01*
X1146675Y745368D01*
X1146675Y759632D01*
X1147568Y760525D01*
X1163832Y760525D01*
X1164725Y759632D01*
X1164725Y755904D01*
X1164728Y755884D01*
X1164726Y755865D01*
X1164748Y755763D01*
X1164764Y755661D01*
X1164774Y755644D01*
X1164778Y755624D01*
X1164831Y755535D01*
X1164880Y755444D01*
X1164894Y755430D01*
X1164904Y755413D01*
X1164983Y755346D01*
X1165058Y755274D01*
X1165076Y755266D01*
X1165091Y755253D01*
X1165187Y755214D01*
X1165281Y755171D01*
X1165301Y755169D01*
X1165319Y755161D01*
X1165486Y755143D01*
X1323093Y755143D01*
X1323184Y755157D01*
X1323274Y755165D01*
X1323304Y755177D01*
X1323336Y755182D01*
X1323417Y755225D01*
X1323501Y755261D01*
X1323533Y755287D01*
X1323554Y755298D01*
X1323576Y755321D01*
X1323632Y755366D01*
X1326749Y758483D01*
X1326817Y758578D01*
X1326887Y758672D01*
X1326889Y758678D01*
X1326893Y758683D01*
X1326927Y758794D01*
X1326963Y758906D01*
X1326963Y758912D01*
X1326965Y758918D01*
X1326962Y759035D01*
X1326961Y759152D01*
X1326959Y759159D01*
X1326959Y759164D01*
X1326952Y759181D01*
X1326914Y759313D01*
X1326387Y760585D01*
X1326387Y763415D01*
X1327470Y766029D01*
X1329471Y768030D01*
X1332085Y769113D01*
X1334915Y769113D01*
X1336187Y768586D01*
X1336301Y768559D01*
X1336414Y768530D01*
X1336421Y768531D01*
X1336427Y768530D01*
X1336543Y768541D01*
X1336660Y768550D01*
X1336665Y768552D01*
X1336672Y768553D01*
X1336779Y768600D01*
X1336886Y768646D01*
X1336892Y768651D01*
X1336896Y768653D01*
X1336910Y768665D01*
X1337017Y768751D01*
X1393474Y825208D01*
X1393521Y825273D01*
X1393534Y825287D01*
X1393537Y825293D01*
X1393587Y825352D01*
X1393599Y825382D01*
X1393618Y825408D01*
X1393645Y825495D01*
X1393679Y825580D01*
X1393683Y825621D01*
X1393690Y825643D01*
X1393689Y825675D01*
X1393697Y825747D01*
X1393697Y867889D01*
X1393678Y868004D01*
X1393661Y868120D01*
X1393659Y868126D01*
X1393658Y868132D01*
X1393603Y868234D01*
X1393550Y868339D01*
X1393545Y868344D01*
X1393542Y868349D01*
X1393458Y868429D01*
X1393374Y868511D01*
X1393368Y868515D01*
X1393364Y868518D01*
X1393347Y868526D01*
X1393227Y868592D01*
X1392148Y869039D01*
X1389739Y871448D01*
X1388435Y874596D01*
X1388435Y878004D01*
X1389739Y881152D01*
X1392148Y883561D01*
X1395296Y884865D01*
X1398704Y884865D01*
X1401852Y883561D01*
X1404261Y881152D01*
X1405565Y878004D01*
X1405565Y874596D01*
X1404261Y871448D01*
X1401852Y869039D01*
X1398741Y867751D01*
X1398641Y867689D01*
X1398541Y867629D01*
X1398537Y867624D01*
X1398532Y867621D01*
X1398457Y867531D01*
X1398381Y867442D01*
X1398379Y867436D01*
X1398375Y867432D01*
X1398333Y867323D01*
X1398289Y867214D01*
X1398288Y867206D01*
X1398287Y867202D01*
X1398286Y867184D01*
X1398271Y867047D01*
X1398271Y823537D01*
X1340251Y765517D01*
X1340183Y765422D01*
X1340113Y765328D01*
X1340111Y765322D01*
X1340107Y765317D01*
X1340073Y765206D01*
X1340037Y765094D01*
X1340037Y765088D01*
X1340035Y765082D01*
X1340038Y764965D01*
X1340039Y764848D01*
X1340041Y764841D01*
X1340041Y764836D01*
X1340048Y764819D01*
X1340086Y764687D01*
X1340613Y763415D01*
X1340613Y760585D01*
X1339530Y757971D01*
X1337529Y755970D01*
X1334915Y754887D01*
X1332085Y754887D01*
X1330813Y755414D01*
X1330699Y755441D01*
X1330586Y755470D01*
X1330579Y755469D01*
X1330573Y755470D01*
X1330457Y755459D01*
X1330340Y755450D01*
X1330335Y755448D01*
X1330328Y755447D01*
X1330221Y755400D01*
X1330114Y755354D01*
X1330108Y755349D01*
X1330104Y755347D01*
X1330090Y755335D01*
X1329983Y755249D01*
X1325303Y750569D01*
X1165486Y750569D01*
X1165466Y750566D01*
X1165447Y750568D01*
X1165345Y750546D01*
X1165243Y750530D01*
X1165226Y750520D01*
X1165206Y750516D01*
X1165117Y750463D01*
X1165026Y750414D01*
X1165012Y750400D01*
X1164995Y750390D01*
X1164928Y750311D01*
X1164856Y750236D01*
X1164848Y750218D01*
X1164835Y750203D01*
X1164796Y750107D01*
X1164753Y750013D01*
X1164751Y749993D01*
X1164743Y749975D01*
X1164725Y749808D01*
X1164725Y745368D01*
X1163832Y744475D01*
X1147568Y744475D01*
G37*
%LPD*%
%LPC*%
G36*
X1147568Y763475D02*
X1147568Y763475D01*
X1146675Y764368D01*
X1146675Y769620D01*
X1146672Y769640D01*
X1146674Y769659D01*
X1146652Y769761D01*
X1146636Y769863D01*
X1146626Y769880D01*
X1146622Y769900D01*
X1146569Y769989D01*
X1146520Y770080D01*
X1146506Y770094D01*
X1146496Y770111D01*
X1146417Y770178D01*
X1146342Y770250D01*
X1146324Y770258D01*
X1146309Y770271D01*
X1146213Y770310D01*
X1146119Y770353D01*
X1146099Y770355D01*
X1146081Y770363D01*
X1145914Y770381D01*
X1059686Y770381D01*
X1059666Y770378D01*
X1059647Y770380D01*
X1059545Y770358D01*
X1059443Y770342D01*
X1059426Y770332D01*
X1059406Y770328D01*
X1059317Y770275D01*
X1059226Y770226D01*
X1059212Y770212D01*
X1059195Y770202D01*
X1059128Y770123D01*
X1059056Y770048D01*
X1059048Y770030D01*
X1059035Y770015D01*
X1058996Y769919D01*
X1058953Y769825D01*
X1058951Y769805D01*
X1058943Y769787D01*
X1058925Y769620D01*
X1058925Y766068D01*
X1058032Y765175D01*
X1043768Y765175D01*
X1042875Y766068D01*
X1042875Y783332D01*
X1043768Y784225D01*
X1058032Y784225D01*
X1058925Y783332D01*
X1058925Y775716D01*
X1058928Y775696D01*
X1058926Y775677D01*
X1058948Y775575D01*
X1058964Y775473D01*
X1058974Y775456D01*
X1058978Y775436D01*
X1059031Y775347D01*
X1059080Y775256D01*
X1059094Y775242D01*
X1059104Y775225D01*
X1059183Y775158D01*
X1059258Y775086D01*
X1059276Y775078D01*
X1059291Y775065D01*
X1059387Y775026D01*
X1059481Y774983D01*
X1059501Y774981D01*
X1059519Y774973D01*
X1059686Y774955D01*
X1075944Y774955D01*
X1075964Y774958D01*
X1075983Y774956D01*
X1076085Y774978D01*
X1076187Y774994D01*
X1076204Y775004D01*
X1076224Y775008D01*
X1076313Y775061D01*
X1076404Y775110D01*
X1076418Y775124D01*
X1076435Y775134D01*
X1076502Y775213D01*
X1076574Y775288D01*
X1076582Y775306D01*
X1076595Y775321D01*
X1076634Y775417D01*
X1076677Y775511D01*
X1076679Y775531D01*
X1076687Y775549D01*
X1076705Y775716D01*
X1076705Y867679D01*
X1076686Y867793D01*
X1076669Y867909D01*
X1076667Y867915D01*
X1076666Y867921D01*
X1076611Y868024D01*
X1076558Y868129D01*
X1076553Y868133D01*
X1076550Y868139D01*
X1076466Y868219D01*
X1076382Y868301D01*
X1076376Y868305D01*
X1076372Y868308D01*
X1076355Y868316D01*
X1076235Y868382D01*
X1074648Y869039D01*
X1072239Y871448D01*
X1070935Y874596D01*
X1070935Y878004D01*
X1072239Y881152D01*
X1074648Y883561D01*
X1077796Y884865D01*
X1081204Y884865D01*
X1084352Y883561D01*
X1086761Y881152D01*
X1088065Y878004D01*
X1088065Y874596D01*
X1086761Y871448D01*
X1084352Y869039D01*
X1081749Y867961D01*
X1081649Y867899D01*
X1081549Y867840D01*
X1081545Y867835D01*
X1081540Y867831D01*
X1081465Y867741D01*
X1081389Y867653D01*
X1081387Y867647D01*
X1081383Y867642D01*
X1081341Y867534D01*
X1081297Y867424D01*
X1081296Y867417D01*
X1081295Y867412D01*
X1081294Y867394D01*
X1081279Y867258D01*
X1081279Y775716D01*
X1081282Y775696D01*
X1081280Y775677D01*
X1081302Y775575D01*
X1081318Y775473D01*
X1081328Y775456D01*
X1081332Y775436D01*
X1081385Y775347D01*
X1081434Y775256D01*
X1081448Y775242D01*
X1081458Y775225D01*
X1081537Y775158D01*
X1081612Y775086D01*
X1081630Y775078D01*
X1081645Y775065D01*
X1081741Y775026D01*
X1081835Y774983D01*
X1081855Y774981D01*
X1081873Y774973D01*
X1082040Y774955D01*
X1145914Y774955D01*
X1145934Y774958D01*
X1145953Y774956D01*
X1146055Y774978D01*
X1146157Y774994D01*
X1146174Y775004D01*
X1146194Y775008D01*
X1146283Y775061D01*
X1146374Y775110D01*
X1146388Y775124D01*
X1146405Y775134D01*
X1146472Y775213D01*
X1146544Y775288D01*
X1146552Y775306D01*
X1146565Y775321D01*
X1146604Y775417D01*
X1146647Y775511D01*
X1146649Y775531D01*
X1146657Y775549D01*
X1146675Y775716D01*
X1146675Y778632D01*
X1147568Y779525D01*
X1163832Y779525D01*
X1164725Y778632D01*
X1164725Y764368D01*
X1163832Y763475D01*
X1147568Y763475D01*
G37*
%LPD*%
%LPC*%
G36*
X171310Y333501D02*
X171310Y333501D01*
X159257Y345554D01*
X159257Y362598D01*
X171310Y374651D01*
X188354Y374651D01*
X200407Y362598D01*
X200407Y345554D01*
X188354Y333501D01*
X171310Y333501D01*
G37*
%LPD*%
%LPC*%
G36*
X532349Y557275D02*
X532349Y557275D01*
X527120Y559441D01*
X523119Y563442D01*
X520953Y568671D01*
X520953Y599729D01*
X523119Y604958D01*
X527120Y608959D01*
X532349Y611125D01*
X538007Y611125D01*
X543236Y608959D01*
X547237Y604958D01*
X549403Y599729D01*
X549403Y568671D01*
X547237Y563442D01*
X543236Y559441D01*
X538007Y557275D01*
X532349Y557275D01*
G37*
%LPD*%
%LPC*%
G36*
X580190Y906939D02*
X580190Y906939D01*
X572780Y910009D01*
X567109Y915680D01*
X564039Y923090D01*
X564039Y931110D01*
X567109Y938520D01*
X572780Y944191D01*
X580190Y947261D01*
X588210Y947261D01*
X595620Y944191D01*
X601291Y938520D01*
X604361Y931110D01*
X604361Y923090D01*
X601291Y915680D01*
X595620Y910009D01*
X588210Y906939D01*
X580190Y906939D01*
G37*
%LPD*%
%LPC*%
G36*
X275390Y906939D02*
X275390Y906939D01*
X267980Y910009D01*
X262309Y915680D01*
X259239Y923090D01*
X259239Y931110D01*
X262309Y938520D01*
X267980Y944191D01*
X275390Y947261D01*
X283410Y947261D01*
X290820Y944191D01*
X296491Y938520D01*
X299561Y931110D01*
X299561Y923090D01*
X296491Y915680D01*
X290820Y910009D01*
X283410Y906939D01*
X275390Y906939D01*
G37*
%LPD*%
%LPC*%
G36*
X821490Y906939D02*
X821490Y906939D01*
X814080Y910009D01*
X808409Y915680D01*
X805339Y923090D01*
X805339Y931110D01*
X808409Y938520D01*
X814080Y944191D01*
X821490Y947261D01*
X829510Y947261D01*
X836920Y944191D01*
X842591Y938520D01*
X845661Y931110D01*
X845661Y923090D01*
X842591Y915680D01*
X836920Y910009D01*
X829510Y906939D01*
X821490Y906939D01*
G37*
%LPD*%
%LPC*%
G36*
X1024690Y906939D02*
X1024690Y906939D01*
X1017280Y910009D01*
X1011609Y915680D01*
X1008539Y923090D01*
X1008539Y931110D01*
X1011609Y938520D01*
X1017280Y944191D01*
X1024690Y947261D01*
X1032710Y947261D01*
X1040120Y944191D01*
X1045791Y938520D01*
X1048861Y931110D01*
X1048861Y923090D01*
X1045791Y915680D01*
X1040120Y910009D01*
X1032710Y906939D01*
X1024690Y906939D01*
G37*
%LPD*%
%LPC*%
G36*
X923090Y906939D02*
X923090Y906939D01*
X915680Y910009D01*
X910009Y915680D01*
X906939Y923090D01*
X906939Y931110D01*
X910009Y938520D01*
X915680Y944191D01*
X923090Y947261D01*
X931110Y947261D01*
X938520Y944191D01*
X944191Y938520D01*
X947261Y931110D01*
X947261Y923090D01*
X944191Y915680D01*
X938520Y910009D01*
X931110Y906939D01*
X923090Y906939D01*
G37*
%LPD*%
%LPC*%
G36*
X1342190Y906939D02*
X1342190Y906939D01*
X1334780Y910009D01*
X1329109Y915680D01*
X1326039Y923090D01*
X1326039Y931110D01*
X1329109Y938520D01*
X1334780Y944191D01*
X1342190Y947261D01*
X1350210Y947261D01*
X1357620Y944191D01*
X1363291Y938520D01*
X1366361Y931110D01*
X1366361Y923090D01*
X1363291Y915680D01*
X1357620Y910009D01*
X1350210Y906939D01*
X1342190Y906939D01*
G37*
%LPD*%
%LPC*%
G36*
X1443790Y906939D02*
X1443790Y906939D01*
X1436380Y910009D01*
X1430709Y915680D01*
X1427639Y923090D01*
X1427639Y931110D01*
X1430709Y938520D01*
X1436380Y944191D01*
X1443790Y947261D01*
X1451810Y947261D01*
X1459220Y944191D01*
X1464891Y938520D01*
X1467961Y931110D01*
X1467961Y923090D01*
X1464891Y915680D01*
X1459220Y910009D01*
X1451810Y906939D01*
X1443790Y906939D01*
G37*
%LPD*%
%LPC*%
G36*
X1126290Y906939D02*
X1126290Y906939D01*
X1118880Y910009D01*
X1113209Y915680D01*
X1110139Y923090D01*
X1110139Y931110D01*
X1113209Y938520D01*
X1118880Y944191D01*
X1126290Y947261D01*
X1134310Y947261D01*
X1141720Y944191D01*
X1147391Y938520D01*
X1150461Y931110D01*
X1150461Y923090D01*
X1147391Y915680D01*
X1141720Y910009D01*
X1134310Y906939D01*
X1126290Y906939D01*
G37*
%LPD*%
%LPC*%
G36*
X683808Y164274D02*
X683808Y164274D01*
X678836Y166333D01*
X675032Y170138D01*
X672972Y175109D01*
X672972Y180491D01*
X675032Y185462D01*
X678836Y189267D01*
X683808Y191326D01*
X713192Y191326D01*
X718164Y189267D01*
X721968Y185462D01*
X724028Y180491D01*
X724028Y175109D01*
X721968Y170138D01*
X718164Y166333D01*
X713192Y164274D01*
X683808Y164274D01*
G37*
%LPD*%
G36*
X571539Y783119D02*
X571539Y783119D01*
X571642Y783122D01*
X571661Y783129D01*
X571681Y783130D01*
X571776Y783171D01*
X571873Y783206D01*
X571889Y783219D01*
X571907Y783227D01*
X572038Y783331D01*
X573448Y784741D01*
X576580Y784741D01*
X576600Y784744D01*
X576619Y784742D01*
X576721Y784764D01*
X576823Y784780D01*
X576840Y784790D01*
X576860Y784794D01*
X576949Y784847D01*
X577040Y784896D01*
X577054Y784910D01*
X577071Y784920D01*
X577138Y784999D01*
X577210Y785074D01*
X577218Y785092D01*
X577231Y785107D01*
X577270Y785203D01*
X577313Y785297D01*
X577315Y785317D01*
X577323Y785335D01*
X577341Y785502D01*
X577341Y841089D01*
X577327Y841179D01*
X577319Y841270D01*
X577307Y841299D01*
X577302Y841331D01*
X577259Y841412D01*
X577223Y841496D01*
X577197Y841528D01*
X577186Y841549D01*
X577163Y841571D01*
X577118Y841627D01*
X544188Y874558D01*
X544150Y874584D01*
X544119Y874618D01*
X544051Y874656D01*
X543988Y874701D01*
X543944Y874715D01*
X543904Y874737D01*
X543827Y874751D01*
X543753Y874773D01*
X543707Y874772D01*
X543662Y874780D01*
X543585Y874769D01*
X543507Y874767D01*
X543464Y874751D01*
X543418Y874745D01*
X543349Y874709D01*
X543276Y874683D01*
X543240Y874654D01*
X543199Y874633D01*
X543145Y874578D01*
X543084Y874529D01*
X543059Y874490D01*
X543027Y874458D01*
X542961Y874338D01*
X542951Y874322D01*
X542950Y874317D01*
X542946Y874311D01*
X542295Y872740D01*
X542269Y872626D01*
X542240Y872513D01*
X542241Y872507D01*
X542239Y872500D01*
X542250Y872384D01*
X542259Y872268D01*
X542262Y872262D01*
X542262Y872256D01*
X542310Y872148D01*
X542356Y872041D01*
X542360Y872035D01*
X542362Y872031D01*
X542375Y872017D01*
X542460Y871910D01*
X564135Y850236D01*
X564135Y785502D01*
X564138Y785482D01*
X564136Y785463D01*
X564158Y785361D01*
X564174Y785259D01*
X564184Y785242D01*
X564188Y785222D01*
X564241Y785133D01*
X564290Y785042D01*
X564304Y785028D01*
X564314Y785011D01*
X564393Y784944D01*
X564468Y784872D01*
X564486Y784864D01*
X564501Y784851D01*
X564597Y784812D01*
X564691Y784769D01*
X564711Y784767D01*
X564729Y784759D01*
X564896Y784741D01*
X569552Y784741D01*
X570962Y783331D01*
X570978Y783320D01*
X570990Y783304D01*
X571078Y783248D01*
X571161Y783188D01*
X571180Y783182D01*
X571197Y783171D01*
X571298Y783146D01*
X571397Y783116D01*
X571416Y783116D01*
X571436Y783111D01*
X571539Y783119D01*
G37*
%LPC*%
G36*
X60584Y366339D02*
X60584Y366339D01*
X55195Y368571D01*
X51071Y372695D01*
X48839Y378084D01*
X48839Y383916D01*
X51071Y389305D01*
X55195Y393429D01*
X60584Y395661D01*
X66416Y395661D01*
X71805Y393429D01*
X75929Y389305D01*
X78161Y383916D01*
X78161Y378084D01*
X75929Y372695D01*
X71805Y368571D01*
X66416Y366339D01*
X60584Y366339D01*
G37*
%LPD*%
%LPC*%
G36*
X47884Y36139D02*
X47884Y36139D01*
X42495Y38371D01*
X38371Y42495D01*
X36139Y47884D01*
X36139Y53716D01*
X38371Y59105D01*
X42495Y63229D01*
X47884Y65461D01*
X53716Y65461D01*
X59105Y63229D01*
X63229Y59105D01*
X65461Y53716D01*
X65461Y47884D01*
X63229Y42495D01*
X59105Y38371D01*
X53716Y36139D01*
X47884Y36139D01*
G37*
%LPD*%
%LPC*%
G36*
X568584Y86939D02*
X568584Y86939D01*
X563195Y89171D01*
X559071Y93295D01*
X556839Y98684D01*
X556839Y104516D01*
X559071Y109905D01*
X563195Y114029D01*
X568584Y116261D01*
X574416Y116261D01*
X579805Y114029D01*
X583929Y109905D01*
X586161Y104516D01*
X586161Y98684D01*
X583929Y93295D01*
X579805Y89171D01*
X574416Y86939D01*
X568584Y86939D01*
G37*
%LPD*%
%LPC*%
G36*
X1546484Y36139D02*
X1546484Y36139D01*
X1541095Y38371D01*
X1536971Y42495D01*
X1534739Y47884D01*
X1534739Y53716D01*
X1536971Y59105D01*
X1541095Y63229D01*
X1546484Y65461D01*
X1552316Y65461D01*
X1557705Y63229D01*
X1561829Y59105D01*
X1564061Y53716D01*
X1564061Y47884D01*
X1561829Y42495D01*
X1557705Y38371D01*
X1552316Y36139D01*
X1546484Y36139D01*
G37*
%LPD*%
%LPC*%
G36*
X1546484Y925139D02*
X1546484Y925139D01*
X1541095Y927371D01*
X1536971Y931495D01*
X1534739Y936884D01*
X1534739Y942716D01*
X1536971Y948105D01*
X1541095Y952229D01*
X1546484Y954461D01*
X1552316Y954461D01*
X1557705Y952229D01*
X1561829Y948105D01*
X1564061Y942716D01*
X1564061Y936884D01*
X1561829Y931495D01*
X1557705Y927371D01*
X1552316Y925139D01*
X1546484Y925139D01*
G37*
%LPD*%
%LPC*%
G36*
X35184Y950539D02*
X35184Y950539D01*
X29795Y952771D01*
X25671Y956895D01*
X23439Y962284D01*
X23439Y968116D01*
X25671Y973505D01*
X29795Y977629D01*
X35184Y979861D01*
X41016Y979861D01*
X46405Y977629D01*
X50529Y973505D01*
X52761Y968116D01*
X52761Y962284D01*
X50529Y956895D01*
X46405Y952771D01*
X41016Y950539D01*
X35184Y950539D01*
G37*
%LPD*%
%LPC*%
G36*
X256261Y714755D02*
X256261Y714755D01*
X252900Y716147D01*
X250327Y718720D01*
X248935Y722081D01*
X248935Y725719D01*
X250327Y729080D01*
X252900Y731653D01*
X256261Y733045D01*
X275139Y733045D01*
X278500Y731653D01*
X281073Y729080D01*
X282465Y725719D01*
X282465Y722081D01*
X281073Y718720D01*
X278500Y716147D01*
X275139Y714755D01*
X256261Y714755D01*
G37*
%LPD*%
%LPC*%
G36*
X256261Y739755D02*
X256261Y739755D01*
X252900Y741147D01*
X250327Y743720D01*
X248935Y747081D01*
X248935Y750719D01*
X250327Y754080D01*
X252900Y756653D01*
X256261Y758045D01*
X275139Y758045D01*
X278500Y756653D01*
X281073Y754080D01*
X282465Y750719D01*
X282465Y747081D01*
X281073Y743720D01*
X278500Y741147D01*
X275139Y739755D01*
X256261Y739755D01*
G37*
%LPD*%
%LPC*%
G36*
X823623Y192023D02*
X823623Y192023D01*
X823623Y205541D01*
X843934Y205541D01*
X844581Y205368D01*
X845160Y205033D01*
X845633Y204560D01*
X845968Y203981D01*
X846141Y203334D01*
X846141Y192023D01*
X823623Y192023D01*
G37*
%LPD*%
%LPC*%
G36*
X798059Y192023D02*
X798059Y192023D01*
X798059Y203334D01*
X798232Y203981D01*
X798567Y204560D01*
X799040Y205033D01*
X799619Y205368D01*
X800266Y205541D01*
X820577Y205541D01*
X820577Y192023D01*
X798059Y192023D01*
G37*
%LPD*%
%LPC*%
G36*
X823623Y175459D02*
X823623Y175459D01*
X823623Y188977D01*
X846141Y188977D01*
X846141Y177666D01*
X845968Y177019D01*
X845633Y176440D01*
X845160Y175967D01*
X844581Y175632D01*
X843934Y175459D01*
X823623Y175459D01*
G37*
%LPD*%
%LPC*%
G36*
X800266Y175459D02*
X800266Y175459D01*
X799619Y175632D01*
X799040Y175967D01*
X798567Y176440D01*
X798232Y177019D01*
X798059Y177666D01*
X798059Y188977D01*
X820577Y188977D01*
X820577Y175459D01*
X800266Y175459D01*
G37*
%LPD*%
G36*
X714041Y11950D02*
X714041Y11950D01*
X714112Y11952D01*
X714161Y11970D01*
X714213Y11979D01*
X714276Y12012D01*
X714343Y12037D01*
X714384Y12069D01*
X714430Y12094D01*
X714479Y12146D01*
X714535Y12190D01*
X714563Y12234D01*
X714599Y12272D01*
X714629Y12337D01*
X714668Y12397D01*
X714681Y12448D01*
X714703Y12495D01*
X714711Y12566D01*
X714728Y12636D01*
X714724Y12688D01*
X714730Y12739D01*
X714715Y12810D01*
X714709Y12881D01*
X714689Y12929D01*
X714678Y12980D01*
X714641Y13041D01*
X714613Y13107D01*
X714568Y13163D01*
X714552Y13191D01*
X714534Y13206D01*
X714508Y13238D01*
X710980Y16767D01*
X708756Y22135D01*
X708694Y22235D01*
X708634Y22335D01*
X708630Y22339D01*
X708626Y22344D01*
X708537Y22419D01*
X708447Y22495D01*
X708442Y22497D01*
X708437Y22501D01*
X708329Y22543D01*
X708219Y22587D01*
X708212Y22588D01*
X708207Y22589D01*
X708189Y22590D01*
X708053Y22605D01*
X693576Y22605D01*
X689640Y26541D01*
X689582Y26583D01*
X689530Y26632D01*
X689483Y26654D01*
X689441Y26685D01*
X689372Y26706D01*
X689307Y26736D01*
X689255Y26742D01*
X689205Y26757D01*
X689134Y26755D01*
X689063Y26763D01*
X689012Y26752D01*
X688960Y26751D01*
X688892Y26726D01*
X688822Y26711D01*
X688777Y26684D01*
X688729Y26666D01*
X688673Y26621D01*
X688611Y26584D01*
X688577Y26545D01*
X688537Y26512D01*
X688498Y26452D01*
X688451Y26398D01*
X688432Y26349D01*
X688404Y26305D01*
X688386Y26236D01*
X688359Y26169D01*
X688351Y26098D01*
X688343Y26067D01*
X688345Y26044D01*
X688341Y26003D01*
X688341Y22368D01*
X686020Y16767D01*
X682492Y13238D01*
X682450Y13180D01*
X682401Y13128D01*
X682379Y13081D01*
X682348Y13039D01*
X682327Y12970D01*
X682297Y12905D01*
X682291Y12853D01*
X682276Y12803D01*
X682278Y12732D01*
X682270Y12661D01*
X682281Y12610D01*
X682282Y12558D01*
X682307Y12490D01*
X682322Y12420D01*
X682349Y12376D01*
X682367Y12327D01*
X682412Y12271D01*
X682448Y12209D01*
X682488Y12175D01*
X682521Y12135D01*
X682581Y12096D01*
X682635Y12049D01*
X682684Y12030D01*
X682727Y12002D01*
X682797Y11984D01*
X682863Y11957D01*
X682935Y11949D01*
X682966Y11941D01*
X682989Y11943D01*
X683030Y11939D01*
X713970Y11939D01*
X714041Y11950D01*
G37*
%LPC*%
G36*
X1332085Y704087D02*
X1332085Y704087D01*
X1329471Y705170D01*
X1327470Y707171D01*
X1326387Y709785D01*
X1326387Y712615D01*
X1327470Y715229D01*
X1329471Y717230D01*
X1332085Y718313D01*
X1334915Y718313D01*
X1337529Y717230D01*
X1339530Y715229D01*
X1340613Y712615D01*
X1340613Y709785D01*
X1339530Y707171D01*
X1337529Y705170D01*
X1334915Y704087D01*
X1332085Y704087D01*
G37*
%LPD*%
%LPC*%
G36*
X773285Y742187D02*
X773285Y742187D01*
X770671Y743270D01*
X768670Y745271D01*
X767587Y747885D01*
X767587Y750715D01*
X768670Y753329D01*
X770671Y755330D01*
X773285Y756413D01*
X776115Y756413D01*
X778729Y755330D01*
X780730Y753329D01*
X781813Y750715D01*
X781813Y747885D01*
X780730Y745271D01*
X778729Y743270D01*
X776115Y742187D01*
X773285Y742187D01*
G37*
%LPD*%
%LPC*%
G36*
X722485Y742187D02*
X722485Y742187D01*
X719871Y743270D01*
X717870Y745271D01*
X716787Y747885D01*
X716787Y750715D01*
X717870Y753329D01*
X719871Y755330D01*
X722485Y756413D01*
X725315Y756413D01*
X727929Y755330D01*
X729930Y753329D01*
X731013Y750715D01*
X731013Y747885D01*
X729930Y745271D01*
X727929Y743270D01*
X725315Y742187D01*
X722485Y742187D01*
G37*
%LPD*%
%LPC*%
G36*
X267223Y700423D02*
X267223Y700423D01*
X267223Y709061D01*
X274120Y709061D01*
X275699Y708811D01*
X277220Y708316D01*
X278645Y707590D01*
X279939Y706650D01*
X281070Y705519D01*
X282010Y704225D01*
X282736Y702800D01*
X283231Y701279D01*
X283366Y700423D01*
X267223Y700423D01*
G37*
%LPD*%
%LPC*%
G36*
X248034Y700423D02*
X248034Y700423D01*
X248169Y701279D01*
X248664Y702800D01*
X249390Y704225D01*
X250330Y705519D01*
X251461Y706650D01*
X252755Y707590D01*
X254180Y708316D01*
X255701Y708811D01*
X257280Y709061D01*
X264177Y709061D01*
X264177Y700423D01*
X248034Y700423D01*
G37*
%LPD*%
%LPC*%
G36*
X267223Y688739D02*
X267223Y688739D01*
X267223Y697377D01*
X283366Y697377D01*
X283231Y696521D01*
X282736Y695000D01*
X282010Y693575D01*
X281070Y692281D01*
X279939Y691150D01*
X278645Y690210D01*
X277220Y689484D01*
X275699Y688989D01*
X274120Y688739D01*
X267223Y688739D01*
G37*
%LPD*%
%LPC*%
G36*
X257280Y688739D02*
X257280Y688739D01*
X255701Y688989D01*
X254180Y689484D01*
X252755Y690210D01*
X251461Y691150D01*
X250330Y692281D01*
X249390Y693575D01*
X248664Y695000D01*
X248169Y696521D01*
X248034Y697377D01*
X264177Y697377D01*
X264177Y688739D01*
X257280Y688739D01*
G37*
%LPD*%
%LPC*%
G36*
X1166723Y700023D02*
X1166723Y700023D01*
X1166723Y709041D01*
X1172034Y709041D01*
X1172681Y708868D01*
X1173260Y708533D01*
X1173733Y708060D01*
X1174068Y707481D01*
X1174241Y706834D01*
X1174241Y700023D01*
X1166723Y700023D01*
G37*
%LPD*%
%LPC*%
G36*
X1033423Y776223D02*
X1033423Y776223D01*
X1033423Y785241D01*
X1038734Y785241D01*
X1039381Y785068D01*
X1039960Y784733D01*
X1040433Y784260D01*
X1040645Y783893D01*
X1040768Y783681D01*
X1040941Y783034D01*
X1040941Y776223D01*
X1033423Y776223D01*
G37*
%LPD*%
%LPC*%
G36*
X881023Y776223D02*
X881023Y776223D01*
X881023Y785241D01*
X886334Y785241D01*
X886981Y785068D01*
X887560Y784733D01*
X888033Y784260D01*
X888245Y783893D01*
X888368Y783681D01*
X888541Y783034D01*
X888541Y776223D01*
X881023Y776223D01*
G37*
%LPD*%
%LPC*%
G36*
X1033423Y764159D02*
X1033423Y764159D01*
X1033423Y773177D01*
X1040941Y773177D01*
X1040941Y766366D01*
X1040768Y765719D01*
X1040645Y765507D01*
X1040433Y765140D01*
X1039960Y764667D01*
X1039381Y764332D01*
X1038734Y764159D01*
X1033423Y764159D01*
G37*
%LPD*%
%LPC*%
G36*
X1022859Y776223D02*
X1022859Y776223D01*
X1022859Y783034D01*
X1023032Y783681D01*
X1023367Y784260D01*
X1023840Y784733D01*
X1024419Y785068D01*
X1025066Y785241D01*
X1030377Y785241D01*
X1030377Y776223D01*
X1022859Y776223D01*
G37*
%LPD*%
%LPC*%
G36*
X870459Y776223D02*
X870459Y776223D01*
X870459Y783034D01*
X870632Y783681D01*
X870967Y784260D01*
X871440Y784733D01*
X872019Y785068D01*
X872666Y785241D01*
X877977Y785241D01*
X877977Y776223D01*
X870459Y776223D01*
G37*
%LPD*%
%LPC*%
G36*
X1156159Y700023D02*
X1156159Y700023D01*
X1156159Y706834D01*
X1156332Y707481D01*
X1156455Y707693D01*
X1156667Y708060D01*
X1157140Y708533D01*
X1157719Y708868D01*
X1158366Y709041D01*
X1163677Y709041D01*
X1163677Y700023D01*
X1156159Y700023D01*
G37*
%LPD*%
%LPC*%
G36*
X1025066Y764159D02*
X1025066Y764159D01*
X1024419Y764332D01*
X1023840Y764667D01*
X1023367Y765140D01*
X1023032Y765719D01*
X1022859Y766366D01*
X1022859Y773177D01*
X1030377Y773177D01*
X1030377Y764159D01*
X1025066Y764159D01*
G37*
%LPD*%
%LPC*%
G36*
X872666Y764159D02*
X872666Y764159D01*
X872019Y764332D01*
X871440Y764667D01*
X870967Y765140D01*
X870632Y765719D01*
X870459Y766366D01*
X870459Y773177D01*
X877977Y773177D01*
X877977Y764159D01*
X872666Y764159D01*
G37*
%LPD*%
%LPC*%
G36*
X900023Y700023D02*
X900023Y700023D01*
X900023Y708541D01*
X905334Y708541D01*
X905981Y708368D01*
X906560Y708033D01*
X907033Y707560D01*
X907368Y706981D01*
X907541Y706334D01*
X907541Y700023D01*
X900023Y700023D01*
G37*
%LPD*%
%LPC*%
G36*
X1166723Y598423D02*
X1166723Y598423D01*
X1166723Y606941D01*
X1172034Y606941D01*
X1172681Y606768D01*
X1173260Y606433D01*
X1173733Y605960D01*
X1174068Y605381D01*
X1174241Y604734D01*
X1174241Y598423D01*
X1166723Y598423D01*
G37*
%LPD*%
%LPC*%
G36*
X1166723Y586859D02*
X1166723Y586859D01*
X1166723Y595377D01*
X1174241Y595377D01*
X1174241Y589066D01*
X1174068Y588419D01*
X1173733Y587840D01*
X1173260Y587367D01*
X1172681Y587032D01*
X1172034Y586859D01*
X1166723Y586859D01*
G37*
%LPD*%
%LPC*%
G36*
X900023Y688459D02*
X900023Y688459D01*
X900023Y696977D01*
X907541Y696977D01*
X907541Y690666D01*
X907368Y690019D01*
X907033Y689440D01*
X906560Y688967D01*
X905981Y688632D01*
X905334Y688459D01*
X900023Y688459D01*
G37*
%LPD*%
%LPC*%
G36*
X1052423Y688459D02*
X1052423Y688459D01*
X1052423Y696977D01*
X1059941Y696977D01*
X1059941Y690666D01*
X1059768Y690019D01*
X1059433Y689440D01*
X1058960Y688967D01*
X1058381Y688632D01*
X1057734Y688459D01*
X1052423Y688459D01*
G37*
%LPD*%
%LPC*%
G36*
X1041859Y700023D02*
X1041859Y700023D01*
X1041859Y706334D01*
X1042032Y706981D01*
X1042155Y707193D01*
X1042367Y707560D01*
X1042840Y708033D01*
X1043419Y708368D01*
X1044066Y708541D01*
X1049377Y708541D01*
X1049377Y700023D01*
X1041859Y700023D01*
G37*
%LPD*%
%LPC*%
G36*
X889459Y700023D02*
X889459Y700023D01*
X889459Y706334D01*
X889632Y706981D01*
X889755Y707193D01*
X889967Y707560D01*
X890440Y708033D01*
X891019Y708368D01*
X891666Y708541D01*
X896977Y708541D01*
X896977Y700023D01*
X889459Y700023D01*
G37*
%LPD*%
%LPC*%
G36*
X1158366Y586859D02*
X1158366Y586859D01*
X1157719Y587032D01*
X1157140Y587367D01*
X1156667Y587840D01*
X1156455Y588207D01*
X1156332Y588419D01*
X1156159Y589066D01*
X1156159Y595377D01*
X1163677Y595377D01*
X1163677Y586859D01*
X1158366Y586859D01*
G37*
%LPD*%
%LPC*%
G36*
X891666Y688459D02*
X891666Y688459D01*
X891019Y688632D01*
X890440Y688967D01*
X889967Y689440D01*
X889755Y689807D01*
X889632Y690019D01*
X889459Y690666D01*
X889459Y696977D01*
X896977Y696977D01*
X896977Y688459D01*
X891666Y688459D01*
G37*
%LPD*%
%LPC*%
G36*
X631423Y382223D02*
X631423Y382223D01*
X631423Y389241D01*
X636234Y389241D01*
X636881Y389068D01*
X637460Y388733D01*
X637933Y388260D01*
X638268Y387681D01*
X638441Y387034D01*
X638441Y382223D01*
X631423Y382223D01*
G37*
%LPD*%
%LPC*%
G36*
X621359Y382223D02*
X621359Y382223D01*
X621359Y387034D01*
X621532Y387681D01*
X621867Y388260D01*
X622340Y388733D01*
X622919Y389068D01*
X623566Y389241D01*
X628377Y389241D01*
X628377Y382223D01*
X621359Y382223D01*
G37*
%LPD*%
%LPC*%
G36*
X1055623Y877823D02*
X1055623Y877823D01*
X1055623Y885759D01*
X1056343Y885645D01*
X1057778Y885179D01*
X1059121Y884494D01*
X1060342Y883608D01*
X1061408Y882542D01*
X1062294Y881321D01*
X1062979Y879978D01*
X1063445Y878543D01*
X1063559Y877823D01*
X1055623Y877823D01*
G37*
%LPD*%
%LPC*%
G36*
X852423Y877823D02*
X852423Y877823D01*
X852423Y885759D01*
X853143Y885645D01*
X854578Y885179D01*
X855921Y884494D01*
X857142Y883608D01*
X858208Y882542D01*
X859094Y881321D01*
X859779Y879978D01*
X860245Y878543D01*
X860359Y877823D01*
X852423Y877823D01*
G37*
%LPD*%
%LPC*%
G36*
X306323Y877823D02*
X306323Y877823D01*
X306323Y885759D01*
X307043Y885645D01*
X308478Y885179D01*
X309821Y884494D01*
X311042Y883608D01*
X312108Y882542D01*
X312994Y881321D01*
X313679Y879978D01*
X314145Y878543D01*
X314259Y877823D01*
X306323Y877823D01*
G37*
%LPD*%
%LPC*%
G36*
X1373123Y877823D02*
X1373123Y877823D01*
X1373123Y885759D01*
X1373843Y885645D01*
X1375278Y885179D01*
X1376621Y884494D01*
X1377842Y883608D01*
X1378908Y882542D01*
X1379794Y881321D01*
X1380479Y879978D01*
X1380945Y878543D01*
X1381059Y877823D01*
X1373123Y877823D01*
G37*
%LPD*%
%LPC*%
G36*
X509523Y877823D02*
X509523Y877823D01*
X509523Y885759D01*
X510243Y885645D01*
X511678Y885179D01*
X513021Y884494D01*
X514242Y883608D01*
X515308Y882542D01*
X516194Y881321D01*
X516879Y879978D01*
X517345Y878543D01*
X517459Y877823D01*
X509523Y877823D01*
G37*
%LPD*%
%LPC*%
G36*
X498541Y877823D02*
X498541Y877823D01*
X498655Y878543D01*
X499121Y879978D01*
X499806Y881321D01*
X500692Y882542D01*
X501758Y883608D01*
X502979Y884494D01*
X504322Y885179D01*
X505757Y885645D01*
X506477Y885759D01*
X506477Y877823D01*
X498541Y877823D01*
G37*
%LPD*%
%LPC*%
G36*
X852423Y874777D02*
X852423Y874777D01*
X860359Y874777D01*
X860245Y874057D01*
X859779Y872622D01*
X859094Y871279D01*
X858208Y870058D01*
X857142Y868992D01*
X855921Y868106D01*
X854578Y867421D01*
X853143Y866955D01*
X852423Y866841D01*
X852423Y874777D01*
G37*
%LPD*%
%LPC*%
G36*
X1055623Y874777D02*
X1055623Y874777D01*
X1063559Y874777D01*
X1063445Y874057D01*
X1062979Y872622D01*
X1062294Y871279D01*
X1061408Y870058D01*
X1060342Y868992D01*
X1059121Y868106D01*
X1057778Y867421D01*
X1056343Y866955D01*
X1055623Y866841D01*
X1055623Y874777D01*
G37*
%LPD*%
%LPC*%
G36*
X306323Y874777D02*
X306323Y874777D01*
X314259Y874777D01*
X314145Y874057D01*
X313679Y872622D01*
X312994Y871279D01*
X312108Y870058D01*
X311042Y868992D01*
X309821Y868106D01*
X308478Y867421D01*
X307043Y866955D01*
X306323Y866841D01*
X306323Y874777D01*
G37*
%LPD*%
%LPC*%
G36*
X841441Y877823D02*
X841441Y877823D01*
X841555Y878543D01*
X842021Y879978D01*
X842706Y881321D01*
X843592Y882542D01*
X844658Y883608D01*
X845879Y884494D01*
X847222Y885179D01*
X848657Y885645D01*
X849377Y885759D01*
X849377Y877823D01*
X841441Y877823D01*
G37*
%LPD*%
%LPC*%
G36*
X1044641Y877823D02*
X1044641Y877823D01*
X1044755Y878543D01*
X1045221Y879978D01*
X1045906Y881321D01*
X1046792Y882542D01*
X1047858Y883608D01*
X1049079Y884494D01*
X1050422Y885179D01*
X1051857Y885645D01*
X1052577Y885759D01*
X1052577Y877823D01*
X1044641Y877823D01*
G37*
%LPD*%
%LPC*%
G36*
X1362141Y877823D02*
X1362141Y877823D01*
X1362255Y878543D01*
X1362721Y879978D01*
X1363406Y881321D01*
X1364292Y882542D01*
X1365358Y883608D01*
X1366579Y884494D01*
X1367922Y885179D01*
X1369357Y885645D01*
X1370077Y885759D01*
X1370077Y877823D01*
X1362141Y877823D01*
G37*
%LPD*%
%LPC*%
G36*
X295341Y877823D02*
X295341Y877823D01*
X295455Y878543D01*
X295921Y879978D01*
X296606Y881321D01*
X297492Y882542D01*
X298558Y883608D01*
X299779Y884494D01*
X301122Y885179D01*
X302557Y885645D01*
X303277Y885759D01*
X303277Y877823D01*
X295341Y877823D01*
G37*
%LPD*%
%LPC*%
G36*
X1373123Y874777D02*
X1373123Y874777D01*
X1381059Y874777D01*
X1380945Y874057D01*
X1380479Y872622D01*
X1379794Y871279D01*
X1378908Y870058D01*
X1377842Y868992D01*
X1376621Y868106D01*
X1375278Y867421D01*
X1373843Y866955D01*
X1373123Y866841D01*
X1373123Y874777D01*
G37*
%LPD*%
%LPC*%
G36*
X509523Y874777D02*
X509523Y874777D01*
X517459Y874777D01*
X517345Y874057D01*
X516879Y872622D01*
X516194Y871279D01*
X515308Y870058D01*
X514242Y868992D01*
X513021Y868106D01*
X511678Y867421D01*
X510243Y866955D01*
X509523Y866841D01*
X509523Y874777D01*
G37*
%LPD*%
%LPC*%
G36*
X1051857Y866955D02*
X1051857Y866955D01*
X1050422Y867421D01*
X1049079Y868106D01*
X1047858Y868992D01*
X1046792Y870058D01*
X1045906Y871279D01*
X1045221Y872622D01*
X1044755Y874057D01*
X1044641Y874777D01*
X1052577Y874777D01*
X1052577Y866841D01*
X1051857Y866955D01*
G37*
%LPD*%
%LPC*%
G36*
X848657Y866955D02*
X848657Y866955D01*
X847222Y867421D01*
X845879Y868106D01*
X844658Y868992D01*
X843592Y870058D01*
X842706Y871279D01*
X842021Y872622D01*
X841555Y874057D01*
X841441Y874777D01*
X849377Y874777D01*
X849377Y866841D01*
X848657Y866955D01*
G37*
%LPD*%
%LPC*%
G36*
X1369357Y866955D02*
X1369357Y866955D01*
X1367922Y867421D01*
X1366579Y868106D01*
X1365358Y868992D01*
X1364292Y870058D01*
X1363406Y871279D01*
X1362721Y872622D01*
X1362255Y874057D01*
X1362141Y874777D01*
X1370077Y874777D01*
X1370077Y866841D01*
X1369357Y866955D01*
G37*
%LPD*%
%LPC*%
G36*
X302557Y866955D02*
X302557Y866955D01*
X301122Y867421D01*
X299779Y868106D01*
X298558Y868992D01*
X297492Y870058D01*
X296606Y871279D01*
X295921Y872622D01*
X295455Y874057D01*
X295341Y874777D01*
X303277Y874777D01*
X303277Y866841D01*
X302557Y866955D01*
G37*
%LPD*%
%LPC*%
G36*
X505757Y866955D02*
X505757Y866955D01*
X504322Y867421D01*
X502979Y868106D01*
X501758Y868992D01*
X500692Y870058D01*
X499806Y871279D01*
X499121Y872622D01*
X498655Y874057D01*
X498541Y874777D01*
X506477Y874777D01*
X506477Y866841D01*
X505757Y866955D01*
G37*
%LPD*%
%LPC*%
G36*
X1371599Y876299D02*
X1371599Y876299D01*
X1371599Y876301D01*
X1371601Y876301D01*
X1371601Y876299D01*
X1371599Y876299D01*
G37*
%LPD*%
%LPC*%
G36*
X304799Y876299D02*
X304799Y876299D01*
X304799Y876301D01*
X304801Y876301D01*
X304801Y876299D01*
X304799Y876299D01*
G37*
%LPD*%
%LPC*%
G36*
X507999Y876299D02*
X507999Y876299D01*
X507999Y876301D01*
X508001Y876301D01*
X508001Y876299D01*
X507999Y876299D01*
G37*
%LPD*%
%LPC*%
G36*
X1054099Y876299D02*
X1054099Y876299D01*
X1054099Y876301D01*
X1054101Y876301D01*
X1054101Y876299D01*
X1054099Y876299D01*
G37*
%LPD*%
%LPC*%
G36*
X265699Y698899D02*
X265699Y698899D01*
X265699Y698901D01*
X265701Y698901D01*
X265701Y698899D01*
X265699Y698899D01*
G37*
%LPD*%
%LPC*%
G36*
X850899Y876299D02*
X850899Y876299D01*
X850899Y876301D01*
X850901Y876301D01*
X850901Y876299D01*
X850899Y876299D01*
G37*
%LPD*%
%LPC*%
G36*
X1165201Y596901D02*
X1165201Y596901D01*
X1165201Y596899D01*
X1165199Y596899D01*
X1165199Y596901D01*
X1165201Y596901D01*
G37*
%LPD*%
%LPC*%
G36*
X898501Y698501D02*
X898501Y698501D01*
X898501Y698499D01*
X898499Y698499D01*
X898499Y698501D01*
X898501Y698501D01*
G37*
%LPD*%
%LPC*%
G36*
X1050901Y698501D02*
X1050901Y698501D01*
X1050901Y698499D01*
X1050899Y698499D01*
X1050899Y698501D01*
X1050901Y698501D01*
G37*
%LPD*%
%LPC*%
G36*
X822099Y190499D02*
X822099Y190499D01*
X822099Y190501D01*
X822101Y190501D01*
X822101Y190499D01*
X822099Y190499D01*
G37*
%LPD*%
%LPC*%
G36*
X879499Y774699D02*
X879499Y774699D01*
X879499Y774701D01*
X879501Y774701D01*
X879501Y774699D01*
X879499Y774699D01*
G37*
%LPD*%
%LPC*%
G36*
X1031899Y774699D02*
X1031899Y774699D01*
X1031899Y774701D01*
X1031901Y774701D01*
X1031901Y774699D01*
X1031899Y774699D01*
G37*
%LPD*%
D10*
X629900Y380700D03*
X629900Y406700D03*
X690900Y406700D03*
X690900Y380700D03*
D11*
X1146200Y596900D03*
X1165200Y596900D03*
X879500Y698500D03*
X898500Y698500D03*
D12*
X1155700Y752500D03*
X1155700Y771500D03*
D11*
X562000Y774700D03*
X581000Y774700D03*
D13*
X905100Y190500D03*
X822100Y190500D03*
D11*
X1031900Y698500D03*
X1050900Y698500D03*
D14*
X1301496Y622300D02*
X1314704Y622300D01*
X1213104Y622300D02*
X1199896Y622300D01*
D15*
X535178Y596900D02*
X535178Y571500D01*
X760222Y571500D02*
X760222Y596900D01*
X116078Y584200D02*
X116078Y558800D01*
X341122Y558800D02*
X341122Y584200D01*
D16*
X872740Y596900D03*
X930660Y596900D03*
D17*
X898500Y774700D03*
X879500Y774700D03*
X1050900Y774700D03*
X1031900Y774700D03*
X1146200Y698500D03*
X1165200Y698500D03*
D18*
X723900Y749300D03*
X749300Y723900D03*
X774700Y749300D03*
X1333500Y762000D03*
X1308100Y736600D03*
X1333500Y711200D03*
D19*
X710502Y177800D02*
X686499Y177800D01*
X686499Y228600D02*
X710502Y228600D01*
X710502Y279400D02*
X686499Y279400D01*
D20*
X723900Y25400D03*
X673100Y25400D03*
D21*
X273320Y698900D02*
X258080Y698900D01*
X258080Y723900D02*
X273320Y723900D01*
X273320Y748900D02*
X258080Y748900D01*
D22*
X179832Y354076D03*
X179832Y153924D03*
X429768Y153924D03*
X429768Y203962D03*
X429768Y304038D03*
X429768Y354076D03*
D23*
X876300Y876300D03*
X850900Y876300D03*
X533400Y876300D03*
X508000Y876300D03*
X330200Y876300D03*
X304800Y876300D03*
X1397000Y876300D03*
X1371600Y876300D03*
X1079500Y876300D03*
X1054100Y876300D03*
D24*
X691896Y391668D02*
X691896Y381000D01*
X691896Y391668D02*
X699516Y399288D01*
X699516Y414528D01*
X697992Y416052D01*
X681228Y416052D01*
X637032Y371856D01*
X603504Y371856D01*
X374904Y600456D01*
X146304Y600456D01*
X117348Y571500D01*
X690900Y380700D02*
X691896Y381000D01*
X117348Y571500D02*
X116078Y571500D01*
X429768Y304038D02*
X429768Y203962D01*
X1033272Y775716D02*
X1033272Y856488D01*
X1053084Y876300D01*
X1033272Y775716D02*
X1031900Y774700D01*
X1053084Y876300D02*
X1054100Y876300D01*
X1100328Y763524D02*
X1124712Y739140D01*
X1164336Y699516D01*
X1100328Y763524D02*
X1043940Y763524D01*
X1033272Y774192D01*
X1164336Y699516D02*
X1165200Y698500D01*
X1033272Y774192D02*
X1031900Y774700D01*
X1278636Y876300D02*
X1371600Y876300D01*
X1278636Y876300D02*
X1164336Y762000D01*
X1147572Y762000D01*
X1124712Y739140D01*
X304800Y737616D02*
X304800Y876300D01*
X304800Y737616D02*
X266700Y699516D01*
X265700Y698900D01*
X630936Y381000D02*
X641604Y381000D01*
X679704Y419100D01*
X699516Y419100D01*
X702564Y416052D01*
X702564Y316992D01*
X672084Y286512D01*
X672084Y222504D01*
X701040Y193548D01*
X818388Y193548D01*
X821436Y190500D01*
X630936Y381000D02*
X629900Y380700D01*
X821436Y190500D02*
X822100Y190500D01*
X899160Y708660D02*
X899160Y757428D01*
X899160Y708660D02*
X899160Y699516D01*
X899160Y757428D02*
X908304Y766572D01*
X908304Y783336D01*
X905256Y786384D01*
X891540Y786384D01*
X880872Y775716D01*
X899160Y699516D02*
X898500Y698500D01*
X879500Y774700D02*
X880872Y775716D01*
X1040892Y708660D02*
X1050036Y699516D01*
X1040892Y708660D02*
X899160Y708660D01*
X1050036Y699516D02*
X1050900Y698500D01*
X1165860Y597408D02*
X1200912Y597408D01*
X1222248Y618744D01*
X1222248Y626364D01*
X1164336Y684276D01*
X1065276Y684276D01*
X1051560Y697992D01*
X1165200Y596900D02*
X1165860Y597408D01*
X1051560Y697992D02*
X1050900Y698500D01*
X851916Y826008D02*
X851916Y876300D01*
X851916Y826008D02*
X891540Y786384D01*
X629412Y391668D02*
X629412Y381000D01*
X629412Y391668D02*
X620268Y400812D01*
X620268Y483108D01*
X845820Y708660D01*
X899160Y708660D01*
X629900Y380700D02*
X629412Y381000D01*
X915924Y856488D02*
X1033272Y856488D01*
X915924Y856488D02*
X885444Y886968D01*
X862584Y886968D01*
X851916Y876300D01*
X850900Y876300D01*
X699516Y246888D02*
X699516Y228600D01*
X699516Y246888D02*
X758952Y306324D01*
X758952Y583692D01*
X699516Y228600D02*
X698500Y228600D01*
X758952Y583692D02*
X760222Y584200D01*
X723900Y25908D02*
X694944Y25908D01*
X588264Y132588D01*
X201168Y132588D01*
X179832Y153924D01*
X723900Y25908D02*
X723900Y25400D01*
X690372Y405384D02*
X681228Y405384D01*
D25*
X429768Y153924D01*
D24*
X690372Y405384D02*
X690900Y406700D01*
X630936Y406908D02*
X630936Y489204D01*
X754380Y612648D01*
X856488Y612648D01*
X871728Y597408D01*
X630936Y406908D02*
X629900Y406700D01*
X871728Y597408D02*
X872740Y596900D01*
X903732Y565404D02*
X903732Y190500D01*
X903732Y565404D02*
X873252Y595884D01*
X903732Y190500D02*
X905100Y190500D01*
X873252Y595884D02*
X872740Y596900D01*
X1147572Y597408D02*
X1171956Y621792D01*
X1205484Y621792D01*
X1147572Y597408D02*
X1146200Y596900D01*
X1205484Y621792D02*
X1206500Y622300D01*
X880872Y646176D02*
X880872Y697992D01*
X880872Y646176D02*
X929640Y597408D01*
X880872Y697992D02*
X879500Y698500D01*
X929640Y597408D02*
X930660Y596900D01*
X931164Y597408D02*
X1031748Y697992D01*
X1031900Y698500D01*
X931164Y597408D02*
X930660Y596900D01*
X1133856Y597408D02*
X1146048Y597408D01*
X1133856Y597408D02*
X1033272Y697992D01*
X1146048Y597408D02*
X1146200Y596900D01*
X1033272Y697992D02*
X1031900Y698500D01*
X1147572Y697992D02*
X1158240Y687324D01*
X1258824Y687324D01*
X1308100Y736600D01*
X1147572Y697992D02*
X1146200Y698500D01*
X1307592Y638556D02*
X1307592Y623316D01*
X1307592Y638556D02*
X1258824Y687324D01*
X1307592Y623316D02*
X1308100Y622300D01*
X1146048Y699516D02*
X1068324Y699516D01*
X891540Y876300D01*
X876300Y876300D01*
X1146048Y699516D02*
X1146200Y698500D01*
X1078992Y772668D02*
X1053084Y772668D01*
X1078992Y772668D02*
X1155192Y772668D01*
X1053084Y772668D02*
X1051560Y774192D01*
X1155192Y772668D02*
X1155700Y771500D01*
X1051560Y774192D02*
X1050900Y774700D01*
X1078992Y772668D02*
X1078992Y876300D01*
X1079500Y876300D01*
X1156716Y752856D02*
X1324356Y752856D01*
X1333500Y762000D01*
X1156716Y752856D02*
X1155700Y752500D01*
X1395984Y824484D02*
X1395984Y876300D01*
X1395984Y824484D02*
X1333500Y762000D01*
X1395984Y876300D02*
X1397000Y876300D01*
X560832Y848868D02*
X560832Y775716D01*
X560832Y848868D02*
X533400Y876300D01*
X560832Y775716D02*
X562000Y774700D01*
X847344Y723900D02*
X897636Y774192D01*
X847344Y723900D02*
X749300Y723900D01*
X897636Y774192D02*
X898500Y774700D01*
X612648Y723900D02*
X562356Y774192D01*
X612648Y723900D02*
X749300Y723900D01*
X562356Y774192D02*
X562000Y774700D01*
X580644Y775716D02*
X580644Y842772D01*
X518160Y905256D01*
X473964Y905256D01*
X460248Y918972D01*
X460248Y929640D01*
X458724Y931164D01*
X405384Y931164D01*
X402336Y928116D01*
X402336Y917448D01*
X361188Y876300D01*
X330200Y876300D01*
X580644Y775716D02*
X581000Y774700D01*
X341376Y571500D02*
X341376Y443484D01*
X429768Y355092D01*
X341376Y571500D02*
X341122Y571500D01*
X429768Y355092D02*
X429768Y354076D01*
M02*
