G04 EAGLE Gerber RS-274X export*
G75*
%MOMM*%
%FSLAX34Y34*%
%LPD*%
%IN*%
%IPPOS*%
%AMOC8*
5,1,8,0,0,1.08239X$1,22.5*%
G01*
%ADD10C,0.254000*%


D10*
X0Y0D02*
X1600000Y0D01*
X1600000Y1000000D01*
X0Y1000000D01*
X0Y0D01*
X55300Y50505D02*
X55223Y49920D01*
X55070Y49350D01*
X54845Y48805D01*
X54550Y48295D01*
X54191Y47827D01*
X53773Y47409D01*
X53305Y47050D01*
X52795Y46755D01*
X52250Y46530D01*
X51680Y46377D01*
X51095Y46300D01*
X50505Y46300D01*
X49920Y46377D01*
X49350Y46530D01*
X48805Y46755D01*
X48295Y47050D01*
X47827Y47409D01*
X47409Y47827D01*
X47050Y48295D01*
X46755Y48805D01*
X46530Y49350D01*
X46377Y49920D01*
X46300Y50505D01*
X46300Y51095D01*
X46377Y51680D01*
X46530Y52250D01*
X46755Y52795D01*
X47050Y53305D01*
X47409Y53773D01*
X47827Y54191D01*
X48295Y54550D01*
X48805Y54845D01*
X49350Y55070D01*
X49920Y55223D01*
X50505Y55300D01*
X51095Y55300D01*
X51680Y55223D01*
X52250Y55070D01*
X52795Y54845D01*
X53305Y54550D01*
X53773Y54191D01*
X54191Y53773D01*
X54550Y53305D01*
X54845Y52795D01*
X55070Y52250D01*
X55223Y51680D01*
X55300Y51095D01*
X55300Y50505D01*
X42600Y964905D02*
X42523Y964320D01*
X42370Y963750D01*
X42145Y963205D01*
X41850Y962695D01*
X41491Y962227D01*
X41073Y961809D01*
X40605Y961450D01*
X40095Y961155D01*
X39550Y960930D01*
X38980Y960777D01*
X38395Y960700D01*
X37805Y960700D01*
X37220Y960777D01*
X36650Y960930D01*
X36105Y961155D01*
X35595Y961450D01*
X35127Y961809D01*
X34709Y962227D01*
X34350Y962695D01*
X34055Y963205D01*
X33830Y963750D01*
X33677Y964320D01*
X33600Y964905D01*
X33600Y965495D01*
X33677Y966080D01*
X33830Y966650D01*
X34055Y967195D01*
X34350Y967705D01*
X34709Y968173D01*
X35127Y968591D01*
X35595Y968950D01*
X36105Y969245D01*
X36650Y969470D01*
X37220Y969623D01*
X37805Y969700D01*
X38395Y969700D01*
X38980Y969623D01*
X39550Y969470D01*
X40095Y969245D01*
X40605Y968950D01*
X41073Y968591D01*
X41491Y968173D01*
X41850Y967705D01*
X42145Y967195D01*
X42370Y966650D01*
X42523Y966080D01*
X42600Y965495D01*
X42600Y964905D01*
X1553900Y50505D02*
X1553823Y49920D01*
X1553670Y49350D01*
X1553445Y48805D01*
X1553150Y48295D01*
X1552791Y47827D01*
X1552373Y47409D01*
X1551905Y47050D01*
X1551395Y46755D01*
X1550850Y46530D01*
X1550280Y46377D01*
X1549695Y46300D01*
X1549105Y46300D01*
X1548520Y46377D01*
X1547950Y46530D01*
X1547405Y46755D01*
X1546895Y47050D01*
X1546427Y47409D01*
X1546009Y47827D01*
X1545650Y48295D01*
X1545355Y48805D01*
X1545130Y49350D01*
X1544977Y49920D01*
X1544900Y50505D01*
X1544900Y51095D01*
X1544977Y51680D01*
X1545130Y52250D01*
X1545355Y52795D01*
X1545650Y53305D01*
X1546009Y53773D01*
X1546427Y54191D01*
X1546895Y54550D01*
X1547405Y54845D01*
X1547950Y55070D01*
X1548520Y55223D01*
X1549105Y55300D01*
X1549695Y55300D01*
X1550280Y55223D01*
X1550850Y55070D01*
X1551395Y54845D01*
X1551905Y54550D01*
X1552373Y54191D01*
X1552791Y53773D01*
X1553150Y53305D01*
X1553445Y52795D01*
X1553670Y52250D01*
X1553823Y51680D01*
X1553900Y51095D01*
X1553900Y50505D01*
X1553900Y939505D02*
X1553823Y938920D01*
X1553670Y938350D01*
X1553445Y937805D01*
X1553150Y937295D01*
X1552791Y936827D01*
X1552373Y936409D01*
X1551905Y936050D01*
X1551395Y935755D01*
X1550850Y935530D01*
X1550280Y935377D01*
X1549695Y935300D01*
X1549105Y935300D01*
X1548520Y935377D01*
X1547950Y935530D01*
X1547405Y935755D01*
X1546895Y936050D01*
X1546427Y936409D01*
X1546009Y936827D01*
X1545650Y937295D01*
X1545355Y937805D01*
X1545130Y938350D01*
X1544977Y938920D01*
X1544900Y939505D01*
X1544900Y940095D01*
X1544977Y940680D01*
X1545130Y941250D01*
X1545355Y941795D01*
X1545650Y942305D01*
X1546009Y942773D01*
X1546427Y943191D01*
X1546895Y943550D01*
X1547405Y943845D01*
X1547950Y944070D01*
X1548520Y944223D01*
X1549105Y944300D01*
X1549695Y944300D01*
X1550280Y944223D01*
X1550850Y944070D01*
X1551395Y943845D01*
X1551905Y943550D01*
X1552373Y943191D01*
X1552791Y942773D01*
X1553150Y942305D01*
X1553445Y941795D01*
X1553670Y941250D01*
X1553823Y940680D01*
X1553900Y940095D01*
X1553900Y939505D01*
X563300Y393405D02*
X563223Y392820D01*
X563070Y392250D01*
X562845Y391705D01*
X562550Y391195D01*
X562191Y390727D01*
X561773Y390309D01*
X561305Y389950D01*
X560795Y389655D01*
X560250Y389430D01*
X559680Y389277D01*
X559095Y389200D01*
X558505Y389200D01*
X557920Y389277D01*
X557350Y389430D01*
X556805Y389655D01*
X556295Y389950D01*
X555827Y390309D01*
X555409Y390727D01*
X555050Y391195D01*
X554755Y391705D01*
X554530Y392250D01*
X554377Y392820D01*
X554300Y393405D01*
X554300Y393995D01*
X554377Y394580D01*
X554530Y395150D01*
X554755Y395695D01*
X555050Y396205D01*
X555409Y396673D01*
X555827Y397091D01*
X556295Y397450D01*
X556805Y397745D01*
X557350Y397970D01*
X557920Y398123D01*
X558505Y398200D01*
X559095Y398200D01*
X559680Y398123D01*
X560250Y397970D01*
X560795Y397745D01*
X561305Y397450D01*
X561773Y397091D01*
X562191Y396673D01*
X562550Y396205D01*
X562845Y395695D01*
X563070Y395150D01*
X563223Y394580D01*
X563300Y393995D01*
X563300Y393405D01*
X576000Y101305D02*
X575923Y100720D01*
X575770Y100150D01*
X575545Y99605D01*
X575250Y99095D01*
X574891Y98627D01*
X574473Y98209D01*
X574005Y97850D01*
X573495Y97555D01*
X572950Y97330D01*
X572380Y97177D01*
X571795Y97100D01*
X571205Y97100D01*
X570620Y97177D01*
X570050Y97330D01*
X569505Y97555D01*
X568995Y97850D01*
X568527Y98209D01*
X568109Y98627D01*
X567750Y99095D01*
X567455Y99605D01*
X567230Y100150D01*
X567077Y100720D01*
X567000Y101305D01*
X567000Y101895D01*
X567077Y102480D01*
X567230Y103050D01*
X567455Y103595D01*
X567750Y104105D01*
X568109Y104573D01*
X568527Y104991D01*
X568995Y105350D01*
X569505Y105645D01*
X570050Y105870D01*
X570620Y106023D01*
X571205Y106100D01*
X571795Y106100D01*
X572380Y106023D01*
X572950Y105870D01*
X573495Y105645D01*
X574005Y105350D01*
X574473Y104991D01*
X574891Y104573D01*
X575250Y104105D01*
X575545Y103595D01*
X575770Y103050D01*
X575923Y102480D01*
X576000Y101895D01*
X576000Y101305D01*
X68000Y380705D02*
X67923Y380120D01*
X67770Y379550D01*
X67545Y379005D01*
X67250Y378495D01*
X66891Y378027D01*
X66473Y377609D01*
X66005Y377250D01*
X65495Y376955D01*
X64950Y376730D01*
X64380Y376577D01*
X63795Y376500D01*
X63205Y376500D01*
X62620Y376577D01*
X62050Y376730D01*
X61505Y376955D01*
X60995Y377250D01*
X60527Y377609D01*
X60109Y378027D01*
X59750Y378495D01*
X59455Y379005D01*
X59230Y379550D01*
X59077Y380120D01*
X59000Y380705D01*
X59000Y381295D01*
X59077Y381880D01*
X59230Y382450D01*
X59455Y382995D01*
X59750Y383505D01*
X60109Y383973D01*
X60527Y384391D01*
X60995Y384750D01*
X61505Y385045D01*
X62050Y385270D01*
X62620Y385423D01*
X63205Y385500D01*
X63795Y385500D01*
X64380Y385423D01*
X64950Y385270D01*
X65495Y385045D01*
X66005Y384750D01*
X66473Y384391D01*
X66891Y383973D01*
X67250Y383505D01*
X67545Y382995D01*
X67770Y382450D01*
X67923Y381880D01*
X68000Y381295D01*
X68000Y380705D01*
X835500Y926663D02*
X835424Y925794D01*
X835272Y924934D01*
X835046Y924090D01*
X834748Y923270D01*
X834379Y922478D01*
X833942Y921722D01*
X833441Y921007D01*
X832880Y920338D01*
X832262Y919720D01*
X831593Y919159D01*
X830878Y918658D01*
X830122Y918221D01*
X829330Y917852D01*
X828510Y917554D01*
X827666Y917328D01*
X826807Y917176D01*
X825937Y917100D01*
X825063Y917100D01*
X824194Y917176D01*
X823334Y917328D01*
X822490Y917554D01*
X821670Y917852D01*
X820878Y918221D01*
X820122Y918658D01*
X819407Y919159D01*
X818738Y919720D01*
X818120Y920338D01*
X817559Y921007D01*
X817058Y921722D01*
X816621Y922478D01*
X816252Y923270D01*
X815954Y924090D01*
X815728Y924934D01*
X815576Y925794D01*
X815500Y926663D01*
X815500Y927537D01*
X815576Y928407D01*
X815728Y929266D01*
X815954Y930110D01*
X816252Y930930D01*
X816621Y931722D01*
X817058Y932478D01*
X817559Y933193D01*
X818120Y933862D01*
X818738Y934480D01*
X819407Y935041D01*
X820122Y935542D01*
X820878Y935979D01*
X821670Y936348D01*
X822490Y936646D01*
X823334Y936872D01*
X824194Y937024D01*
X825063Y937100D01*
X825937Y937100D01*
X826807Y937024D01*
X827666Y936872D01*
X828510Y936646D01*
X829330Y936348D01*
X830122Y935979D01*
X830878Y935542D01*
X831593Y935041D01*
X832262Y934480D01*
X832880Y933862D01*
X833441Y933193D01*
X833942Y932478D01*
X834379Y931722D01*
X834748Y930930D01*
X835046Y930110D01*
X835272Y929266D01*
X835424Y928407D01*
X835500Y927537D01*
X835500Y926663D01*
X937100Y926663D02*
X937024Y925794D01*
X936872Y924934D01*
X936646Y924090D01*
X936348Y923270D01*
X935979Y922478D01*
X935542Y921722D01*
X935041Y921007D01*
X934480Y920338D01*
X933862Y919720D01*
X933193Y919159D01*
X932478Y918658D01*
X931722Y918221D01*
X930930Y917852D01*
X930110Y917554D01*
X929266Y917328D01*
X928407Y917176D01*
X927537Y917100D01*
X926663Y917100D01*
X925794Y917176D01*
X924934Y917328D01*
X924090Y917554D01*
X923270Y917852D01*
X922478Y918221D01*
X921722Y918658D01*
X921007Y919159D01*
X920338Y919720D01*
X919720Y920338D01*
X919159Y921007D01*
X918658Y921722D01*
X918221Y922478D01*
X917852Y923270D01*
X917554Y924090D01*
X917328Y924934D01*
X917176Y925794D01*
X917100Y926663D01*
X917100Y927537D01*
X917176Y928407D01*
X917328Y929266D01*
X917554Y930110D01*
X917852Y930930D01*
X918221Y931722D01*
X918658Y932478D01*
X919159Y933193D01*
X919720Y933862D01*
X920338Y934480D01*
X921007Y935041D01*
X921722Y935542D01*
X922478Y935979D01*
X923270Y936348D01*
X924090Y936646D01*
X924934Y936872D01*
X925794Y937024D01*
X926663Y937100D01*
X927537Y937100D01*
X928407Y937024D01*
X929266Y936872D01*
X930110Y936646D01*
X930930Y936348D01*
X931722Y935979D01*
X932478Y935542D01*
X933193Y935041D01*
X933862Y934480D01*
X934480Y933862D01*
X935041Y933193D01*
X935542Y932478D01*
X935979Y931722D01*
X936348Y930930D01*
X936646Y930110D01*
X936872Y929266D01*
X937024Y928407D01*
X937100Y927537D01*
X937100Y926663D01*
X492600Y926663D02*
X492524Y925794D01*
X492372Y924934D01*
X492146Y924090D01*
X491848Y923270D01*
X491479Y922478D01*
X491042Y921722D01*
X490541Y921007D01*
X489980Y920338D01*
X489362Y919720D01*
X488693Y919159D01*
X487978Y918658D01*
X487222Y918221D01*
X486430Y917852D01*
X485610Y917554D01*
X484766Y917328D01*
X483907Y917176D01*
X483037Y917100D01*
X482163Y917100D01*
X481294Y917176D01*
X480434Y917328D01*
X479590Y917554D01*
X478770Y917852D01*
X477978Y918221D01*
X477222Y918658D01*
X476507Y919159D01*
X475838Y919720D01*
X475220Y920338D01*
X474659Y921007D01*
X474158Y921722D01*
X473721Y922478D01*
X473352Y923270D01*
X473054Y924090D01*
X472828Y924934D01*
X472676Y925794D01*
X472600Y926663D01*
X472600Y927537D01*
X472676Y928407D01*
X472828Y929266D01*
X473054Y930110D01*
X473352Y930930D01*
X473721Y931722D01*
X474158Y932478D01*
X474659Y933193D01*
X475220Y933862D01*
X475838Y934480D01*
X476507Y935041D01*
X477222Y935542D01*
X477978Y935979D01*
X478770Y936348D01*
X479590Y936646D01*
X480434Y936872D01*
X481294Y937024D01*
X482163Y937100D01*
X483037Y937100D01*
X483907Y937024D01*
X484766Y936872D01*
X485610Y936646D01*
X486430Y936348D01*
X487222Y935979D01*
X487978Y935542D01*
X488693Y935041D01*
X489362Y934480D01*
X489980Y933862D01*
X490541Y933193D01*
X491042Y932478D01*
X491479Y931722D01*
X491848Y930930D01*
X492146Y930110D01*
X492372Y929266D01*
X492524Y928407D01*
X492600Y927537D01*
X492600Y926663D01*
X594200Y926663D02*
X594124Y925794D01*
X593972Y924934D01*
X593746Y924090D01*
X593448Y923270D01*
X593079Y922478D01*
X592642Y921722D01*
X592141Y921007D01*
X591580Y920338D01*
X590962Y919720D01*
X590293Y919159D01*
X589578Y918658D01*
X588822Y918221D01*
X588030Y917852D01*
X587210Y917554D01*
X586366Y917328D01*
X585507Y917176D01*
X584637Y917100D01*
X583763Y917100D01*
X582894Y917176D01*
X582034Y917328D01*
X581190Y917554D01*
X580370Y917852D01*
X579578Y918221D01*
X578822Y918658D01*
X578107Y919159D01*
X577438Y919720D01*
X576820Y920338D01*
X576259Y921007D01*
X575758Y921722D01*
X575321Y922478D01*
X574952Y923270D01*
X574654Y924090D01*
X574428Y924934D01*
X574276Y925794D01*
X574200Y926663D01*
X574200Y927537D01*
X574276Y928407D01*
X574428Y929266D01*
X574654Y930110D01*
X574952Y930930D01*
X575321Y931722D01*
X575758Y932478D01*
X576259Y933193D01*
X576820Y933862D01*
X577438Y934480D01*
X578107Y935041D01*
X578822Y935542D01*
X579578Y935979D01*
X580370Y936348D01*
X581190Y936646D01*
X582034Y936872D01*
X582894Y937024D01*
X583763Y937100D01*
X584637Y937100D01*
X585507Y937024D01*
X586366Y936872D01*
X587210Y936646D01*
X588030Y936348D01*
X588822Y935979D01*
X589578Y935542D01*
X590293Y935041D01*
X590962Y934480D01*
X591580Y933862D01*
X592141Y933193D01*
X592642Y932478D01*
X593079Y931722D01*
X593448Y930930D01*
X593746Y930110D01*
X593972Y929266D01*
X594124Y928407D01*
X594200Y927537D01*
X594200Y926663D01*
X289400Y926663D02*
X289324Y925794D01*
X289172Y924934D01*
X288946Y924090D01*
X288648Y923270D01*
X288279Y922478D01*
X287842Y921722D01*
X287341Y921007D01*
X286780Y920338D01*
X286162Y919720D01*
X285493Y919159D01*
X284778Y918658D01*
X284022Y918221D01*
X283230Y917852D01*
X282410Y917554D01*
X281566Y917328D01*
X280707Y917176D01*
X279837Y917100D01*
X278963Y917100D01*
X278094Y917176D01*
X277234Y917328D01*
X276390Y917554D01*
X275570Y917852D01*
X274778Y918221D01*
X274022Y918658D01*
X273307Y919159D01*
X272638Y919720D01*
X272020Y920338D01*
X271459Y921007D01*
X270958Y921722D01*
X270521Y922478D01*
X270152Y923270D01*
X269854Y924090D01*
X269628Y924934D01*
X269476Y925794D01*
X269400Y926663D01*
X269400Y927537D01*
X269476Y928407D01*
X269628Y929266D01*
X269854Y930110D01*
X270152Y930930D01*
X270521Y931722D01*
X270958Y932478D01*
X271459Y933193D01*
X272020Y933862D01*
X272638Y934480D01*
X273307Y935041D01*
X274022Y935542D01*
X274778Y935979D01*
X275570Y936348D01*
X276390Y936646D01*
X277234Y936872D01*
X278094Y937024D01*
X278963Y937100D01*
X279837Y937100D01*
X280707Y937024D01*
X281566Y936872D01*
X282410Y936646D01*
X283230Y936348D01*
X284022Y935979D01*
X284778Y935542D01*
X285493Y935041D01*
X286162Y934480D01*
X286780Y933862D01*
X287341Y933193D01*
X287842Y932478D01*
X288279Y931722D01*
X288648Y930930D01*
X288946Y930110D01*
X289172Y929266D01*
X289324Y928407D01*
X289400Y927537D01*
X289400Y926663D01*
X391000Y926663D02*
X390924Y925794D01*
X390772Y924934D01*
X390546Y924090D01*
X390248Y923270D01*
X389879Y922478D01*
X389442Y921722D01*
X388941Y921007D01*
X388380Y920338D01*
X387762Y919720D01*
X387093Y919159D01*
X386378Y918658D01*
X385622Y918221D01*
X384830Y917852D01*
X384010Y917554D01*
X383166Y917328D01*
X382307Y917176D01*
X381437Y917100D01*
X380563Y917100D01*
X379694Y917176D01*
X378834Y917328D01*
X377990Y917554D01*
X377170Y917852D01*
X376378Y918221D01*
X375622Y918658D01*
X374907Y919159D01*
X374238Y919720D01*
X373620Y920338D01*
X373059Y921007D01*
X372558Y921722D01*
X372121Y922478D01*
X371752Y923270D01*
X371454Y924090D01*
X371228Y924934D01*
X371076Y925794D01*
X371000Y926663D01*
X371000Y927537D01*
X371076Y928407D01*
X371228Y929266D01*
X371454Y930110D01*
X371752Y930930D01*
X372121Y931722D01*
X372558Y932478D01*
X373059Y933193D01*
X373620Y933862D01*
X374238Y934480D01*
X374907Y935041D01*
X375622Y935542D01*
X376378Y935979D01*
X377170Y936348D01*
X377990Y936646D01*
X378834Y936872D01*
X379694Y937024D01*
X380563Y937100D01*
X381437Y937100D01*
X382307Y937024D01*
X383166Y936872D01*
X384010Y936646D01*
X384830Y936348D01*
X385622Y935979D01*
X386378Y935542D01*
X387093Y935041D01*
X387762Y934480D01*
X388380Y933862D01*
X388941Y933193D01*
X389442Y932478D01*
X389879Y931722D01*
X390248Y930930D01*
X390546Y930110D01*
X390772Y929266D01*
X390924Y928407D01*
X391000Y927537D01*
X391000Y926663D01*
X1356200Y926663D02*
X1356124Y925794D01*
X1355972Y924934D01*
X1355746Y924090D01*
X1355448Y923270D01*
X1355079Y922478D01*
X1354642Y921722D01*
X1354141Y921007D01*
X1353580Y920338D01*
X1352962Y919720D01*
X1352293Y919159D01*
X1351578Y918658D01*
X1350822Y918221D01*
X1350030Y917852D01*
X1349210Y917554D01*
X1348366Y917328D01*
X1347507Y917176D01*
X1346637Y917100D01*
X1345763Y917100D01*
X1344894Y917176D01*
X1344034Y917328D01*
X1343190Y917554D01*
X1342370Y917852D01*
X1341578Y918221D01*
X1340822Y918658D01*
X1340107Y919159D01*
X1339438Y919720D01*
X1338820Y920338D01*
X1338259Y921007D01*
X1337758Y921722D01*
X1337321Y922478D01*
X1336952Y923270D01*
X1336654Y924090D01*
X1336428Y924934D01*
X1336276Y925794D01*
X1336200Y926663D01*
X1336200Y927537D01*
X1336276Y928407D01*
X1336428Y929266D01*
X1336654Y930110D01*
X1336952Y930930D01*
X1337321Y931722D01*
X1337758Y932478D01*
X1338259Y933193D01*
X1338820Y933862D01*
X1339438Y934480D01*
X1340107Y935041D01*
X1340822Y935542D01*
X1341578Y935979D01*
X1342370Y936348D01*
X1343190Y936646D01*
X1344034Y936872D01*
X1344894Y937024D01*
X1345763Y937100D01*
X1346637Y937100D01*
X1347507Y937024D01*
X1348366Y936872D01*
X1349210Y936646D01*
X1350030Y936348D01*
X1350822Y935979D01*
X1351578Y935542D01*
X1352293Y935041D01*
X1352962Y934480D01*
X1353580Y933862D01*
X1354141Y933193D01*
X1354642Y932478D01*
X1355079Y931722D01*
X1355448Y930930D01*
X1355746Y930110D01*
X1355972Y929266D01*
X1356124Y928407D01*
X1356200Y927537D01*
X1356200Y926663D01*
X1457800Y926663D02*
X1457724Y925794D01*
X1457572Y924934D01*
X1457346Y924090D01*
X1457048Y923270D01*
X1456679Y922478D01*
X1456242Y921722D01*
X1455741Y921007D01*
X1455180Y920338D01*
X1454562Y919720D01*
X1453893Y919159D01*
X1453178Y918658D01*
X1452422Y918221D01*
X1451630Y917852D01*
X1450810Y917554D01*
X1449966Y917328D01*
X1449107Y917176D01*
X1448237Y917100D01*
X1447363Y917100D01*
X1446494Y917176D01*
X1445634Y917328D01*
X1444790Y917554D01*
X1443970Y917852D01*
X1443178Y918221D01*
X1442422Y918658D01*
X1441707Y919159D01*
X1441038Y919720D01*
X1440420Y920338D01*
X1439859Y921007D01*
X1439358Y921722D01*
X1438921Y922478D01*
X1438552Y923270D01*
X1438254Y924090D01*
X1438028Y924934D01*
X1437876Y925794D01*
X1437800Y926663D01*
X1437800Y927537D01*
X1437876Y928407D01*
X1438028Y929266D01*
X1438254Y930110D01*
X1438552Y930930D01*
X1438921Y931722D01*
X1439358Y932478D01*
X1439859Y933193D01*
X1440420Y933862D01*
X1441038Y934480D01*
X1441707Y935041D01*
X1442422Y935542D01*
X1443178Y935979D01*
X1443970Y936348D01*
X1444790Y936646D01*
X1445634Y936872D01*
X1446494Y937024D01*
X1447363Y937100D01*
X1448237Y937100D01*
X1449107Y937024D01*
X1449966Y936872D01*
X1450810Y936646D01*
X1451630Y936348D01*
X1452422Y935979D01*
X1453178Y935542D01*
X1453893Y935041D01*
X1454562Y934480D01*
X1455180Y933862D01*
X1455741Y933193D01*
X1456242Y932478D01*
X1456679Y931722D01*
X1457048Y930930D01*
X1457346Y930110D01*
X1457572Y929266D01*
X1457724Y928407D01*
X1457800Y927537D01*
X1457800Y926663D01*
X1038700Y926663D02*
X1038624Y925794D01*
X1038472Y924934D01*
X1038246Y924090D01*
X1037948Y923270D01*
X1037579Y922478D01*
X1037142Y921722D01*
X1036641Y921007D01*
X1036080Y920338D01*
X1035462Y919720D01*
X1034793Y919159D01*
X1034078Y918658D01*
X1033322Y918221D01*
X1032530Y917852D01*
X1031710Y917554D01*
X1030866Y917328D01*
X1030007Y917176D01*
X1029137Y917100D01*
X1028263Y917100D01*
X1027394Y917176D01*
X1026534Y917328D01*
X1025690Y917554D01*
X1024870Y917852D01*
X1024078Y918221D01*
X1023322Y918658D01*
X1022607Y919159D01*
X1021938Y919720D01*
X1021320Y920338D01*
X1020759Y921007D01*
X1020258Y921722D01*
X1019821Y922478D01*
X1019452Y923270D01*
X1019154Y924090D01*
X1018928Y924934D01*
X1018776Y925794D01*
X1018700Y926663D01*
X1018700Y927537D01*
X1018776Y928407D01*
X1018928Y929266D01*
X1019154Y930110D01*
X1019452Y930930D01*
X1019821Y931722D01*
X1020258Y932478D01*
X1020759Y933193D01*
X1021320Y933862D01*
X1021938Y934480D01*
X1022607Y935041D01*
X1023322Y935542D01*
X1024078Y935979D01*
X1024870Y936348D01*
X1025690Y936646D01*
X1026534Y936872D01*
X1027394Y937024D01*
X1028263Y937100D01*
X1029137Y937100D01*
X1030007Y937024D01*
X1030866Y936872D01*
X1031710Y936646D01*
X1032530Y936348D01*
X1033322Y935979D01*
X1034078Y935542D01*
X1034793Y935041D01*
X1035462Y934480D01*
X1036080Y933862D01*
X1036641Y933193D01*
X1037142Y932478D01*
X1037579Y931722D01*
X1037948Y930930D01*
X1038246Y930110D01*
X1038472Y929266D01*
X1038624Y928407D01*
X1038700Y927537D01*
X1038700Y926663D01*
X1140300Y926663D02*
X1140224Y925794D01*
X1140072Y924934D01*
X1139846Y924090D01*
X1139548Y923270D01*
X1139179Y922478D01*
X1138742Y921722D01*
X1138241Y921007D01*
X1137680Y920338D01*
X1137062Y919720D01*
X1136393Y919159D01*
X1135678Y918658D01*
X1134922Y918221D01*
X1134130Y917852D01*
X1133310Y917554D01*
X1132466Y917328D01*
X1131607Y917176D01*
X1130737Y917100D01*
X1129863Y917100D01*
X1128994Y917176D01*
X1128134Y917328D01*
X1127290Y917554D01*
X1126470Y917852D01*
X1125678Y918221D01*
X1124922Y918658D01*
X1124207Y919159D01*
X1123538Y919720D01*
X1122920Y920338D01*
X1122359Y921007D01*
X1121858Y921722D01*
X1121421Y922478D01*
X1121052Y923270D01*
X1120754Y924090D01*
X1120528Y924934D01*
X1120376Y925794D01*
X1120300Y926663D01*
X1120300Y927537D01*
X1120376Y928407D01*
X1120528Y929266D01*
X1120754Y930110D01*
X1121052Y930930D01*
X1121421Y931722D01*
X1121858Y932478D01*
X1122359Y933193D01*
X1122920Y933862D01*
X1123538Y934480D01*
X1124207Y935041D01*
X1124922Y935542D01*
X1125678Y935979D01*
X1126470Y936348D01*
X1127290Y936646D01*
X1128134Y936872D01*
X1128994Y937024D01*
X1129863Y937100D01*
X1130737Y937100D01*
X1131607Y937024D01*
X1132466Y936872D01*
X1133310Y936646D01*
X1134130Y936348D01*
X1134922Y935979D01*
X1135678Y935542D01*
X1136393Y935041D01*
X1137062Y934480D01*
X1137680Y933862D01*
X1138241Y933193D01*
X1138742Y932478D01*
X1139179Y931722D01*
X1139548Y930930D01*
X1139846Y930110D01*
X1140072Y929266D01*
X1140224Y928407D01*
X1140300Y927537D01*
X1140300Y926663D01*
M02*
