G04 EAGLE Gerber RS-274X export*
G75*
%MOMM*%
%FSLAX34Y34*%
%LPD*%
%INSoldermask Bottom*%
%IPPOS*%
%AMOC8*
5,1,8,0,0,1.08239X$1,22.5*%
G01*
%ADD10C,1.103200*%
%ADD11C,1.524000*%
%ADD12C,2.743200*%
%ADD13C,1.320800*%
%ADD14C,2.603500*%
%ADD15C,2.743200*%
%ADD16C,1.727200*%
%ADD17P,4.343848X8X22.500000*%
%ADD18C,1.611200*%
%ADD19C,2.203200*%


D10*
X50800Y50800D03*
X38100Y965200D03*
X1549400Y50800D03*
X1549400Y939800D03*
X558800Y393700D03*
X571500Y101600D03*
X63500Y381000D03*
D11*
X1301496Y622300D02*
X1314704Y622300D01*
X1213104Y622300D02*
X1199896Y622300D01*
D12*
X535178Y596900D02*
X535178Y571500D01*
X760222Y571500D02*
X760222Y596900D01*
X116078Y584200D02*
X116078Y558800D01*
X341122Y558800D02*
X341122Y584200D01*
D13*
X723900Y749300D03*
X749300Y723900D03*
X774700Y749300D03*
X1333500Y762000D03*
X1308100Y736600D03*
X1333500Y711200D03*
D14*
X710502Y177800D02*
X686499Y177800D01*
X686499Y228600D02*
X710502Y228600D01*
X710502Y279400D02*
X686499Y279400D01*
D15*
X723900Y25400D03*
X673100Y25400D03*
D16*
X273320Y698900D02*
X258080Y698900D01*
X258080Y723900D02*
X273320Y723900D01*
X273320Y748900D02*
X258080Y748900D01*
D17*
X179832Y354076D03*
X179832Y153924D03*
X429768Y153924D03*
X429768Y203962D03*
X429768Y304038D03*
X429768Y354076D03*
D18*
X876300Y876300D03*
X850900Y876300D03*
D19*
X825500Y927100D03*
X927100Y927100D03*
D18*
X533400Y876300D03*
X508000Y876300D03*
D19*
X482600Y927100D03*
X584200Y927100D03*
D18*
X330200Y876300D03*
X304800Y876300D03*
D19*
X279400Y927100D03*
X381000Y927100D03*
D18*
X1397000Y876300D03*
X1371600Y876300D03*
D19*
X1346200Y927100D03*
X1447800Y927100D03*
D18*
X1079500Y876300D03*
X1054100Y876300D03*
D19*
X1028700Y927100D03*
X1130300Y927100D03*
M02*
