M48
;GenerationSoftware,Autodesk,EAGLE,9.4.2*%
;CreationDate,2019-08-25T04:18:31Z*%
FMAT,2
ICI,OFF
METRIC,TZ,000.000
T9C0.610
T8C0.813
T7C0.900
T6C1.016
T5C1.118
T4C1.321
T3C1.600
T2C2.000
%
G90
M71
T2
X92710Y92710
X82550Y92710
X113030Y92710
X102870Y92710
X144780Y92710
X134620Y92710
X38100Y92710
X27940Y92710
X58420Y92710
X48260Y92710
T3
X67310Y2540
X72390Y2540
X69850Y27940
X69850Y22860
X69850Y17780
T4
X53518Y58420
X34112Y57150
X11608Y57150
X76022Y58420
T5
X17983Y15392
X17983Y35408
X42977Y15392
X42977Y20396
X42977Y30404
X42977Y35408
T6
X26570Y69890
X26570Y72390
X26570Y74890
T7
X87630Y87630
X50800Y87630
X53340Y87630
X105410Y87630
X33020Y87630
X30480Y87630
X139700Y87630
X137160Y87630
X107950Y87630
X85090Y87630
X6350Y38100
X57150Y10160
X55880Y39370
X154940Y93980
X154940Y5080
X3810Y96520
X5080Y5080
T8
X120650Y62230
X130810Y62230
T9
X133350Y71120
X130810Y73660
X133350Y76200
X77470Y74930
X74930Y72390
X72390Y74930
M30